<svg width="232" height="36" viewBox="0 0 232 36" fill="none" xmlns="http://www.w3.org/2000/svg">
<path d="M61.912 18.808L62.472 17.52C64.0587 17.576 65.384 17.828 66.448 18.276C67.512 18.724 68.3053 19.3493 68.828 20.152C69.3693 20.936 69.64 21.8787 69.64 22.98C69.64 24.1187 69.3787 25.1453 68.856 26.06C68.352 26.9747 67.5773 27.6933 66.532 28.216C65.4867 28.7387 64.18 29 62.612 29H46.12L47.716 18.22L46.12 8H62.024C63.9653 8 65.4867 8.45733 66.588 9.372C67.6893 10.268 68.24 11.5187 68.24 13.124C68.24 14.0387 68.0347 14.8973 67.624 15.7C67.2133 16.5027 66.5413 17.184 65.608 17.744C64.6933 18.2853 63.4613 18.64 61.912 18.808ZM53.176 27.432L50.432 24.212H60.316C60.932 24.212 61.4173 24.0533 61.772 23.736C62.1267 23.4 62.304 22.952 62.304 22.392C62.304 21.888 62.1267 21.4587 61.772 21.104C61.436 20.7493 60.932 20.572 60.26 20.572H51.972V15.868H59.196C59.6813 15.868 60.0827 15.7187 60.4 15.42C60.736 15.1213 60.904 14.7387 60.904 14.272C60.904 13.8427 60.7547 13.488 60.456 13.208C60.1573 12.928 59.7373 12.788 59.196 12.788H50.46L53.176 9.568L54.604 18.22L53.176 27.432ZM79.0263 19.368C79.0263 20.1333 79.157 20.796 79.4183 21.356C79.6983 21.8973 80.1183 22.3173 80.6783 22.616C81.2383 22.9147 81.957 23.064 82.8343 23.064C83.7303 23.064 84.4583 22.924 85.0183 22.644C85.5783 22.3453 85.989 21.916 86.2503 21.356C86.5117 20.796 86.6423 20.1333 86.6423 19.368V8H93.8663V19.76C93.8663 21.72 93.409 23.428 92.4943 24.884C91.5797 26.34 90.2917 27.4787 88.6303 28.3C86.9877 29.1027 85.0557 29.504 82.8343 29.504C80.6317 29.504 78.6997 29.1027 77.0383 28.3C75.3957 27.4787 74.1077 26.34 73.1743 24.884C72.2597 23.428 71.8023 21.72 71.8023 19.76V8H79.0263V19.368ZM96.9652 8H104.189V29H96.9652V8ZM114.771 8V25.808L111.523 22.56H127.147V29H107.547V8H114.771ZM140.566 8C143.124 8 145.354 8.43867 147.258 9.316C149.181 10.1747 150.674 11.388 151.738 12.956C152.802 14.524 153.334 16.372 153.334 18.5C153.334 20.6093 152.802 22.4573 151.738 24.044C150.674 25.612 149.181 26.8347 147.258 27.712C145.354 28.5707 143.124 29 140.566 29H129.422V8H140.566ZM136.59 25.78L133.342 22.56H141.126C142.153 22.56 143.03 22.4013 143.758 22.084C144.505 21.748 145.074 21.2813 145.466 20.684C145.858 20.068 146.054 19.34 146.054 18.5C146.054 17.6413 145.858 16.9133 145.466 16.316C145.074 15.7187 144.505 15.2613 143.758 14.944C143.03 14.608 142.153 14.44 141.126 14.44H133.342L136.59 11.22V25.78ZM155.918 8H163.142V29H155.918V8ZM172.102 8H179.326V29H172.102V8ZM160.006 15.084H174.93V21.468H160.006V15.084ZM189.632 19.368C189.632 20.1333 189.762 20.796 190.024 21.356C190.304 21.8973 190.724 22.3173 191.284 22.616C191.844 22.9147 192.562 23.064 193.44 23.064C194.336 23.064 195.064 22.924 195.624 22.644C196.184 22.3453 196.594 21.916 196.856 21.356C197.117 20.796 197.248 20.1333 197.248 19.368V8H204.472V19.76C204.472 21.72 204.014 23.428 203.1 24.884C202.185 26.34 200.897 27.4787 199.236 28.3C197.593 29.1027 195.661 29.504 193.44 29.504C191.237 29.504 189.305 29.1027 187.644 28.3C186.001 27.4787 184.713 26.34 183.78 24.884C182.865 23.428 182.408 21.72 182.408 19.76V8H189.632V19.368ZM222.803 18.808L223.363 17.52C224.949 17.576 226.275 17.828 227.339 18.276C228.403 18.724 229.196 19.3493 229.719 20.152C230.26 20.936 230.531 21.8787 230.531 22.98C230.531 24.1187 230.269 25.1453 229.747 26.06C229.243 26.9747 228.468 27.6933 227.423 28.216C226.377 28.7387 225.071 29 223.503 29H207.011L208.607 18.22L207.011 8H222.915C224.856 8 226.377 8.45733 227.479 9.372C228.58 10.268 229.131 11.5187 229.131 13.124C229.131 14.0387 228.925 14.8973 228.515 15.7C228.104 16.5027 227.432 17.184 226.499 17.744C225.584 18.2853 224.352 18.64 222.803 18.808ZM214.067 27.432L211.323 24.212H221.207C221.823 24.212 222.308 24.0533 222.663 23.736C223.017 23.4 223.195 22.952 223.195 22.392C223.195 21.888 223.017 21.4587 222.663 21.104C222.327 20.7493 221.823 20.572 221.151 20.572H212.863V15.868H220.087C220.572 15.868 220.973 15.7187 221.291 15.42C221.627 15.1213 221.795 14.7387 221.795 14.272C221.795 13.8427 221.645 13.488 221.347 13.208C221.048 12.928 220.628 12.788 220.087 12.788H211.351L214.067 9.568L215.495 18.22L214.067 27.432Z" fill="black"/>
<circle cx="12" cy="19" r="12" fill="#26344F"/>
<circle cx="19" cy="12" r="12" fill="#647698"/>
</svg>
