<svg width="306" height="36" viewBox="0 0 306 36" fill="none" xmlns="http://www.w3.org/2000/svg">
<path d="M51.664 16.988H58.72C59.4293 16.988 59.98 16.82 60.372 16.484C60.764 16.148 60.96 15.6627 60.96 15.028C60.96 14.3933 60.764 13.908 60.372 13.572C59.98 13.236 59.4293 13.068 58.72 13.068H50.656L53.904 9.82V29H46.68V8H59.84C61.52 8 62.9853 8.29867 64.236 8.896C65.5053 9.47467 66.4853 10.2867 67.176 11.332C67.8853 12.3773 68.24 13.6093 68.24 15.028C68.24 16.4093 67.8853 17.632 67.176 18.696C66.4853 19.7413 65.5053 20.5533 64.236 21.132C62.9853 21.7107 61.52 22 59.84 22H51.664V16.988ZM54.128 19.172H62.108L69.08 29H60.82L54.128 19.172ZM82.9453 29.504C80.3879 29.504 78.1479 29.0467 76.2253 28.132C74.3213 27.2173 72.8373 25.9387 71.7733 24.296C70.7093 22.6347 70.1773 20.7027 70.1773 18.5C70.1773 16.2973 70.7093 14.3747 71.7733 12.732C72.8373 11.0707 74.3213 9.78267 76.2253 8.868C78.1479 7.95333 80.3879 7.496 82.9453 7.496C85.5026 7.496 87.7333 7.95333 89.6373 8.868C91.5599 9.78267 93.0533 11.0707 94.1173 12.732C95.1813 14.3747 95.7133 16.2973 95.7133 18.5C95.7133 20.7027 95.1813 22.6347 94.1173 24.296C93.0533 25.9387 91.5599 27.2173 89.6373 28.132C87.7333 29.0467 85.5026 29.504 82.9453 29.504ZM82.9453 23.064C84.0839 23.064 85.0639 22.8867 85.8853 22.532C86.7066 22.1587 87.3319 21.636 87.7613 20.964C88.2093 20.2733 88.4333 19.452 88.4333 18.5C88.4333 17.548 88.2093 16.736 87.7613 16.064C87.3319 15.3733 86.7066 14.8507 85.8853 14.496C85.0639 14.1227 84.0839 13.936 82.9453 13.936C81.8066 13.936 80.8266 14.1227 80.0053 14.496C79.1839 14.8507 78.5493 15.3733 78.1013 16.064C77.6719 16.736 77.4573 17.548 77.4573 18.5C77.4573 19.452 77.6719 20.2733 78.1013 20.964C78.5493 21.636 79.1839 22.1587 80.0053 22.532C80.8266 22.8867 81.8066 23.064 82.9453 23.064ZM105.222 19.368C105.222 20.1333 105.352 20.796 105.614 21.356C105.894 21.8973 106.314 22.3173 106.874 22.616C107.434 22.9147 108.152 23.064 109.03 23.064C109.926 23.064 110.654 22.924 111.214 22.644C111.774 22.3453 112.184 21.916 112.446 21.356C112.707 20.796 112.838 20.1333 112.838 19.368V8H120.062V19.76C120.062 21.72 119.604 23.428 118.69 24.884C117.775 26.34 116.487 27.4787 114.826 28.3C113.183 29.1027 111.251 29.504 109.03 29.504C106.827 29.504 104.895 29.1027 103.234 28.3C101.591 27.4787 100.303 26.34 99.3697 24.884C98.455 23.428 97.9977 21.72 97.9977 19.76V8H105.222V19.368ZM129.628 11.108H136.852V29H129.628V11.108ZM122.068 8H144.412V14.44H122.068V8ZM165.408 16.008V20.992H149.588V16.008H165.408ZM154.544 18.5L153.256 26.312L150.512 23.288H166.444V29H146.116L147.656 18.5L146.116 8H166.304V13.712H150.512L153.256 10.688L154.544 18.5ZM190.938 19.928C190.863 21.16 190.602 22.3547 190.154 23.512C189.725 24.6507 189.081 25.6773 188.222 26.592C187.382 27.488 186.309 28.1973 185.002 28.72C183.695 29.2427 182.146 29.504 180.354 29.504C178.73 29.504 177.19 29.2707 175.734 28.804C174.297 28.3373 173.018 27.6467 171.898 26.732C170.797 25.7987 169.929 24.6507 169.294 23.288C168.659 21.9067 168.342 20.3107 168.342 18.5C168.342 16.6893 168.659 15.1027 169.294 13.74C169.929 12.3587 170.815 11.2107 171.954 10.296C173.093 9.36267 174.409 8.66267 175.902 8.196C177.395 7.72933 179.01 7.496 180.746 7.496C183.173 7.496 185.245 7.86 186.962 8.588C188.698 9.29733 190.089 10.2773 191.134 11.528C192.198 12.7787 192.898 14.2253 193.234 15.868H185.982C185.814 15.3453 185.478 14.9067 184.974 14.552C184.489 14.1787 183.891 13.8987 183.182 13.712C182.473 13.5067 181.679 13.404 180.802 13.404C179.719 13.404 178.786 13.5907 178.002 13.964C177.218 14.3187 176.611 14.8693 176.182 15.616C175.771 16.3627 175.566 17.324 175.566 18.5C175.566 19.6947 175.799 20.684 176.266 21.468C176.751 22.252 177.433 22.8307 178.31 23.204C179.206 23.5773 180.261 23.764 181.474 23.764C182.65 23.764 183.695 23.6333 184.61 23.372C185.525 23.092 186.262 22.672 186.822 22.112C187.401 21.5333 187.755 20.8053 187.886 19.928H190.938ZM181.922 21.86V17.772H193.402V29H188.39L187.326 20.964L188.586 21.86H181.922ZM215.146 16.008V20.992H199.326V16.008H215.146ZM204.282 18.5L202.994 26.312L200.25 23.288H216.182V29H195.854L197.394 18.5L195.854 8H216.042V13.712H200.25L202.994 10.688L204.282 18.5ZM238.597 23.736L236.637 24.212V8H243.637V29H234.593L224.177 12.816L226.137 12.34V29H219.137V8H228.461L238.597 23.736ZM247 8H254.224V29H247V8ZM264.526 19.368C264.526 20.1333 264.657 20.796 264.918 21.356C265.198 21.8973 265.618 22.3173 266.178 22.616C266.738 22.9147 267.457 23.064 268.334 23.064C269.23 23.064 269.958 22.924 270.518 22.644C271.078 22.3453 271.489 21.916 271.75 21.356C272.012 20.796 272.142 20.1333 272.142 19.368V8H279.366V19.76C279.366 21.72 278.909 23.428 277.994 24.884C277.08 26.34 275.792 27.4787 274.13 28.3C272.488 29.1027 270.556 29.504 268.334 29.504C266.132 29.504 264.2 29.1027 262.538 28.3C260.896 27.4787 259.608 26.34 258.674 24.884C257.76 23.428 257.302 21.72 257.302 19.76V8H264.526V19.368ZM281.765 22.084H289.101C289.176 22.4947 289.39 22.8493 289.745 23.148C290.1 23.428 290.585 23.652 291.201 23.82C291.817 23.9693 292.554 24.044 293.413 24.044C294.533 24.044 295.401 23.932 296.017 23.708C296.652 23.484 296.969 23.12 296.969 22.616C296.969 22.28 296.792 22 296.437 21.776C296.082 21.5333 295.354 21.3747 294.253 21.3L290.781 21.076C287.626 20.8707 285.349 20.1987 283.949 19.06C282.549 17.9213 281.849 16.4187 281.849 14.552C281.849 12.984 282.297 11.6773 283.193 10.632C284.089 9.58667 285.34 8.80267 286.945 8.28C288.569 7.75733 290.464 7.496 292.629 7.496C294.738 7.496 296.605 7.79467 298.229 8.392C299.872 8.97067 301.169 9.792 302.121 10.856C303.092 11.92 303.624 13.1613 303.717 14.58H296.381C296.325 14.244 296.138 13.9547 295.821 13.712C295.522 13.4693 295.093 13.2827 294.533 13.152C293.973 13.0213 293.292 12.956 292.489 12.956C291.462 12.956 290.65 13.0587 290.053 13.264C289.474 13.4693 289.185 13.8053 289.185 14.272C289.185 14.5893 289.353 14.86 289.689 15.084C290.044 15.308 290.716 15.4573 291.705 15.532L295.625 15.784C297.678 15.9147 299.34 16.2227 300.609 16.708C301.878 17.1747 302.802 17.828 303.381 18.668C303.978 19.508 304.277 20.544 304.277 21.776C304.277 23.3253 303.82 24.6787 302.905 25.836C301.99 26.9933 300.702 27.8987 299.041 28.552C297.398 29.1867 295.476 29.504 293.273 29.504C290.996 29.504 288.998 29.196 287.281 28.58C285.564 27.964 284.22 27.096 283.249 25.976C282.297 24.856 281.802 23.5587 281.765 22.084Z" fill="#26344F"/>
<circle cx="12" cy="19" r="12" fill="#26344F"/>
<circle cx="19" cy="12" r="12" fill="#647698"/>
</svg>
