<svg width="34" height="34" viewBox="0 0 34 34" fill="none" xmlns="http://www.w3.org/2000/svg">
<g clip-path="url(#clip0_170_601)">
<path d="M33.4094 0.639084C33.5553 0.783511 33.655 0.967122 33.6962 1.16711C33.7374 1.3671 33.7183 1.57464 33.6412 1.76397L21.3787 32.0672C21.2707 32.3341 21.0902 32.5663 20.8572 32.7383C20.6243 32.9103 20.3478 33.0155 20.0582 33.0422C19.7687 33.0689 19.4773 33.0161 19.2162 32.8897C18.955 32.7632 18.7342 32.568 18.5781 32.3255L11.881 21.9203L1.35498 15.3001C1.10909 15.1459 0.911072 14.9276 0.782775 14.6692C0.654478 14.4108 0.600888 14.1224 0.627919 13.8358C0.65495 13.5492 0.761551 13.2755 0.935959 13.045C1.11037 12.8145 1.3458 12.6362 1.61628 12.5296L32.2715 0.412023C32.463 0.335806 32.6729 0.316892 32.8753 0.35763C33.0776 0.398368 33.2633 0.496963 33.4094 0.641167V0.639084ZM13.9841 21.312L19.8025 30.3486L29.7764 5.70108L13.9841 21.312ZM28.2865 4.22831L3.35271 14.0877L12.4964 19.8372L28.2886 4.22831H28.2865Z" fill="#656565"/>
</g>
<defs>
<clipPath id="clip0_170_601">
<rect width="33.7171" height="33.33" fill="white" transform="translate(0 0.334961)"/>
</clipPath>
</defs>
</svg>
