<svg width="128" height="128" viewBox="0 0 128 128" fill="none" xmlns="http://www.w3.org/2000/svg">
<path d="M72 40H80V48H72V40ZM48 40H56V48H48V40Z" fill="#26344F"/>
<path d="M104 80H84V72H88C90.1211 71.9979 92.1547 71.1544 93.6545 69.6545C95.1544 68.1547 95.9979 66.1211 96 64V48H104V40H96V32C95.9979 29.8789 95.1544 27.8453 93.6545 26.3455C92.1547 24.8457 90.1211 24.0021 88 24H80V8H72V24H56V8H48V24H40C37.8789 24.0021 35.8453 24.8457 34.3455 26.3455C32.8457 27.8453 32.0021 29.8789 32 32V40H24V48H32V64C32.0021 66.1211 32.8457 68.1547 34.3455 69.6545C35.8453 71.1544 37.8789 71.9979 40 72H44V80H24C21.8789 80.0021 19.8453 80.8456 18.3455 82.3455C16.8457 83.8453 16.0021 85.8789 16 88V120H24V88H104V120H112V88C111.998 85.8789 111.154 83.8453 109.655 82.3455C108.155 80.8456 106.121 80.0021 104 80ZM40 32H88V64H40V32ZM52 72H76V80H52V72Z" fill="#26344F"/>
</svg>
