<svg width="49" height="48" viewBox="0 0 49 48" fill="none" xmlns="http://www.w3.org/2000/svg">
<g clip-path="url(#clip0_170_913)">
<path fill-rule="evenodd" clip-rule="evenodd" d="M24.5 0.566406L24.1544 1.16641L20.8074 6.95617H23.3V27.5866L5.43296 37.9018L4.1864 35.7427L0.5 42.1358H1.19168L7.88 42.1397L6.63296 39.9806L24.5 29.6654L42.367 39.9806L41.12 42.1397L48.5 42.1358L48.1544 41.5358L44.8136 35.7427L43.567 37.9022L25.7 27.587V6.95569H28.1926L24.5 0.566406Z" fill="#26344F"/>
<path fill-rule="evenodd" clip-rule="evenodd" d="M24.048 13.6565L10.0099 22.8624C9.68639 23.0962 9.59951 23.3621 9.59375 23.604V37.3608C9.59375 37.6632 9.75119 37.9445 10.0099 38.1024L24.048 47.3078C24.3864 47.4926 24.7306 47.4614 24.959 47.303L38.9904 38.1024C39.1175 38.0248 39.2225 37.9159 39.2954 37.786C39.3683 37.6561 39.4066 37.5097 39.4066 37.3608V23.604C39.4037 23.2373 39.2482 23.0438 38.977 22.8533L24.9523 13.6565C24.6182 13.4659 24.3562 13.5566 24.048 13.6565ZM24.5002 15.4133L36.7474 23.5282L24.4925 31.787L12.1306 23.6035L24.5002 15.4133ZM11.3289 25.1491L23.6323 33.2976V45.0216L11.3299 36.8731L11.3289 25.1491ZM37.6714 25.1491V36.8726L25.368 45.0211V33.2966L37.6714 25.1491Z" fill="#26344F"/>
</g>
<defs>
<clipPath id="clip0_170_913">
<rect width="48" height="48" fill="white" transform="translate(0.5)"/>
</clipPath>
</defs>
</svg>
