<svg width="79" height="70" viewBox="0 0 79 70" fill="none" xmlns="http://www.w3.org/2000/svg">
<path d="M6.1 41.3022H5.4V42.0022V64.4022V65.1022H6.1H73.3H74V64.4022V42.0022V41.3022H73.3H56.5C55.943 41.3022 55.4089 41.081 55.0151 40.6871C54.6212 40.2933 54.4 39.7592 54.4 39.2022C54.4 38.6452 54.6212 38.1111 55.0151 37.7173C55.4089 37.3235 55.943 37.1022 56.5 37.1022H73.3C74.5996 37.1022 75.8459 37.6185 76.7648 38.5374C77.6837 39.4563 78.2 40.7026 78.2 42.0022V64.4022C78.2 65.7018 77.6837 66.9481 76.7648 67.867C75.8459 68.7859 74.5996 69.3022 73.3 69.3022H6.1C4.80044 69.3022 3.5541 68.7859 2.63518 67.867C1.71625 66.9481 1.2 65.7018 1.2 64.4022V42.0022C1.2 40.7026 1.71625 39.4563 2.63518 38.5374C3.5541 37.6185 4.80044 37.1022 6.1 37.1022H22.9C23.457 37.1022 23.9911 37.3235 24.3849 37.7173C24.7787 38.1111 25 38.6452 25 39.2022C25 39.7592 24.7787 40.2933 24.3849 40.6871C23.9911 41.081 23.457 41.3022 22.9 41.3022H6.1ZM37.6 9.5607V7.87041L36.405 9.0658L24.386 21.0882C24.386 21.0882 24.386 21.0883 24.386 21.0883C23.9918 21.4824 23.4573 21.7038 22.9 21.7038C22.3426 21.7038 21.8081 21.4823 21.414 21.0882C21.0199 20.6941 20.7984 20.1596 20.7984 19.6022C20.7984 19.0448 21.0199 18.5103 21.414 18.1162L38.214 1.31618L38.2142 1.3159C38.4093 1.12065 38.6409 0.965758 38.8958 0.860076C39.1508 0.754395 39.424 0.7 39.7 0.7C39.976 0.7 40.2492 0.754395 40.5042 0.860076C40.7591 0.965758 40.9907 1.12065 41.1857 1.3159L41.186 1.31618L57.986 18.1162C58.3801 18.5103 58.6016 19.0448 58.6016 19.6022C58.6016 20.1596 58.3801 20.6941 57.986 21.0882C57.5919 21.4823 57.0574 21.7038 56.5 21.7038C55.9427 21.7038 55.4082 21.4824 55.014 21.0883C55.014 21.0883 55.014 21.0883 55.014 21.0882L42.995 9.0658L41.8 7.87041V9.5607V39.2022C41.8 39.7592 41.5788 40.2933 41.1849 40.6871C40.7911 41.081 40.257 41.3022 39.7 41.3022C39.143 41.3022 38.6089 41.081 38.2151 40.6871C37.8213 40.2933 37.6 39.7592 37.6 39.2022V9.5607ZM63.6101 51.2577C63.9947 51.8333 64.2 52.51 64.2 53.2022C64.2 54.1305 63.8312 55.0207 63.1749 55.6771C62.5185 56.3335 61.6283 56.7022 60.7 56.7022C60.0078 56.7022 59.3311 56.4969 58.7555 56.1123C58.1799 55.7278 57.7313 55.1811 57.4664 54.5416C57.2015 53.902 57.1322 53.1983 57.2673 52.5194C57.4023 51.8405 57.7356 51.2168 58.2251 50.7273C58.7146 50.2378 59.3383 49.9045 60.0172 49.7695C60.6961 49.6344 61.3998 49.7037 62.0394 49.9686C62.6789 50.2335 63.2256 50.6821 63.6101 51.2577Z" fill="black" stroke="white" stroke-width="1.4"/>
</svg>
