<svg width="48" height="48" viewBox="0 0 48 48" fill="none" xmlns="http://www.w3.org/2000/svg">
<path d="M38.9256 4.66323C40.4928 5.89203 41.5728 7.87683 42.0144 9.95523C42.0679 9.97216 42.12 9.99302 42.1704 10.0176L47.0784 12.288C47.3527 12.414 47.5853 12.6159 47.7486 12.8697C47.9119 13.1236 47.9991 13.419 48 13.7208V43.4016C47.9982 43.6482 47.9394 43.891 47.828 44.111C47.7167 44.331 47.5559 44.5222 47.3583 44.6696C47.1606 44.817 46.9315 44.9166 46.6889 44.9606C46.4463 45.0046 46.1968 44.9918 45.96 44.9232L32.3544 41.0832L16.1784 45.5424C15.8865 45.6226 15.5781 45.6193 15.288 45.5328L1.1376 41.3208C0.81053 41.2248 0.523175 41.0258 0.318229 40.7534C0.113282 40.481 0.00167918 40.1497 0 39.8088L0 9.59523C0 8.53923 1.0272 7.78083 2.052 8.07843L15.7368 12.0648L22.692 9.93603C22.7877 9.90778 22.8857 9.8877 22.9848 9.87603C23.2536 8.30163 24.0048 6.78963 25.2648 5.31603C26.76 3.56403 29.3832 2.53683 31.9392 2.41443C34.5912 2.28723 36.6168 2.85363 38.9232 4.66083M3.1992 11.7144V38.6304L14.8872 42.108V15.1152L3.1992 11.7144ZM22.9008 13.188L18.0864 14.6592V41.7288L30.2424 38.3832V30.4752C30.2424 29.6016 30.96 28.8936 31.8432 28.8936C32.7264 28.8936 33.4416 29.6016 33.4416 30.4776V38.1024L44.8008 41.3064V14.7264L42.1128 13.4784C42.0672 13.7424 42.0096 14.0016 41.9376 14.2536C41.4157 16.0939 40.5402 17.8147 39.36 19.32L33.4152 26.7432C33.2587 26.9384 33.0588 27.0944 32.8314 27.1987C32.604 27.3031 32.3554 27.3529 32.1053 27.3443C31.8553 27.3357 31.6107 27.2688 31.3911 27.149C31.1714 27.0293 30.9827 26.8599 30.84 26.6544L25.284 18.6072C24.3672 17.3256 23.724 16.1832 23.3616 15.1608C23.1341 14.5227 22.9795 13.8609 22.9008 13.188ZM32.0928 5.57763C30.3504 5.66163 28.56 6.36243 27.708 7.35843C26.6832 8.55843 26.1792 9.68163 26.0784 10.8192C25.9584 12.1896 26.04 13.1568 26.3808 14.1144C26.6328 14.8224 27.1344 15.72 27.9096 16.8024L32.256 23.0952L36.84 17.3712C37.7648 16.1894 38.4504 14.8386 38.8584 13.3944C39.4344 11.3784 38.5656 8.41683 36.9384 7.14483C35.2704 5.83683 34.0104 5.48403 32.0952 5.57763M32.4264 7.25043C35.076 7.25043 37.2264 9.37443 37.2264 11.9952C37.2229 12.622 37.096 13.2419 36.8529 13.8197C36.6098 14.3974 36.2552 14.9215 35.8095 15.3621C35.3637 15.8028 34.8355 16.1512 34.255 16.3877C33.6745 16.6241 33.0532 16.7438 32.4264 16.74C29.7768 16.74 27.6264 14.616 27.6264 11.9952C27.6264 9.37443 29.7768 7.25043 32.4264 7.25043ZM32.4264 10.4136C32.2174 10.4124 32.0103 10.4523 31.8167 10.5311C31.6232 10.6099 31.4471 10.726 31.2984 10.8729C31.1498 11.0198 31.0315 11.1945 30.9504 11.387C30.8693 11.5796 30.8269 11.7863 30.8256 11.9952C30.8256 12.8688 31.5432 13.5768 32.4264 13.5768C32.6354 13.5778 32.8425 13.5376 33.0359 13.4585C33.2293 13.3794 33.4052 13.263 33.5537 13.1159C33.7021 12.9688 33.8201 12.7939 33.9009 12.6012C33.9818 12.4085 34.0239 12.2018 34.0248 11.9928C34.0216 11.5717 33.8516 11.1689 33.552 10.8729C33.2524 10.5769 32.8476 10.4117 32.4264 10.4136Z" fill="#26344F"/>
</svg>
