<svg width="864" height="140" viewBox="0 0 864 140" fill="none" xmlns="http://www.w3.org/2000/svg">
<path d="M3.888 15.408V12.402H13.194V15.408H3.888ZM11.07 4.5L17.208 18H13.23L8.082 6.084H9.162L3.996 18H0.018L6.156 4.5H11.07ZM22.2126 4.5V16.344L20.5386 14.688H30.6366V18H18.4866V4.5H22.2126ZM43.7707 9.9V12.6H33.8887V9.9H43.7707ZM36.4267 11.25L35.5447 16.668L34.0327 14.976H44.3647V18H31.8187L32.8447 11.25L31.8187 4.5H44.2747V7.524H34.0327L35.5447 5.832L36.4267 11.25ZM49.0977 10.404H54.0117C54.6117 10.404 55.0797 10.266 55.4157 9.99C55.7517 9.714 55.9197 9.33 55.9197 8.838C55.9197 8.334 55.7517 7.95 55.4157 7.686C55.0797 7.41 54.6117 7.272 54.0117 7.272H48.5757L50.2497 5.49V18H46.5237V4.5H54.5337C55.5657 4.5 56.4657 4.686 57.2337 5.058C58.0017 5.418 58.6017 5.922 59.0337 6.57C59.4657 7.206 59.6817 7.962 59.6817 8.838C59.6817 9.69 59.4657 10.44 59.0337 11.088C58.6017 11.736 58.0017 12.24 57.2337 12.6C56.4657 12.96 55.5657 13.14 54.5337 13.14H49.0977V10.404ZM51.1137 11.682H55.3077L60.1497 18H55.8297L51.1137 11.682ZM65.6599 6.138H69.4039V18H65.6599V6.138ZM60.5119 4.5H74.5519V7.812H60.5119V4.5ZM75.232 13.572H79.03C79.09 13.944 79.264 14.268 79.552 14.544C79.84 14.82 80.224 15.036 80.704 15.192C81.196 15.336 81.772 15.408 82.432 15.408C83.344 15.408 84.064 15.294 84.592 15.066C85.12 14.826 85.384 14.478 85.384 14.022C85.384 13.674 85.234 13.404 84.934 13.212C84.634 13.02 84.058 12.882 83.206 12.798L80.686 12.564C78.826 12.396 77.476 11.976 76.636 11.304C75.796 10.62 75.376 9.702 75.376 8.55C75.376 7.614 75.646 6.822 76.186 6.174C76.738 5.526 77.506 5.04 78.49 4.716C79.486 4.38 80.644 4.212 81.964 4.212C83.26 4.212 84.412 4.398 85.42 4.77C86.428 5.13 87.226 5.646 87.814 6.318C88.414 6.99 88.738 7.77 88.786 8.658H85.006C84.958 8.334 84.802 8.058 84.538 7.83C84.286 7.59 83.938 7.41 83.494 7.29C83.05 7.158 82.516 7.092 81.892 7.092C81.052 7.092 80.386 7.206 79.894 7.434C79.402 7.65 79.156 7.974 79.156 8.406C79.156 8.718 79.3 8.97 79.588 9.162C79.888 9.354 80.422 9.486 81.19 9.558L83.872 9.828C85.156 9.948 86.182 10.158 86.95 10.458C87.718 10.746 88.276 11.148 88.624 11.664C88.972 12.18 89.146 12.822 89.146 13.59C89.146 14.538 88.864 15.366 88.3 16.074C87.736 16.77 86.944 17.316 85.924 17.712C84.904 18.096 83.716 18.288 82.36 18.288C80.968 18.288 79.738 18.096 78.67 17.712C77.614 17.316 76.786 16.764 76.186 16.056C75.586 15.336 75.268 14.508 75.232 13.572Z" fill="#26344F"/>
<rect x="1" y="41" width="528" height="98" stroke="#C5221F" stroke-width="2"/>
<path d="M91.36 95.52H96.24V97H89.54V83.06H91.36V95.52ZM102.953 97.18C101.926 97.18 100.993 96.9467 100.153 96.48C99.3261 96.0133 98.6728 95.3533 98.1928 94.5C97.7261 93.6333 97.4928 92.6333 97.4928 91.5C97.4928 90.38 97.7328 89.3933 98.2128 88.54C98.7061 87.6733 99.3728 87.0133 100.213 86.56C101.053 86.0933 101.993 85.86 103.033 85.86C104.073 85.86 105.013 86.0933 105.853 86.56C106.693 87.0133 107.353 87.6667 107.833 88.52C108.326 89.3733 108.573 90.3667 108.573 91.5C108.573 92.6333 108.319 93.6333 107.813 94.5C107.319 95.3533 106.646 96.0133 105.793 96.48C104.939 96.9467 103.993 97.18 102.953 97.18ZM102.953 95.58C103.606 95.58 104.219 95.4267 104.793 95.12C105.366 94.8133 105.826 94.3533 106.173 93.74C106.533 93.1267 106.713 92.38 106.713 91.5C106.713 90.62 106.539 89.8733 106.193 89.26C105.846 88.6467 105.393 88.1933 104.833 87.9C104.273 87.5933 103.666 87.44 103.013 87.44C102.346 87.44 101.733 87.5933 101.173 87.9C100.626 88.1933 100.186 88.6467 99.8528 89.26C99.5195 89.8733 99.3528 90.62 99.3528 91.5C99.3528 92.3933 99.5128 93.1467 99.8328 93.76C100.166 94.3733 100.606 94.8333 101.153 95.14C101.699 95.4333 102.299 95.58 102.953 95.58ZM125.566 86.04L122.146 97H120.266L117.626 88.3L114.986 97H113.106L109.666 86.04H111.526L114.046 95.24L116.766 86.04H118.626L121.286 95.26L123.766 86.04H125.566ZM134.524 95.52H139.404V97H132.704V83.06H134.524V95.52ZM151.337 91.1C151.337 91.4467 151.317 91.8133 151.277 92.2H142.517C142.584 93.28 142.95 94.1267 143.617 94.74C144.297 95.34 145.117 95.64 146.077 95.64C146.864 95.64 147.517 95.46 148.037 95.1C148.57 94.7267 148.944 94.2333 149.157 93.62H151.117C150.824 94.6733 150.237 95.5333 149.357 96.2C148.477 96.8533 147.384 97.18 146.077 97.18C145.037 97.18 144.104 96.9467 143.277 96.48C142.464 96.0133 141.824 95.3533 141.357 94.5C140.89 93.6333 140.657 92.6333 140.657 91.5C140.657 90.3667 140.884 89.3733 141.337 88.52C141.79 87.6667 142.424 87.0133 143.237 86.56C144.064 86.0933 145.01 85.86 146.077 85.86C147.117 85.86 148.037 86.0867 148.837 86.54C149.637 86.9933 150.25 87.62 150.677 88.42C151.117 89.2067 151.337 90.1 151.337 91.1ZM149.457 90.72C149.457 90.0267 149.304 89.4333 148.997 88.94C148.69 88.4333 148.27 88.0533 147.737 87.8C147.217 87.5333 146.637 87.4 145.997 87.4C145.077 87.4 144.29 87.6933 143.637 88.28C142.997 88.8667 142.63 89.68 142.537 90.72H149.457ZM157.819 95.32L161.219 86.04H163.159L158.859 97H156.739L152.439 86.04H154.399L157.819 95.32ZM174.95 91.1C174.95 91.4467 174.93 91.8133 174.89 92.2H166.13C166.197 93.28 166.563 94.1267 167.23 94.74C167.91 95.34 168.73 95.64 169.69 95.64C170.477 95.64 171.13 95.46 171.65 95.1C172.183 94.7267 172.557 94.2333 172.77 93.62H174.73C174.437 94.6733 173.85 95.5333 172.97 96.2C172.09 96.8533 170.997 97.18 169.69 97.18C168.65 97.18 167.717 96.9467 166.89 96.48C166.077 96.0133 165.437 95.3533 164.97 94.5C164.503 93.6333 164.27 92.6333 164.27 91.5C164.27 90.3667 164.497 89.3733 164.95 88.52C165.403 87.6667 166.037 87.0133 166.85 86.56C167.677 86.0933 168.623 85.86 169.69 85.86C170.73 85.86 171.65 86.0867 172.45 86.54C173.25 86.9933 173.863 87.62 174.29 88.42C174.73 89.2067 174.95 90.1 174.95 91.1ZM173.07 90.72C173.07 90.0267 172.917 89.4333 172.61 88.94C172.303 88.4333 171.883 88.0533 171.35 87.8C170.83 87.5333 170.25 87.4 169.61 87.4C168.69 87.4 167.903 87.6933 167.25 88.28C166.61 88.8667 166.243 89.68 166.15 90.72H173.07ZM179.173 82.2V97H177.353V82.2H179.173ZM193.926 97.14C192.633 97.14 191.453 96.84 190.386 96.24C189.32 95.6267 188.473 94.78 187.846 93.7C187.233 92.6067 186.926 91.38 186.926 90.02C186.926 88.66 187.233 87.44 187.846 86.36C188.473 85.2667 189.32 84.42 190.386 83.82C191.453 83.2067 192.633 82.9 193.926 82.9C195.233 82.9 196.42 83.2067 197.486 83.82C198.553 84.42 199.393 85.26 200.006 86.34C200.62 87.42 200.926 88.6467 200.926 90.02C200.926 91.3933 200.62 92.62 200.006 93.7C199.393 94.78 198.553 95.6267 197.486 96.24C196.42 96.84 195.233 97.14 193.926 97.14ZM193.926 95.56C194.9 95.56 195.773 95.3333 196.546 94.88C197.333 94.4267 197.946 93.78 198.386 92.94C198.84 92.1 199.066 91.1267 199.066 90.02C199.066 88.9 198.84 87.9267 198.386 87.1C197.946 86.26 197.34 85.6133 196.566 85.16C195.793 84.7067 194.913 84.48 193.926 84.48C192.94 84.48 192.06 84.7067 191.286 85.16C190.513 85.6133 189.9 86.26 189.446 87.1C189.006 87.9267 188.786 88.9 188.786 90.02C188.786 91.1267 189.006 92.1 189.446 92.94C189.9 93.78 190.513 94.4267 191.286 94.88C192.073 95.3333 192.953 95.56 193.926 95.56ZM207.789 87.54H205.489V97H203.669V87.54H202.249V86.04H203.669V85.26C203.669 84.0333 203.982 83.14 204.609 82.58C205.249 82.0067 206.269 81.72 207.669 81.72V83.24C206.869 83.24 206.302 83.4 205.969 83.72C205.649 84.0267 205.489 84.54 205.489 85.26V86.04H207.789V87.54ZM222.583 97L219.263 91.3H217.063V97H215.243V83.06H219.743C220.796 83.06 221.683 83.24 222.403 83.6C223.136 83.96 223.683 84.4467 224.043 85.06C224.403 85.6733 224.583 86.3733 224.583 87.16C224.583 88.12 224.303 88.9667 223.743 89.7C223.196 90.4333 222.37 90.92 221.263 91.16L224.763 97H222.583ZM217.063 89.84H219.743C220.73 89.84 221.47 89.6 221.963 89.12C222.456 88.6267 222.703 87.9733 222.703 87.16C222.703 86.3333 222.456 85.6933 221.963 85.24C221.483 84.7867 220.743 84.56 219.743 84.56H217.063V89.84ZM237.411 91.1C237.411 91.4467 237.391 91.8133 237.351 92.2H228.591C228.658 93.28 229.024 94.1267 229.691 94.74C230.371 95.34 231.191 95.64 232.151 95.64C232.938 95.64 233.591 95.46 234.111 95.1C234.644 94.7267 235.018 94.2333 235.231 93.62H237.191C236.898 94.6733 236.311 95.5333 235.431 96.2C234.551 96.8533 233.458 97.18 232.151 97.18C231.111 97.18 230.178 96.9467 229.351 96.48C228.538 96.0133 227.898 95.3533 227.431 94.5C226.964 93.6333 226.731 92.6333 226.731 91.5C226.731 90.3667 226.958 89.3733 227.411 88.52C227.864 87.6667 228.498 87.0133 229.311 86.56C230.138 86.0933 231.084 85.86 232.151 85.86C233.191 85.86 234.111 86.0867 234.911 86.54C235.711 86.9933 236.324 87.62 236.751 88.42C237.191 89.2067 237.411 90.1 237.411 91.1ZM235.531 90.72C235.531 90.0267 235.378 89.4333 235.071 88.94C234.764 88.4333 234.344 88.0533 233.811 87.8C233.291 87.5333 232.711 87.4 232.071 87.4C231.151 87.4 230.364 87.6933 229.711 88.28C229.071 88.8667 228.704 89.68 228.611 90.72H235.531ZM243.693 97.18C242.853 97.18 242.1 97.04 241.433 96.76C240.767 96.4667 240.24 96.0667 239.853 95.56C239.467 95.04 239.253 94.4467 239.213 93.78H241.093C241.147 94.3267 241.4 94.7733 241.853 95.12C242.32 95.4667 242.927 95.64 243.673 95.64C244.367 95.64 244.913 95.4867 245.313 95.18C245.713 94.8733 245.913 94.4867 245.913 94.02C245.913 93.54 245.7 93.1867 245.273 92.96C244.847 92.72 244.187 92.4867 243.293 92.26C242.48 92.0467 241.813 91.8333 241.293 91.62C240.787 91.3933 240.347 91.0667 239.973 90.64C239.613 90.2 239.433 89.6267 239.433 88.92C239.433 88.36 239.6 87.8467 239.933 87.38C240.267 86.9133 240.74 86.5467 241.353 86.28C241.967 86 242.667 85.86 243.453 85.86C244.667 85.86 245.647 86.1667 246.393 86.78C247.14 87.3933 247.54 88.2333 247.593 89.3H245.773C245.733 88.7267 245.5 88.2667 245.073 87.92C244.66 87.5733 244.1 87.4 243.393 87.4C242.74 87.4 242.22 87.54 241.833 87.82C241.447 88.1 241.253 88.4667 241.253 88.92C241.253 89.28 241.367 89.58 241.593 89.82C241.833 90.0467 242.127 90.2333 242.473 90.38C242.833 90.5133 243.327 90.6667 243.953 90.84C244.74 91.0533 245.38 91.2667 245.873 91.48C246.367 91.68 246.787 91.9867 247.133 92.4C247.493 92.8133 247.68 93.3533 247.693 94.02C247.693 94.62 247.527 95.16 247.193 95.64C246.86 96.12 246.387 96.5 245.773 96.78C245.173 97.0467 244.48 97.18 243.693 97.18ZM254.143 97.18C253.303 97.18 252.549 97.04 251.883 96.76C251.216 96.4667 250.689 96.0667 250.303 95.56C249.916 95.04 249.703 94.4467 249.663 93.78H251.543C251.596 94.3267 251.849 94.7733 252.303 95.12C252.769 95.4667 253.376 95.64 254.123 95.64C254.816 95.64 255.363 95.4867 255.763 95.18C256.163 94.8733 256.363 94.4867 256.363 94.02C256.363 93.54 256.149 93.1867 255.723 92.96C255.296 92.72 254.636 92.4867 253.743 92.26C252.929 92.0467 252.263 91.8333 251.743 91.62C251.236 91.3933 250.796 91.0667 250.423 90.64C250.063 90.2 249.883 89.6267 249.883 88.92C249.883 88.36 250.049 87.8467 250.383 87.38C250.716 86.9133 251.189 86.5467 251.803 86.28C252.416 86 253.116 85.86 253.903 85.86C255.116 85.86 256.096 86.1667 256.843 86.78C257.589 87.3933 257.989 88.2333 258.043 89.3H256.223C256.183 88.7267 255.949 88.2667 255.523 87.92C255.109 87.5733 254.549 87.4 253.843 87.4C253.189 87.4 252.669 87.54 252.283 87.82C251.896 88.1 251.703 88.4667 251.703 88.92C251.703 89.28 251.816 89.58 252.043 89.82C252.283 90.0467 252.576 90.2333 252.923 90.38C253.283 90.5133 253.776 90.6667 254.403 90.84C255.189 91.0533 255.829 91.2667 256.323 91.48C256.816 91.68 257.236 91.9867 257.583 92.4C257.943 92.8133 258.129 93.3533 258.143 94.02C258.143 94.62 257.976 95.16 257.643 95.64C257.309 96.12 256.836 96.5 256.223 96.78C255.623 97.0467 254.929 97.18 254.143 97.18ZM265.492 97.18C264.465 97.18 263.532 96.9467 262.692 96.48C261.865 96.0133 261.212 95.3533 260.732 94.5C260.265 93.6333 260.032 92.6333 260.032 91.5C260.032 90.38 260.272 89.3933 260.752 88.54C261.245 87.6733 261.912 87.0133 262.752 86.56C263.592 86.0933 264.532 85.86 265.572 85.86C266.612 85.86 267.552 86.0933 268.392 86.56C269.232 87.0133 269.892 87.6667 270.372 88.52C270.865 89.3733 271.112 90.3667 271.112 91.5C271.112 92.6333 270.859 93.6333 270.352 94.5C269.859 95.3533 269.185 96.0133 268.332 96.48C267.479 96.9467 266.532 97.18 265.492 97.18ZM265.492 95.58C266.145 95.58 266.759 95.4267 267.332 95.12C267.905 94.8133 268.365 94.3533 268.712 93.74C269.072 93.1267 269.252 92.38 269.252 91.5C269.252 90.62 269.079 89.8733 268.732 89.26C268.385 88.6467 267.932 88.1933 267.372 87.9C266.812 87.5933 266.205 87.44 265.552 87.44C264.885 87.44 264.272 87.5933 263.712 87.9C263.165 88.1933 262.725 88.6467 262.392 89.26C262.059 89.8733 261.892 90.62 261.892 91.5C261.892 92.3933 262.052 93.1467 262.372 93.76C262.705 94.3733 263.145 94.8333 263.692 95.14C264.239 95.4333 264.839 95.58 265.492 95.58ZM283.225 86.04V97H281.405V95.38C281.058 95.94 280.572 96.38 279.945 96.7C279.332 97.0067 278.652 97.16 277.905 97.16C277.052 97.16 276.285 96.9867 275.605 96.64C274.925 96.28 274.385 95.7467 273.985 95.04C273.598 94.3333 273.405 93.4733 273.405 92.46V86.04H275.205V92.22C275.205 93.3 275.478 94.1333 276.025 94.72C276.572 95.2933 277.318 95.58 278.265 95.58C279.238 95.58 280.005 95.28 280.565 94.68C281.125 94.08 281.405 93.2067 281.405 92.06V86.04H283.225ZM288.118 87.82C288.438 87.1933 288.891 86.7067 289.478 86.36C290.078 86.0133 290.804 85.84 291.658 85.84V87.72H291.178C289.138 87.72 288.118 88.8267 288.118 91.04V97H286.298V86.04H288.118V87.82ZM293.079 91.5C293.079 90.3667 293.305 89.38 293.759 88.54C294.212 87.6867 294.839 87.0267 295.639 86.56C296.452 86.0933 297.379 85.86 298.419 85.86C299.765 85.86 300.872 86.1867 301.739 86.84C302.619 87.4933 303.199 88.4 303.479 89.56H301.519C301.332 88.8933 300.965 88.3667 300.419 87.98C299.885 87.5933 299.219 87.4 298.419 87.4C297.379 87.4 296.539 87.76 295.899 88.48C295.259 89.1867 294.939 90.1933 294.939 91.5C294.939 92.82 295.259 93.84 295.899 94.56C296.539 95.28 297.379 95.64 298.419 95.64C299.219 95.64 299.885 95.4533 300.419 95.08C300.952 94.7067 301.319 94.1733 301.519 93.48H303.479C303.185 94.6 302.599 95.5 301.719 96.18C300.839 96.8467 299.739 97.18 298.419 97.18C297.379 97.18 296.452 96.9467 295.639 96.48C294.839 96.0133 294.212 95.3533 293.759 94.5C293.305 93.6467 293.079 92.6467 293.079 91.5ZM315.907 91.1C315.907 91.4467 315.887 91.8133 315.847 92.2H307.087C307.154 93.28 307.521 94.1267 308.187 94.74C308.867 95.34 309.687 95.64 310.647 95.64C311.434 95.64 312.087 95.46 312.607 95.1C313.141 94.7267 313.514 94.2333 313.727 93.62H315.687C315.394 94.6733 314.807 95.5333 313.927 96.2C313.047 96.8533 311.954 97.18 310.647 97.18C309.607 97.18 308.674 96.9467 307.847 96.48C307.034 96.0133 306.394 95.3533 305.927 94.5C305.461 93.6333 305.227 92.6333 305.227 91.5C305.227 90.3667 305.454 89.3733 305.907 88.52C306.361 87.6667 306.994 87.0133 307.807 86.56C308.634 86.0933 309.581 85.86 310.647 85.86C311.687 85.86 312.607 86.0867 313.407 86.54C314.207 86.9933 314.821 87.62 315.247 88.42C315.687 89.2067 315.907 90.1 315.907 91.1ZM314.027 90.72C314.027 90.0267 313.874 89.4333 313.567 88.94C313.261 88.4333 312.841 88.0533 312.307 87.8C311.787 87.5333 311.207 87.4 310.567 87.4C309.647 87.4 308.861 87.6933 308.207 88.28C307.567 88.8667 307.201 89.68 307.107 90.72H314.027ZM318.89 97.12C318.543 97.12 318.25 97 318.01 96.76C317.77 96.52 317.65 96.2267 317.65 95.88C317.65 95.5333 317.77 95.24 318.01 95C318.25 94.76 318.543 94.64 318.89 94.64C319.223 94.64 319.503 94.76 319.73 95C319.97 95.24 320.09 95.5333 320.09 95.88C320.09 96.2267 319.97 96.52 319.73 96.76C319.503 97 319.223 97.12 318.89 97.12ZM318.89 88.56C318.543 88.56 318.25 88.44 318.01 88.2C317.77 87.96 317.65 87.6667 317.65 87.32C317.65 86.9733 317.77 86.68 318.01 86.44C318.25 86.2 318.543 86.08 318.89 86.08C319.223 86.08 319.503 86.2 319.73 86.44C319.97 86.68 320.09 86.9733 320.09 87.32C320.09 87.6667 319.97 87.96 319.73 88.2C319.503 88.44 319.223 88.56 318.89 88.56ZM331.766 82.96C333.246 82.96 334.539 83.2533 335.646 83.84C336.752 84.4267 337.606 85.2533 338.206 86.32C338.819 87.3733 339.126 88.5933 339.126 89.98C339.126 91.3533 338.819 92.5733 338.206 93.64C337.606 94.7067 336.746 95.5333 335.626 96.12C334.519 96.7067 333.232 97 331.766 97H326.506V82.96H331.766ZM331.546 94.04C332.839 94.04 333.846 93.6867 334.566 92.98C335.286 92.2733 335.646 91.2733 335.646 89.98C335.646 88.6867 335.286 87.68 334.566 86.96C333.846 86.24 332.839 85.88 331.546 85.88H329.926V94.04H331.546ZM351.557 91.24C351.557 91.56 351.537 91.8933 351.497 92.24H343.757C343.81 92.9333 344.03 93.4667 344.417 93.84C344.817 94.2 345.304 94.38 345.877 94.38C346.73 94.38 347.324 94.02 347.657 93.3H351.297C351.11 94.0333 350.77 94.6933 350.277 95.28C349.797 95.8667 349.19 96.3267 348.457 96.66C347.724 96.9933 346.904 97.16 345.997 97.16C344.904 97.16 343.93 96.9267 343.077 96.46C342.224 95.9933 341.557 95.3267 341.077 94.46C340.597 93.5933 340.357 92.58 340.357 91.42C340.357 90.26 340.59 89.2467 341.057 88.38C341.537 87.5133 342.204 86.8467 343.057 86.38C343.91 85.9133 344.89 85.68 345.997 85.68C347.077 85.68 348.037 85.9067 348.877 86.36C349.717 86.8133 350.37 87.46 350.837 88.3C351.317 89.14 351.557 90.12 351.557 91.24ZM348.057 90.34C348.057 89.7533 347.857 89.2867 347.457 88.94C347.057 88.5933 346.557 88.42 345.957 88.42C345.384 88.42 344.897 88.5867 344.497 88.92C344.11 89.2533 343.87 89.7267 343.777 90.34H348.057ZM358.381 93.8L360.801 85.84H364.441L360.481 97H356.261L352.301 85.84H355.961L358.381 93.8ZM376.401 91.24C376.401 91.56 376.381 91.8933 376.341 92.24H368.601C368.654 92.9333 368.874 93.4667 369.261 93.84C369.661 94.2 370.147 94.38 370.721 94.38C371.574 94.38 372.167 94.02 372.501 93.3H376.141C375.954 94.0333 375.614 94.6933 375.121 95.28C374.641 95.8667 374.034 96.3267 373.301 96.66C372.567 96.9933 371.747 97.16 370.841 97.16C369.747 97.16 368.774 96.9267 367.921 96.46C367.067 95.9933 366.401 95.3267 365.921 94.46C365.441 93.5933 365.201 92.58 365.201 91.42C365.201 90.26 365.434 89.2467 365.901 88.38C366.381 87.5133 367.047 86.8467 367.901 86.38C368.754 85.9133 369.734 85.68 370.841 85.68C371.921 85.68 372.881 85.9067 373.721 86.36C374.561 86.8133 375.214 87.46 375.681 88.3C376.161 89.14 376.401 90.12 376.401 91.24ZM372.901 90.34C372.901 89.7533 372.701 89.2867 372.301 88.94C371.901 88.5933 371.401 88.42 370.801 88.42C370.227 88.42 369.741 88.5867 369.341 88.92C368.954 89.2533 368.714 89.7267 368.621 90.34H372.901ZM381.625 82.2V97H378.205V82.2H381.625ZM389.183 97.16C388.09 97.16 387.103 96.9267 386.223 96.46C385.357 95.9933 384.67 95.3267 384.163 94.46C383.67 93.5933 383.423 92.58 383.423 91.42C383.423 90.2733 383.677 89.2667 384.183 88.4C384.69 87.52 385.383 86.8467 386.263 86.38C387.143 85.9133 388.13 85.68 389.223 85.68C390.317 85.68 391.303 85.9133 392.183 86.38C393.063 86.8467 393.757 87.52 394.263 88.4C394.77 89.2667 395.023 90.2733 395.023 91.42C395.023 92.5667 394.763 93.58 394.243 94.46C393.737 95.3267 393.037 95.9933 392.143 96.46C391.263 96.9267 390.277 97.16 389.183 97.16ZM389.183 94.2C389.837 94.2 390.39 93.96 390.843 93.48C391.31 93 391.543 92.3133 391.543 91.42C391.543 90.5267 391.317 89.84 390.863 89.36C390.423 88.88 389.877 88.64 389.223 88.64C388.557 88.64 388.003 88.88 387.563 89.36C387.123 89.8267 386.903 90.5133 386.903 91.42C386.903 92.3133 387.117 93 387.543 93.48C387.983 93.96 388.53 94.2 389.183 94.2ZM400.258 87.42C400.591 86.9 401.051 86.48 401.638 86.16C402.224 85.84 402.911 85.68 403.698 85.68C404.618 85.68 405.451 85.9133 406.198 86.38C406.944 86.8467 407.531 87.5133 407.958 88.38C408.398 89.2467 408.618 90.2533 408.618 91.4C408.618 92.5467 408.398 93.56 407.958 94.44C407.531 95.3067 406.944 95.98 406.198 96.46C405.451 96.9267 404.618 97.16 403.698 97.16C402.924 97.16 402.238 97 401.638 96.68C401.051 96.36 400.591 95.9467 400.258 95.44V102.32H396.838V85.84H400.258V87.42ZM405.138 91.4C405.138 90.5467 404.898 89.88 404.418 89.4C403.951 88.9067 403.371 88.66 402.678 88.66C401.998 88.66 401.418 88.9067 400.938 89.4C400.471 89.8933 400.238 90.5667 400.238 91.42C400.238 92.2733 400.471 92.9467 400.938 93.44C401.418 93.9333 401.998 94.18 402.678 94.18C403.358 94.18 403.938 93.9333 404.418 93.44C404.898 92.9333 405.138 92.2533 405.138 91.4ZM420.932 91.24C420.932 91.56 420.912 91.8933 420.872 92.24H413.132C413.185 92.9333 413.405 93.4667 413.792 93.84C414.192 94.2 414.679 94.38 415.252 94.38C416.105 94.38 416.699 94.02 417.032 93.3H420.672C420.485 94.0333 420.145 94.6933 419.652 95.28C419.172 95.8667 418.565 96.3267 417.832 96.66C417.099 96.9933 416.279 97.16 415.372 97.16C414.279 97.16 413.305 96.9267 412.452 96.46C411.599 95.9933 410.932 95.3267 410.452 94.46C409.972 93.5933 409.732 92.58 409.732 91.42C409.732 90.26 409.965 89.2467 410.432 88.38C410.912 87.5133 411.579 86.8467 412.432 86.38C413.285 85.9133 414.265 85.68 415.372 85.68C416.452 85.68 417.412 85.9067 418.252 86.36C419.092 86.8133 419.745 87.46 420.212 88.3C420.692 89.14 420.932 90.12 420.932 91.24ZM417.432 90.34C417.432 89.7533 417.232 89.2867 416.832 88.94C416.432 88.5933 415.932 88.42 415.332 88.42C414.759 88.42 414.272 88.5867 413.872 88.92C413.485 89.2533 413.245 89.7267 413.152 90.34H417.432ZM426.156 87.7C426.556 87.0867 427.056 86.6067 427.656 86.26C428.256 85.9 428.923 85.72 429.656 85.72V89.34H428.716C427.863 89.34 427.223 89.5267 426.796 89.9C426.369 90.26 426.156 90.9 426.156 91.82V97H422.736V85.84H426.156V87.7ZM435.831 97.16C434.857 97.16 433.991 96.9933 433.231 96.66C432.471 96.3267 431.871 95.8733 431.431 95.3C430.991 94.7133 430.744 94.06 430.691 93.34H434.071C434.111 93.7267 434.291 94.04 434.611 94.28C434.931 94.52 435.324 94.64 435.791 94.64C436.217 94.64 436.544 94.56 436.771 94.4C437.011 94.2267 437.131 94.0067 437.131 93.74C437.131 93.42 436.964 93.1867 436.631 93.04C436.297 92.88 435.757 92.7067 435.011 92.52C434.211 92.3333 433.544 92.14 433.011 91.94C432.477 91.7267 432.017 91.4 431.631 90.96C431.244 90.5067 431.051 89.9 431.051 89.14C431.051 88.5 431.224 87.92 431.571 87.4C431.931 86.8667 432.451 86.4467 433.131 86.14C433.824 85.8333 434.644 85.68 435.591 85.68C436.991 85.68 438.091 86.0267 438.891 86.72C439.704 87.4133 440.171 88.3333 440.291 89.48H437.131C437.077 89.0933 436.904 88.7867 436.611 88.56C436.331 88.3333 435.957 88.22 435.491 88.22C435.091 88.22 434.784 88.3 434.571 88.46C434.357 88.6067 434.251 88.8133 434.251 89.08C434.251 89.4 434.417 89.64 434.751 89.8C435.097 89.96 435.631 90.12 436.351 90.28C437.177 90.4933 437.851 90.7067 438.371 90.92C438.891 91.12 439.344 91.4533 439.731 91.92C440.131 92.3733 440.337 92.9867 440.351 93.76C440.351 94.4133 440.164 95 439.791 95.52C439.431 96.0267 438.904 96.4267 438.211 96.72C437.531 97.0133 436.737 97.16 435.831 97.16Z" fill="#C5221F"/>
<rect x="579" y="41" width="284" height="98" stroke="#B78902" stroke-width="2"/>
<path d="M663.68 83.16V97H661.86V86.68L657.26 97H655.98L651.36 86.66V97H649.54V83.16H651.5L656.62 94.6L661.74 83.16H663.68ZM667.707 84.26C667.36 84.26 667.067 84.14 666.827 83.9C666.587 83.66 666.467 83.3667 666.467 83.02C666.467 82.6733 666.587 82.38 666.827 82.14C667.067 81.9 667.36 81.78 667.707 81.78C668.04 81.78 668.32 81.9 668.547 82.14C668.787 82.38 668.907 82.6733 668.907 83.02C668.907 83.3667 668.787 83.66 668.547 83.9C668.32 84.14 668.04 84.26 667.707 84.26ZM668.587 86.04V97H666.767V86.04H668.587ZM675.568 97.18C674.728 97.18 673.975 97.04 673.308 96.76C672.642 96.4667 672.115 96.0667 671.728 95.56C671.342 95.04 671.128 94.4467 671.088 93.78H672.968C673.022 94.3267 673.275 94.7733 673.728 95.12C674.195 95.4667 674.802 95.64 675.548 95.64C676.242 95.64 676.788 95.4867 677.188 95.18C677.588 94.8733 677.788 94.4867 677.788 94.02C677.788 93.54 677.575 93.1867 677.148 92.96C676.722 92.72 676.062 92.4867 675.168 92.26C674.355 92.0467 673.688 91.8333 673.168 91.62C672.662 91.3933 672.222 91.0667 671.848 90.64C671.488 90.2 671.308 89.6267 671.308 88.92C671.308 88.36 671.475 87.8467 671.808 87.38C672.142 86.9133 672.615 86.5467 673.228 86.28C673.842 86 674.542 85.86 675.328 85.86C676.542 85.86 677.522 86.1667 678.268 86.78C679.015 87.3933 679.415 88.2333 679.468 89.3H677.648C677.608 88.7267 677.375 88.2667 676.948 87.92C676.535 87.5733 675.975 87.4 675.268 87.4C674.615 87.4 674.095 87.54 673.708 87.82C673.322 88.1 673.128 88.4667 673.128 88.92C673.128 89.28 673.242 89.58 673.468 89.82C673.708 90.0467 674.002 90.2333 674.348 90.38C674.708 90.5133 675.202 90.6667 675.828 90.84C676.615 91.0533 677.255 91.2667 677.748 91.48C678.242 91.68 678.662 91.9867 679.008 92.4C679.368 92.8133 679.555 93.3533 679.568 94.02C679.568 94.62 679.402 95.16 679.068 95.64C678.735 96.12 678.262 96.5 677.648 96.78C677.048 97.0467 676.355 97.18 675.568 97.18ZM686.018 97.18C685.178 97.18 684.424 97.04 683.758 96.76C683.091 96.4667 682.564 96.0667 682.178 95.56C681.791 95.04 681.578 94.4467 681.538 93.78H683.418C683.471 94.3267 683.724 94.7733 684.178 95.12C684.644 95.4667 685.251 95.64 685.998 95.64C686.691 95.64 687.238 95.4867 687.638 95.18C688.038 94.8733 688.238 94.4867 688.238 94.02C688.238 93.54 688.024 93.1867 687.598 92.96C687.171 92.72 686.511 92.4867 685.618 92.26C684.804 92.0467 684.138 91.8333 683.618 91.62C683.111 91.3933 682.671 91.0667 682.298 90.64C681.938 90.2 681.758 89.6267 681.758 88.92C681.758 88.36 681.924 87.8467 682.258 87.38C682.591 86.9133 683.064 86.5467 683.678 86.28C684.291 86 684.991 85.86 685.778 85.86C686.991 85.86 687.971 86.1667 688.718 86.78C689.464 87.3933 689.864 88.2333 689.918 89.3H688.098C688.058 88.7267 687.824 88.2667 687.398 87.92C686.984 87.5733 686.424 87.4 685.718 87.4C685.064 87.4 684.544 87.54 684.158 87.82C683.771 88.1 683.578 88.4667 683.578 88.92C683.578 89.28 683.691 89.58 683.918 89.82C684.158 90.0467 684.451 90.2333 684.798 90.38C685.158 90.5133 685.651 90.6667 686.278 90.84C687.064 91.0533 687.704 91.2667 688.198 91.48C688.691 91.68 689.111 91.9867 689.458 92.4C689.818 92.8133 690.004 93.3533 690.018 94.02C690.018 94.62 689.851 95.16 689.518 95.64C689.184 96.12 688.711 96.5 688.098 96.78C687.498 97.0467 686.804 97.18 686.018 97.18ZM702.587 91.1C702.587 91.4467 702.567 91.8133 702.527 92.2H693.767C693.834 93.28 694.2 94.1267 694.867 94.74C695.547 95.34 696.367 95.64 697.327 95.64C698.114 95.64 698.767 95.46 699.287 95.1C699.82 94.7267 700.194 94.2333 700.407 93.62H702.367C702.074 94.6733 701.487 95.5333 700.607 96.2C699.727 96.8533 698.634 97.18 697.327 97.18C696.287 97.18 695.354 96.9467 694.527 96.48C693.714 96.0133 693.074 95.3533 692.607 94.5C692.14 93.6333 691.907 92.6333 691.907 91.5C691.907 90.3667 692.134 89.3733 692.587 88.52C693.04 87.6667 693.674 87.0133 694.487 86.56C695.314 86.0933 696.26 85.86 697.327 85.86C698.367 85.86 699.287 86.0867 700.087 86.54C700.887 86.9933 701.5 87.62 701.927 88.42C702.367 89.2067 702.587 90.1 702.587 91.1ZM700.707 90.72C700.707 90.0267 700.554 89.4333 700.247 88.94C699.94 88.4333 699.52 88.0533 698.987 87.8C698.467 87.5333 697.887 87.4 697.247 87.4C696.327 87.4 695.54 87.6933 694.887 88.28C694.247 88.8667 693.88 89.68 693.787 90.72H700.707ZM704.309 91.48C704.309 90.36 704.536 89.38 704.989 88.54C705.443 87.6867 706.063 87.0267 706.849 86.56C707.649 86.0933 708.543 85.86 709.529 85.86C710.383 85.86 711.176 86.06 711.909 86.46C712.643 86.8467 713.203 87.36 713.589 88V82.2H715.429V97H713.589V94.94C713.229 95.5933 712.696 96.1333 711.989 96.56C711.283 96.9733 710.456 97.18 709.509 97.18C708.536 97.18 707.649 96.94 706.849 96.46C706.063 95.98 705.443 95.3067 704.989 94.44C704.536 93.5733 704.309 92.5867 704.309 91.48ZM713.589 91.5C713.589 90.6733 713.423 89.9533 713.089 89.34C712.756 88.7267 712.303 88.26 711.729 87.94C711.169 87.6067 710.549 87.44 709.869 87.44C709.189 87.44 708.569 87.6 708.009 87.92C707.449 88.24 707.003 88.7067 706.669 89.32C706.336 89.9333 706.169 90.6533 706.169 91.48C706.169 92.32 706.336 93.0533 706.669 93.68C707.003 94.2933 707.449 94.7667 708.009 95.1C708.569 95.42 709.189 95.58 709.869 95.58C710.549 95.58 711.169 95.42 711.729 95.1C712.303 94.7667 712.756 94.2933 713.089 93.68C713.423 93.0533 713.589 92.3267 713.589 91.5ZM732.417 83.06V84.54H728.617V97H726.797V84.54H722.977V83.06H732.417ZM733.977 91.48C733.977 90.36 734.204 89.38 734.657 88.54C735.111 87.6867 735.731 87.0267 736.517 86.56C737.317 86.0933 738.204 85.86 739.177 85.86C740.137 85.86 740.971 86.0667 741.677 86.48C742.384 86.8933 742.911 87.4133 743.257 88.04V86.04H745.097V97H743.257V94.96C742.897 95.6 742.357 96.1333 741.637 96.56C740.931 96.9733 740.104 97.18 739.157 97.18C738.184 97.18 737.304 96.94 736.517 96.46C735.731 95.98 735.111 95.3067 734.657 94.44C734.204 93.5733 733.977 92.5867 733.977 91.48ZM743.257 91.5C743.257 90.6733 743.091 89.9533 742.757 89.34C742.424 88.7267 741.971 88.26 741.397 87.94C740.837 87.6067 740.217 87.44 739.537 87.44C738.857 87.44 738.237 87.6 737.677 87.92C737.117 88.24 736.671 88.7067 736.337 89.32C736.004 89.9333 735.837 90.6533 735.837 91.48C735.837 92.32 736.004 93.0533 736.337 93.68C736.671 94.2933 737.117 94.7667 737.677 95.1C738.237 95.42 738.857 95.58 739.537 95.58C740.217 95.58 740.837 95.42 741.397 95.1C741.971 94.7667 742.424 94.2933 742.757 93.68C743.091 93.0533 743.257 92.3267 743.257 91.5ZM752.053 97.18C751.213 97.18 750.459 97.04 749.793 96.76C749.126 96.4667 748.599 96.0667 748.213 95.56C747.826 95.04 747.613 94.4467 747.573 93.78H749.453C749.506 94.3267 749.759 94.7733 750.213 95.12C750.679 95.4667 751.286 95.64 752.033 95.64C752.726 95.64 753.273 95.4867 753.673 95.18C754.073 94.8733 754.273 94.4867 754.273 94.02C754.273 93.54 754.059 93.1867 753.633 92.96C753.206 92.72 752.546 92.4867 751.653 92.26C750.839 92.0467 750.173 91.8333 749.653 91.62C749.146 91.3933 748.706 91.0667 748.333 90.64C747.973 90.2 747.793 89.6267 747.793 88.92C747.793 88.36 747.959 87.8467 748.293 87.38C748.626 86.9133 749.099 86.5467 749.713 86.28C750.326 86 751.026 85.86 751.813 85.86C753.026 85.86 754.006 86.1667 754.753 86.78C755.499 87.3933 755.899 88.2333 755.953 89.3H754.133C754.093 88.7267 753.859 88.2667 753.433 87.92C753.019 87.5733 752.459 87.4 751.753 87.4C751.099 87.4 750.579 87.54 750.193 87.82C749.806 88.1 749.613 88.4667 749.613 88.92C749.613 89.28 749.726 89.58 749.953 89.82C750.193 90.0467 750.486 90.2333 750.833 90.38C751.193 90.5133 751.686 90.6667 752.313 90.84C753.099 91.0533 753.739 91.2667 754.233 91.48C754.726 91.68 755.146 91.9867 755.493 92.4C755.853 92.8133 756.039 93.3533 756.053 94.02C756.053 94.62 755.886 95.16 755.553 95.64C755.219 96.12 754.746 96.5 754.133 96.78C753.533 97.0467 752.839 97.18 752.053 97.18ZM764.742 97L760.442 92.16V97H758.622V82.2H760.442V90.9L764.662 86.04H767.202L762.042 91.5L767.222 97H764.742ZM772.795 97.18C771.955 97.18 771.202 97.04 770.535 96.76C769.868 96.4667 769.342 96.0667 768.955 95.56C768.568 95.04 768.355 94.4467 768.315 93.78H770.195C770.248 94.3267 770.502 94.7733 770.955 95.12C771.422 95.4667 772.028 95.64 772.775 95.64C773.468 95.64 774.015 95.4867 774.415 95.18C774.815 94.8733 775.015 94.4867 775.015 94.02C775.015 93.54 774.802 93.1867 774.375 92.96C773.948 92.72 773.288 92.4867 772.395 92.26C771.582 92.0467 770.915 91.8333 770.395 91.62C769.888 91.3933 769.448 91.0667 769.075 90.64C768.715 90.2 768.535 89.6267 768.535 88.92C768.535 88.36 768.702 87.8467 769.035 87.38C769.368 86.9133 769.842 86.5467 770.455 86.28C771.068 86 771.768 85.86 772.555 85.86C773.768 85.86 774.748 86.1667 775.495 86.78C776.242 87.3933 776.642 88.2333 776.695 89.3H774.875C774.835 88.7267 774.602 88.2667 774.175 87.92C773.762 87.5733 773.202 87.4 772.495 87.4C771.842 87.4 771.322 87.54 770.935 87.82C770.548 88.1 770.355 88.4667 770.355 88.92C770.355 89.28 770.468 89.58 770.695 89.82C770.935 90.0467 771.228 90.2333 771.575 90.38C771.935 90.5133 772.428 90.6667 773.055 90.84C773.842 91.0533 774.482 91.2667 774.975 91.48C775.468 91.68 775.888 91.9867 776.235 92.4C776.595 92.8133 776.782 93.3533 776.795 94.02C776.795 94.62 776.628 95.16 776.295 95.64C775.962 96.12 775.488 96.5 774.875 96.78C774.275 97.0467 773.582 97.18 772.795 97.18ZM779.944 97.12C779.598 97.12 779.304 97 779.064 96.76C778.824 96.52 778.704 96.2267 778.704 95.88C778.704 95.5333 778.824 95.24 779.064 95C779.304 94.76 779.598 94.64 779.944 94.64C780.278 94.64 780.558 94.76 780.784 95C781.024 95.24 781.144 95.5333 781.144 95.88C781.144 96.2267 781.024 96.52 780.784 96.76C780.558 97 780.278 97.12 779.944 97.12ZM779.944 88.56C779.598 88.56 779.304 88.44 779.064 88.2C778.824 87.96 778.704 87.6667 778.704 87.32C778.704 86.9733 778.824 86.68 779.064 86.44C779.304 86.2 779.598 86.08 779.944 86.08C780.278 86.08 780.558 86.2 780.784 86.44C781.024 86.68 781.144 86.9733 781.144 87.32C781.144 87.6667 781.024 87.96 780.784 88.2C780.558 88.44 780.278 88.56 779.944 88.56ZM787.954 85.58V82.4H793.494V97H789.934V85.58H787.954Z" fill="#B78902"/>
</svg>
