<svg width="310" height="181" viewBox="0 0 310 181" fill="none" xmlns="http://www.w3.org/2000/svg">
<rect x="0.483871" y="0.483871" width="309.032" height="180.032" fill="white" stroke="#26344F" stroke-width="0.967742"/>
<path d="M47.956 63.696V61.024H56.228V63.696H47.956ZM54.34 54L59.796 66H56.26L51.684 55.408H52.644L48.052 66H44.516L49.972 54H54.34ZM60.7085 53.68H63.9885V66H60.7085V53.68ZM65.7866 53.68H69.0666V66H65.7866V53.68ZM76.3048 66.256C75.1314 66.256 74.1074 66.0587 73.2328 65.664C72.3581 65.2587 71.6754 64.6933 71.1848 63.968C70.6941 63.232 70.4488 62.3893 70.4488 61.44C70.4488 60.4693 70.6941 59.6213 71.1848 58.896C71.6754 58.1707 72.3581 57.6053 73.2328 57.2C74.1074 56.7947 75.1314 56.592 76.3048 56.592C77.4674 56.592 78.4861 56.7947 79.3608 57.2C80.2461 57.6053 80.9341 58.1707 81.4248 58.896C81.9154 59.6213 82.1608 60.4693 82.1608 61.44C82.1608 62.3893 81.9154 63.232 81.4248 63.968C80.9341 64.6933 80.2461 65.2587 79.3608 65.664C78.4861 66.0587 77.4674 66.256 76.3048 66.256ZM76.3048 63.84C76.8381 63.84 77.2914 63.744 77.6648 63.552C78.0488 63.36 78.3421 63.0827 78.5448 62.72C78.7474 62.3573 78.8488 61.9307 78.8488 61.44C78.8488 60.928 78.7474 60.496 78.5448 60.144C78.3421 59.7813 78.0488 59.504 77.6648 59.312C77.2914 59.12 76.8381 59.024 76.3048 59.024C75.7714 59.024 75.3128 59.12 74.9288 59.312C74.5448 59.504 74.2514 59.7813 74.0488 60.144C73.8461 60.496 73.7448 60.9227 73.7448 61.424C73.7448 61.9253 73.8461 62.3573 74.0488 62.72C74.2514 63.0827 74.5448 63.36 74.9288 63.552C75.3128 63.744 75.7714 63.84 76.3048 63.84ZM94.4326 62.144C94.3473 62.9653 94.0486 63.6853 93.5366 64.304C93.0246 64.9227 92.358 65.4027 91.5366 65.744C90.726 66.0853 89.814 66.256 88.8006 66.256C87.6806 66.256 86.694 66.0533 85.8406 65.648C84.9873 65.2427 84.3206 64.6773 83.8406 63.952C83.3606 63.2267 83.1206 62.3893 83.1206 61.44C83.1206 60.48 83.3606 59.6373 83.8406 58.912C84.3206 58.1867 84.9873 57.6213 85.8406 57.216C86.694 56.8 87.6806 56.592 88.8006 56.592C89.814 56.592 90.726 56.768 91.5366 57.12C92.358 57.4613 93.0246 57.9413 93.5366 58.56C94.0486 59.168 94.3473 59.888 94.4326 60.72H91.1846C91.0673 60.176 90.7953 59.76 90.3686 59.472C89.942 59.1733 89.4193 59.024 88.8006 59.024C88.3206 59.024 87.8993 59.12 87.5366 59.312C87.1846 59.4933 86.9073 59.7653 86.7046 60.128C86.5126 60.48 86.4166 60.9173 86.4166 61.44C86.4166 61.952 86.5126 62.3893 86.7046 62.752C86.9073 63.104 87.1846 63.376 87.5366 63.568C87.8993 63.7493 88.3206 63.84 88.8006 63.84C89.4193 63.84 89.942 63.6853 90.3686 63.376C90.806 63.0667 91.078 62.656 91.1846 62.144H94.4326ZM103.98 66L103.564 62.704L103.996 61.44L103.564 60.176L103.98 56.864H107.372L106.796 61.424L107.372 66H103.98ZM104.748 61.44C104.599 62.4 104.3 63.2427 103.852 63.968C103.415 64.6933 102.855 65.2587 102.172 65.664C101.5 66.0587 100.732 66.256 99.8681 66.256C98.9721 66.256 98.1828 66.0587 97.5001 65.664C96.8281 65.2587 96.3001 64.6933 95.9161 63.968C95.5321 63.232 95.3401 62.3893 95.3401 61.44C95.3401 60.4693 95.5321 59.6213 95.9161 58.896C96.3001 58.1707 96.8281 57.6053 97.5001 57.2C98.1828 56.7947 98.9721 56.592 99.8681 56.592C100.732 56.592 101.5 56.7947 102.172 57.2C102.855 57.5947 103.42 58.1547 103.868 58.88C104.316 59.5947 104.609 60.448 104.748 61.44ZM98.6521 61.44C98.6521 61.888 98.7428 62.288 98.9241 62.64C99.1161 62.992 99.3775 63.2693 99.7081 63.472C100.039 63.664 100.417 63.76 100.844 63.76C101.292 63.76 101.713 63.664 102.108 63.472C102.503 63.2693 102.849 62.992 103.148 62.64C103.447 62.288 103.671 61.888 103.82 61.44C103.671 60.9813 103.447 60.576 103.148 60.224C102.849 59.872 102.503 59.5947 102.108 59.392C101.713 59.1893 101.292 59.088 100.844 59.088C100.417 59.088 100.039 59.1893 99.7081 59.392C99.3775 59.5947 99.1161 59.872 98.9241 60.224C98.7428 60.576 98.6521 60.9813 98.6521 61.44ZM108.143 59.28V57.856L109.999 57.104L111.407 54.4H113.263V56.864H117.103V59.28H113.263V61.968C113.263 62.6293 113.396 63.0933 113.663 63.36C113.93 63.6267 114.415 63.76 115.119 63.76C115.567 63.76 115.962 63.7227 116.303 63.648C116.655 63.5627 116.975 63.456 117.263 63.328V65.792C116.943 65.9093 116.522 66.016 115.999 66.112C115.476 66.208 114.938 66.256 114.383 66.256C113.37 66.256 112.538 66.1013 111.887 65.792C111.247 65.4827 110.772 65.04 110.463 64.464C110.154 63.8773 109.999 63.1947 109.999 62.416V59.28H108.143ZM123.662 66.256C122.553 66.256 121.561 66.0533 120.686 65.648C119.822 65.2427 119.14 64.6773 118.638 63.952C118.137 63.216 117.886 62.3627 117.886 61.392C117.886 60.4427 118.126 59.6107 118.606 58.896C119.086 58.1707 119.742 57.6053 120.574 57.2C121.417 56.7947 122.366 56.592 123.422 56.592C124.521 56.592 125.454 56.832 126.222 57.312C127.001 57.7813 127.598 58.448 128.014 59.312C128.441 60.176 128.654 61.1947 128.654 62.368H120.526V60.4H126.814L125.742 61.088C125.7 60.6187 125.582 60.224 125.39 59.904C125.198 59.5733 124.942 59.3227 124.622 59.152C124.313 58.9813 123.94 58.896 123.502 58.896C123.022 58.896 122.612 58.992 122.27 59.184C121.929 59.376 121.662 59.6427 121.47 59.984C121.278 60.3147 121.182 60.704 121.182 61.152C121.182 61.728 121.31 62.2187 121.566 62.624C121.833 63.0187 122.217 63.3227 122.718 63.536C123.23 63.7493 123.854 63.856 124.59 63.856C125.262 63.856 125.929 63.7707 126.59 63.6C127.262 63.4187 127.87 63.168 128.414 62.848V64.928C127.785 65.3547 127.065 65.6853 126.254 65.92C125.454 66.144 124.59 66.256 123.662 66.256ZM138.372 66L137.94 62.576L138.5 61.456L137.956 60.048L138.724 53.68H142.116L141.172 61.184L141.748 66H138.372ZM139.076 61.44C138.927 62.4 138.628 63.2427 138.18 63.968C137.743 64.6933 137.183 65.2587 136.5 65.664C135.828 66.0587 135.06 66.256 134.196 66.256C133.3 66.256 132.511 66.0587 131.828 65.664C131.156 65.2587 130.628 64.6933 130.244 63.968C129.86 63.232 129.668 62.3893 129.668 61.44C129.668 60.4693 129.86 59.6213 130.244 58.896C130.628 58.1707 131.156 57.6053 131.828 57.2C132.511 56.7947 133.3 56.592 134.196 56.592C135.06 56.592 135.828 56.7947 136.5 57.2C137.183 57.5947 137.748 58.1547 138.196 58.88C138.644 59.5947 138.938 60.448 139.076 61.44ZM132.98 61.44C132.98 61.888 133.071 62.288 133.252 62.64C133.444 62.992 133.706 63.2693 134.036 63.472C134.367 63.664 134.746 63.76 135.172 63.76C135.62 63.76 136.042 63.664 136.436 63.472C136.831 63.2693 137.178 62.992 137.476 62.64C137.775 62.288 137.999 61.888 138.148 61.44C137.999 60.9813 137.775 60.576 137.476 60.224C137.178 59.872 136.831 59.5947 136.436 59.392C136.042 59.1893 135.62 59.088 135.172 59.088C134.746 59.088 134.367 59.1893 134.036 59.392C133.706 59.5947 133.444 59.872 133.252 60.224C133.071 60.576 132.98 60.9813 132.98 61.44ZM149.783 59.248H154.151C154.684 59.248 155.1 59.1253 155.399 58.88C155.698 58.6347 155.847 58.2933 155.847 57.856C155.847 57.408 155.698 57.0667 155.399 56.832C155.1 56.5867 154.684 56.464 154.151 56.464H149.319L150.807 54.88V66H147.495V54H154.615C155.532 54 156.332 54.1653 157.015 54.496C157.698 54.816 158.231 55.264 158.615 55.84C158.999 56.4053 159.191 57.0773 159.191 57.856C159.191 58.6133 158.999 59.28 158.615 59.856C158.231 60.432 157.698 60.88 157.015 61.2C156.332 61.52 155.532 61.68 154.615 61.68H149.783V59.248ZM151.575 60.384H155.303L159.607 66H155.767L151.575 60.384ZM165.787 66.256C164.678 66.256 163.686 66.0533 162.811 65.648C161.947 65.2427 161.265 64.6773 160.763 63.952C160.262 63.216 160.011 62.3627 160.011 61.392C160.011 60.4427 160.251 59.6107 160.731 58.896C161.211 58.1707 161.867 57.6053 162.699 57.2C163.542 56.7947 164.491 56.592 165.547 56.592C166.646 56.592 167.579 56.832 168.347 57.312C169.126 57.7813 169.723 58.448 170.139 59.312C170.566 60.176 170.779 61.1947 170.779 62.368H162.651V60.4H168.939L167.867 61.088C167.825 60.6187 167.707 60.224 167.515 59.904C167.323 59.5733 167.067 59.3227 166.747 59.152C166.438 58.9813 166.065 58.896 165.627 58.896C165.147 58.896 164.737 58.992 164.395 59.184C164.054 59.376 163.787 59.6427 163.595 59.984C163.403 60.3147 163.307 60.704 163.307 61.152C163.307 61.728 163.435 62.2187 163.691 62.624C163.958 63.0187 164.342 63.3227 164.843 63.536C165.355 63.7493 165.979 63.856 166.715 63.856C167.387 63.856 168.054 63.7707 168.715 63.6C169.387 63.4187 169.995 63.168 170.539 62.848V64.928C169.91 65.3547 169.19 65.6853 168.379 65.92C167.579 66.144 166.715 66.256 165.787 66.256ZM182.769 63.024C182.769 63.728 182.556 64.32 182.129 64.8C181.703 65.28 181.095 65.6427 180.305 65.888C179.516 66.1333 178.567 66.256 177.457 66.256C176.316 66.256 175.313 66.1173 174.449 65.84C173.596 65.5627 172.929 65.1733 172.449 64.672C171.969 64.1707 171.713 63.5893 171.681 62.928H174.993C175.068 63.1733 175.212 63.3867 175.425 63.568C175.649 63.7387 175.943 63.872 176.305 63.968C176.668 64.0533 177.1 64.096 177.601 64.096C178.252 64.096 178.743 64.032 179.073 63.904C179.415 63.776 179.585 63.584 179.585 63.328C179.585 63.1253 179.457 62.976 179.201 62.88C178.945 62.7733 178.508 62.6933 177.889 62.64L176.273 62.512C175.196 62.4373 174.337 62.2773 173.697 62.032C173.068 61.776 172.615 61.4507 172.337 61.056C172.06 60.6507 171.921 60.192 171.921 59.68C171.921 58.9867 172.135 58.416 172.561 57.968C172.999 57.5093 173.601 57.168 174.369 56.944C175.148 56.7093 176.055 56.592 177.089 56.592C178.113 56.592 179.025 56.7253 179.825 56.992C180.625 57.2587 181.265 57.632 181.745 58.112C182.225 58.5813 182.503 59.136 182.577 59.776H179.265C179.212 59.5733 179.095 59.392 178.913 59.232C178.732 59.0613 178.481 58.9227 178.161 58.816C177.841 58.7093 177.431 58.656 176.929 58.656C176.343 58.656 175.895 58.72 175.585 58.848C175.287 58.976 175.137 59.1573 175.137 59.392C175.137 59.5733 175.228 59.7173 175.409 59.824C175.601 59.9307 175.953 60.0053 176.465 60.048L178.593 60.208C179.649 60.272 180.481 60.4267 181.089 60.672C181.697 60.9067 182.129 61.2213 182.385 61.616C182.641 62.0107 182.769 62.48 182.769 63.024ZM194.738 63.024C194.738 63.728 194.525 64.32 194.098 64.8C193.671 65.28 193.063 65.6427 192.274 65.888C191.485 66.1333 190.535 66.256 189.426 66.256C188.285 66.256 187.282 66.1173 186.418 65.84C185.565 65.5627 184.898 65.1733 184.418 64.672C183.938 64.1707 183.682 63.5893 183.65 62.928H186.962C187.037 63.1733 187.181 63.3867 187.394 63.568C187.618 63.7387 187.911 63.872 188.274 63.968C188.637 64.0533 189.069 64.096 189.57 64.096C190.221 64.096 190.711 64.032 191.042 63.904C191.383 63.776 191.554 63.584 191.554 63.328C191.554 63.1253 191.426 62.976 191.17 62.88C190.914 62.7733 190.477 62.6933 189.858 62.64L188.242 62.512C187.165 62.4373 186.306 62.2773 185.666 62.032C185.037 61.776 184.583 61.4507 184.306 61.056C184.029 60.6507 183.89 60.192 183.89 59.68C183.89 58.9867 184.103 58.416 184.53 57.968C184.967 57.5093 185.57 57.168 186.338 56.944C187.117 56.7093 188.023 56.592 189.058 56.592C190.082 56.592 190.994 56.7253 191.794 56.992C192.594 57.2587 193.234 57.632 193.714 58.112C194.194 58.5813 194.471 59.136 194.546 59.776H191.234C191.181 59.5733 191.063 59.392 190.882 59.232C190.701 59.0613 190.45 58.9227 190.13 58.816C189.81 58.7093 189.399 58.656 188.898 58.656C188.311 58.656 187.863 58.72 187.554 58.848C187.255 58.976 187.106 59.1573 187.106 59.392C187.106 59.5733 187.197 59.7173 187.378 59.824C187.57 59.9307 187.922 60.0053 188.434 60.048L190.562 60.208C191.618 60.272 192.45 60.4267 193.058 60.672C193.666 60.9067 194.098 61.2213 194.354 61.616C194.61 62.0107 194.738 62.48 194.738 63.024ZM201.555 66.256C200.381 66.256 199.357 66.0587 198.483 65.664C197.608 65.2587 196.925 64.6933 196.435 63.968C195.944 63.232 195.699 62.3893 195.699 61.44C195.699 60.4693 195.944 59.6213 196.435 58.896C196.925 58.1707 197.608 57.6053 198.483 57.2C199.357 56.7947 200.381 56.592 201.555 56.592C202.717 56.592 203.736 56.7947 204.611 57.2C205.496 57.6053 206.184 58.1707 206.675 58.896C207.165 59.6213 207.411 60.4693 207.411 61.44C207.411 62.3893 207.165 63.232 206.675 63.968C206.184 64.6933 205.496 65.2587 204.611 65.664C203.736 66.0587 202.717 66.256 201.555 66.256ZM201.555 63.84C202.088 63.84 202.541 63.744 202.915 63.552C203.299 63.36 203.592 63.0827 203.795 62.72C203.997 62.3573 204.099 61.9307 204.099 61.44C204.099 60.928 203.997 60.496 203.795 60.144C203.592 59.7813 203.299 59.504 202.915 59.312C202.541 59.12 202.088 59.024 201.555 59.024C201.021 59.024 200.563 59.12 200.179 59.312C199.795 59.504 199.501 59.7813 199.299 60.144C199.096 60.496 198.995 60.9227 198.995 61.424C198.995 61.9253 199.096 62.3573 199.299 62.72C199.501 63.0827 199.795 63.36 200.179 63.552C200.563 63.744 201.021 63.84 201.555 63.84ZM212.723 66.256C211.869 66.256 211.139 66.08 210.531 65.728C209.933 65.376 209.475 64.88 209.155 64.24C208.835 63.5893 208.675 62.832 208.675 61.968V56.864H211.939V61.504C211.939 62.176 212.104 62.6933 212.435 63.056C212.765 63.4187 213.24 63.6 213.859 63.6C214.317 63.6 214.701 63.5093 215.011 63.328C215.32 63.136 215.56 62.864 215.731 62.512C215.901 62.16 215.987 61.7387 215.987 61.248L216.995 61.776C216.877 62.7467 216.611 63.568 216.195 64.24C215.789 64.9013 215.288 65.4027 214.691 65.744C214.093 66.0853 213.437 66.256 212.723 66.256ZM216.579 66L215.987 62.336V56.864H219.251V62.848L219.843 66H216.579ZM220.792 56.864H224.12L224.664 60.128V66H221.4V59.936L220.792 56.864ZM228.952 56.72V59.504C228.632 59.44 228.328 59.3973 228.04 59.376C227.763 59.344 227.507 59.328 227.272 59.328C226.803 59.328 226.371 59.424 225.976 59.616C225.581 59.7973 225.261 60.1013 225.016 60.528C224.781 60.9547 224.664 61.5253 224.664 62.24L224.04 61.472C224.125 60.8107 224.253 60.192 224.424 59.616C224.595 59.0293 224.824 58.512 225.112 58.064C225.411 57.6053 225.779 57.248 226.216 56.992C226.653 56.7253 227.187 56.592 227.816 56.592C227.997 56.592 228.184 56.6027 228.376 56.624C228.568 56.6453 228.76 56.6773 228.952 56.72ZM240.73 62.144C240.644 62.9653 240.346 63.6853 239.834 64.304C239.322 64.9227 238.655 65.4027 237.834 65.744C237.023 66.0853 236.111 66.256 235.098 66.256C233.978 66.256 232.991 66.0533 232.138 65.648C231.284 65.2427 230.618 64.6773 230.138 63.952C229.658 63.2267 229.418 62.3893 229.418 61.44C229.418 60.48 229.658 59.6373 230.138 58.912C230.618 58.1867 231.284 57.6213 232.138 57.216C232.991 56.8 233.978 56.592 235.098 56.592C236.111 56.592 237.023 56.768 237.834 57.12C238.655 57.4613 239.322 57.9413 239.834 58.56C240.346 59.168 240.644 59.888 240.73 60.72H237.482C237.364 60.176 237.092 59.76 236.666 59.472C236.239 59.1733 235.716 59.024 235.098 59.024C234.618 59.024 234.196 59.12 233.834 59.312C233.482 59.4933 233.204 59.7653 233.002 60.128C232.81 60.48 232.714 60.9173 232.714 61.44C232.714 61.952 232.81 62.3893 233.002 62.752C233.204 63.104 233.482 63.376 233.834 63.568C234.196 63.7493 234.618 63.84 235.098 63.84C235.716 63.84 236.239 63.6853 236.666 63.376C237.103 63.0667 237.375 62.656 237.482 62.144H240.73ZM247.381 66.256C246.272 66.256 245.28 66.0533 244.405 65.648C243.541 65.2427 242.858 64.6773 242.357 63.952C241.856 63.216 241.605 62.3627 241.605 61.392C241.605 60.4427 241.845 59.6107 242.325 58.896C242.805 58.1707 243.461 57.6053 244.293 57.2C245.136 56.7947 246.085 56.592 247.141 56.592C248.24 56.592 249.173 56.832 249.941 57.312C250.72 57.7813 251.317 58.448 251.733 59.312C252.16 60.176 252.373 61.1947 252.373 62.368H244.245V60.4H250.533L249.461 61.088C249.418 60.6187 249.301 60.224 249.109 59.904C248.917 59.5733 248.661 59.3227 248.341 59.152C248.032 58.9813 247.658 58.896 247.221 58.896C246.741 58.896 246.33 58.992 245.989 59.184C245.648 59.376 245.381 59.6427 245.189 59.984C244.997 60.3147 244.901 60.704 244.901 61.152C244.901 61.728 245.029 62.2187 245.285 62.624C245.552 63.0187 245.936 63.3227 246.437 63.536C246.949 63.7493 247.573 63.856 248.309 63.856C248.981 63.856 249.648 63.7707 250.309 63.6C250.981 63.4187 251.589 63.168 252.133 62.848V64.928C251.504 65.3547 250.784 65.6853 249.973 65.92C249.173 66.144 248.309 66.256 247.381 66.256ZM264.363 63.024C264.363 63.728 264.15 64.32 263.723 64.8C263.296 65.28 262.688 65.6427 261.899 65.888C261.11 66.1333 260.16 66.256 259.051 66.256C257.91 66.256 256.907 66.1173 256.043 65.84C255.19 65.5627 254.523 65.1733 254.043 64.672C253.563 64.1707 253.307 63.5893 253.275 62.928H256.587C256.662 63.1733 256.806 63.3867 257.019 63.568C257.243 63.7387 257.536 63.872 257.899 63.968C258.262 64.0533 258.694 64.096 259.195 64.096C259.846 64.096 260.336 64.032 260.667 63.904C261.008 63.776 261.179 63.584 261.179 63.328C261.179 63.1253 261.051 62.976 260.795 62.88C260.539 62.7733 260.102 62.6933 259.483 62.64L257.867 62.512C256.79 62.4373 255.931 62.2773 255.291 62.032C254.662 61.776 254.208 61.4507 253.931 61.056C253.654 60.6507 253.515 60.192 253.515 59.68C253.515 58.9867 253.728 58.416 254.155 57.968C254.592 57.5093 255.195 57.168 255.963 56.944C256.742 56.7093 257.648 56.592 258.683 56.592C259.707 56.592 260.619 56.7253 261.419 56.992C262.219 57.2587 262.859 57.632 263.339 58.112C263.819 58.5813 264.096 59.136 264.171 59.776H260.859C260.806 59.5733 260.688 59.392 260.507 59.232C260.326 59.0613 260.075 58.9227 259.755 58.816C259.435 58.7093 259.024 58.656 258.523 58.656C257.936 58.656 257.488 58.72 257.179 58.848C256.88 58.976 256.731 59.1573 256.731 59.392C256.731 59.5733 256.822 59.7173 257.003 59.824C257.195 59.9307 257.547 60.0053 258.059 60.048L260.187 60.208C261.243 60.272 262.075 60.4267 262.683 60.672C263.291 60.9067 263.723 61.2213 263.979 61.616C264.235 62.0107 264.363 62.48 264.363 63.024Z" fill="#26344F"/>
<path d="M134.222 118.792C134.326 117.561 134.768 116.443 135.548 115.438C136.328 114.415 137.455 113.601 138.928 112.994C140.401 112.387 142.195 112.084 144.31 112.084C146.113 112.084 147.681 112.309 149.016 112.76C150.368 113.211 151.408 113.843 152.136 114.658C152.881 115.473 153.254 116.435 153.254 117.544C153.254 118.411 152.985 119.208 152.448 119.936C151.928 120.664 151.096 121.245 149.952 121.678C148.825 122.094 147.352 122.293 145.532 122.276V121.73C147.231 121.661 148.687 121.782 149.9 122.094C151.113 122.406 152.041 122.917 152.682 123.628C153.341 124.339 153.67 125.24 153.67 126.332C153.67 127.511 153.289 128.559 152.526 129.478C151.763 130.397 150.654 131.116 149.198 131.636C147.759 132.156 145.991 132.416 143.894 132.416C141.866 132.416 140.098 132.139 138.59 131.584C137.082 131.029 135.903 130.241 135.054 129.218C134.222 128.178 133.78 126.965 133.728 125.578H139.084C139.223 126.445 139.673 127.112 140.436 127.58C141.216 128.048 142.369 128.282 143.894 128.282C145.281 128.282 146.338 128.074 147.066 127.658C147.811 127.242 148.184 126.661 148.184 125.916C148.184 125.483 148.063 125.119 147.82 124.824C147.595 124.529 147.187 124.313 146.598 124.174C146.009 124.018 145.185 123.94 144.128 123.94H140.774V120.3H144.128C145.497 120.3 146.451 120.118 146.988 119.754C147.543 119.39 147.82 118.905 147.82 118.298C147.82 117.639 147.499 117.128 146.858 116.764C146.234 116.4 145.289 116.218 144.024 116.218C142.672 116.218 141.632 116.443 140.904 116.894C140.176 117.345 139.743 117.977 139.604 118.792H134.222ZM155.695 119.52C155.799 117.995 156.301 116.677 157.203 115.568C158.104 114.441 159.3 113.583 160.791 112.994C162.299 112.387 163.997 112.084 165.887 112.084C167.689 112.084 169.258 112.361 170.593 112.916C171.945 113.453 172.993 114.207 173.739 115.178C174.484 116.149 174.857 117.275 174.857 118.558C174.857 119.546 174.588 120.473 174.051 121.34C173.513 122.189 172.673 123.03 171.529 123.862C170.385 124.677 168.885 125.535 167.031 126.436L161.675 129.114L161.467 127.736H175.403V132H156.111V128.256L164.483 123.55C165.783 122.805 166.788 122.181 167.499 121.678C168.227 121.158 168.738 120.681 169.033 120.248C169.345 119.815 169.501 119.355 169.501 118.87C169.501 118.333 169.353 117.873 169.059 117.492C168.781 117.093 168.357 116.781 167.785 116.556C167.213 116.331 166.511 116.218 165.679 116.218C164.639 116.218 163.789 116.374 163.131 116.686C162.472 116.981 161.978 117.379 161.649 117.882C161.319 118.367 161.12 118.913 161.051 119.52H155.695Z" fill="#26344F"/>
</svg>
