<svg width="310" height="181" viewBox="0 0 310 181" fill="none" xmlns="http://www.w3.org/2000/svg">
<rect x="0.483871" y="0.483871" width="309.032" height="180.032" fill="white" stroke="#26344F" stroke-width="0.967742"/>
<path d="M72.88 55.456H76.208V66H72.88V55.456ZM68.304 54H80.784V56.944H68.304V54ZM85.2891 66.256C84.1158 66.256 83.0918 66.0587 82.2171 65.664C81.3425 65.2587 80.6598 64.6933 80.1691 63.968C79.6785 63.232 79.4331 62.3893 79.4331 61.44C79.4331 60.4693 79.6785 59.6213 80.1691 58.896C80.6598 58.1707 81.3425 57.6053 82.2171 57.2C83.0918 56.7947 84.1158 56.592 85.2891 56.592C86.4518 56.592 87.4705 56.7947 88.3451 57.2C89.2305 57.6053 89.9185 58.1707 90.4091 58.896C90.8998 59.6213 91.1451 60.4693 91.1451 61.44C91.1451 62.3893 90.8998 63.232 90.4091 63.968C89.9185 64.6933 89.2305 65.2587 88.3451 65.664C87.4705 66.0587 86.4518 66.256 85.2891 66.256ZM85.2891 63.84C85.8225 63.84 86.2758 63.744 86.6491 63.552C87.0331 63.36 87.3265 63.0827 87.5291 62.72C87.7318 62.3573 87.8331 61.9307 87.8331 61.44C87.8331 60.928 87.7318 60.496 87.5291 60.144C87.3265 59.7813 87.0331 59.504 86.6491 59.312C86.2758 59.12 85.8225 59.024 85.2891 59.024C84.7558 59.024 84.2971 59.12 83.9131 59.312C83.5291 59.504 83.2358 59.7813 83.0331 60.144C82.8305 60.496 82.7291 60.9227 82.7291 61.424C82.7291 61.9253 82.8305 62.3573 83.0331 62.72C83.2358 63.0827 83.5291 63.36 83.9131 63.552C84.2971 63.744 84.7558 63.84 85.2891 63.84ZM91.5491 59.28V57.856L93.4051 57.104L94.8131 54.4H96.6691V56.864H100.509V59.28H96.6691V61.968C96.6691 62.6293 96.8025 63.0933 97.0691 63.36C97.3358 63.6267 97.8211 63.76 98.5251 63.76C98.9731 63.76 99.3678 63.7227 99.7091 63.648C100.061 63.5627 100.381 63.456 100.669 63.328V65.792C100.349 65.9093 99.9278 66.016 99.4051 66.112C98.8825 66.208 98.3438 66.256 97.7891 66.256C96.7758 66.256 95.9438 66.1013 95.2931 65.792C94.6531 65.4827 94.1785 65.04 93.8691 64.464C93.5598 63.8773 93.4051 63.1947 93.4051 62.416V59.28H91.5491ZM110.027 66L109.611 62.704L110.043 61.44L109.611 60.176L110.027 56.864H113.419L112.843 61.424L113.419 66H110.027ZM110.795 61.44C110.646 62.4 110.347 63.2427 109.899 63.968C109.462 64.6933 108.902 65.2587 108.219 65.664C107.547 66.0587 106.779 66.256 105.915 66.256C105.019 66.256 104.23 66.0587 103.547 65.664C102.875 65.2587 102.347 64.6933 101.963 63.968C101.579 63.232 101.387 62.3893 101.387 61.44C101.387 60.4693 101.579 59.6213 101.963 58.896C102.347 58.1707 102.875 57.6053 103.547 57.2C104.23 56.7947 105.019 56.592 105.915 56.592C106.779 56.592 107.547 56.7947 108.219 57.2C108.902 57.5947 109.467 58.1547 109.915 58.88C110.363 59.5947 110.656 60.448 110.795 61.44ZM104.699 61.44C104.699 61.888 104.79 62.288 104.971 62.64C105.163 62.992 105.424 63.2693 105.755 63.472C106.086 63.664 106.464 63.76 106.891 63.76C107.339 63.76 107.76 63.664 108.155 63.472C108.55 63.2693 108.896 62.992 109.195 62.64C109.494 62.288 109.718 61.888 109.867 61.44C109.718 60.9813 109.494 60.576 109.195 60.224C108.896 59.872 108.55 59.5947 108.155 59.392C107.76 59.1893 107.339 59.088 106.891 59.088C106.464 59.088 106.086 59.1893 105.755 59.392C105.424 59.5947 105.163 59.872 104.971 60.224C104.79 60.576 104.699 60.9813 104.699 61.44ZM114.99 53.68H118.27V66H114.99V53.68ZM126.549 59.248H130.917C131.45 59.248 131.866 59.1253 132.165 58.88C132.463 58.6347 132.613 58.2933 132.613 57.856C132.613 57.408 132.463 57.0667 132.165 56.832C131.866 56.5867 131.45 56.464 130.917 56.464H126.085L127.573 54.88V66H124.261V54H131.381C132.298 54 133.098 54.1653 133.781 54.496C134.463 54.816 134.997 55.264 135.381 55.84C135.765 56.4053 135.957 57.0773 135.957 57.856C135.957 58.6133 135.765 59.28 135.381 59.856C134.997 60.432 134.463 60.88 133.781 61.2C133.098 61.52 132.298 61.68 131.381 61.68H126.549V59.248ZM128.341 60.384H132.069L136.373 66H132.533L128.341 60.384ZM142.553 66.256C141.444 66.256 140.452 66.0533 139.577 65.648C138.713 65.2427 138.03 64.6773 137.529 63.952C137.028 63.216 136.777 62.3627 136.777 61.392C136.777 60.4427 137.017 59.6107 137.497 58.896C137.977 58.1707 138.633 57.6053 139.465 57.2C140.308 56.7947 141.257 56.592 142.313 56.592C143.412 56.592 144.345 56.832 145.113 57.312C145.892 57.7813 146.489 58.448 146.905 59.312C147.332 60.176 147.545 61.1947 147.545 62.368H139.417V60.4H145.705L144.633 61.088C144.59 60.6187 144.473 60.224 144.281 59.904C144.089 59.5733 143.833 59.3227 143.513 59.152C143.204 58.9813 142.83 58.896 142.393 58.896C141.913 58.896 141.502 58.992 141.161 59.184C140.82 59.376 140.553 59.6427 140.361 59.984C140.169 60.3147 140.073 60.704 140.073 61.152C140.073 61.728 140.201 62.2187 140.457 62.624C140.724 63.0187 141.108 63.3227 141.609 63.536C142.121 63.7493 142.745 63.856 143.481 63.856C144.153 63.856 144.82 63.7707 145.481 63.6C146.153 63.4187 146.761 63.168 147.305 62.848V64.928C146.676 65.3547 145.956 65.6853 145.145 65.92C144.345 66.144 143.481 66.256 142.553 66.256ZM159.535 63.024C159.535 63.728 159.322 64.32 158.895 64.8C158.468 65.28 157.86 65.6427 157.071 65.888C156.282 66.1333 155.332 66.256 154.223 66.256C153.082 66.256 152.079 66.1173 151.215 65.84C150.362 65.5627 149.695 65.1733 149.215 64.672C148.735 64.1707 148.479 63.5893 148.447 62.928H151.759C151.834 63.1733 151.978 63.3867 152.191 63.568C152.415 63.7387 152.708 63.872 153.071 63.968C153.434 64.0533 153.866 64.096 154.367 64.096C155.018 64.096 155.508 64.032 155.839 63.904C156.18 63.776 156.351 63.584 156.351 63.328C156.351 63.1253 156.223 62.976 155.967 62.88C155.711 62.7733 155.274 62.6933 154.655 62.64L153.039 62.512C151.962 62.4373 151.103 62.2773 150.463 62.032C149.834 61.776 149.38 61.4507 149.103 61.056C148.826 60.6507 148.687 60.192 148.687 59.68C148.687 58.9867 148.9 58.416 149.327 57.968C149.764 57.5093 150.367 57.168 151.135 56.944C151.914 56.7093 152.82 56.592 153.855 56.592C154.879 56.592 155.791 56.7253 156.591 56.992C157.391 57.2587 158.031 57.632 158.511 58.112C158.991 58.5813 159.268 59.136 159.343 59.776H156.031C155.978 59.5733 155.86 59.392 155.679 59.232C155.498 59.0613 155.247 58.9227 154.927 58.816C154.607 58.7093 154.196 58.656 153.695 58.656C153.108 58.656 152.66 58.72 152.351 58.848C152.052 58.976 151.903 59.1573 151.903 59.392C151.903 59.5733 151.994 59.7173 152.175 59.824C152.367 59.9307 152.719 60.0053 153.231 60.048L155.359 60.208C156.415 60.272 157.247 60.4267 157.855 60.672C158.463 60.9067 158.895 61.2213 159.151 61.616C159.407 62.0107 159.535 62.48 159.535 63.024ZM171.504 63.024C171.504 63.728 171.29 64.32 170.864 64.8C170.437 65.28 169.829 65.6427 169.04 65.888C168.25 66.1333 167.301 66.256 166.192 66.256C165.05 66.256 164.048 66.1173 163.184 65.84C162.33 65.5627 161.664 65.1733 161.184 64.672C160.704 64.1707 160.448 63.5893 160.416 62.928H163.728C163.802 63.1733 163.946 63.3867 164.16 63.568C164.384 63.7387 164.677 63.872 165.04 63.968C165.402 64.0533 165.834 64.096 166.336 64.096C166.986 64.096 167.477 64.032 167.808 63.904C168.149 63.776 168.32 63.584 168.32 63.328C168.32 63.1253 168.192 62.976 167.936 62.88C167.68 62.7733 167.242 62.6933 166.624 62.64L165.008 62.512C163.93 62.4373 163.072 62.2773 162.432 62.032C161.802 61.776 161.349 61.4507 161.072 61.056C160.794 60.6507 160.656 60.192 160.656 59.68C160.656 58.9867 160.869 58.416 161.296 57.968C161.733 57.5093 162.336 57.168 163.104 56.944C163.882 56.7093 164.789 56.592 165.824 56.592C166.848 56.592 167.76 56.7253 168.56 56.992C169.36 57.2587 170 57.632 170.48 58.112C170.96 58.5813 171.237 59.136 171.312 59.776H168C167.946 59.5733 167.829 59.392 167.648 59.232C167.466 59.0613 167.216 58.9227 166.896 58.816C166.576 58.7093 166.165 58.656 165.664 58.656C165.077 58.656 164.629 58.72 164.32 58.848C164.021 58.976 163.872 59.1573 163.872 59.392C163.872 59.5733 163.962 59.7173 164.144 59.824C164.336 59.9307 164.688 60.0053 165.2 60.048L167.328 60.208C168.384 60.272 169.216 60.4267 169.824 60.672C170.432 60.9067 170.864 61.2213 171.12 61.616C171.376 62.0107 171.504 62.48 171.504 63.024ZM178.32 66.256C177.147 66.256 176.123 66.0587 175.248 65.664C174.374 65.2587 173.691 64.6933 173.2 63.968C172.71 63.232 172.464 62.3893 172.464 61.44C172.464 60.4693 172.71 59.6213 173.2 58.896C173.691 58.1707 174.374 57.6053 175.248 57.2C176.123 56.7947 177.147 56.592 178.32 56.592C179.483 56.592 180.502 56.7947 181.376 57.2C182.262 57.6053 182.95 58.1707 183.44 58.896C183.931 59.6213 184.176 60.4693 184.176 61.44C184.176 62.3893 183.931 63.232 183.44 63.968C182.95 64.6933 182.262 65.2587 181.376 65.664C180.502 66.0587 179.483 66.256 178.32 66.256ZM178.32 63.84C178.854 63.84 179.307 63.744 179.68 63.552C180.064 63.36 180.358 63.0827 180.56 62.72C180.763 62.3573 180.864 61.9307 180.864 61.44C180.864 60.928 180.763 60.496 180.56 60.144C180.358 59.7813 180.064 59.504 179.68 59.312C179.307 59.12 178.854 59.024 178.32 59.024C177.787 59.024 177.328 59.12 176.944 59.312C176.56 59.504 176.267 59.7813 176.064 60.144C175.862 60.496 175.76 60.9227 175.76 61.424C175.76 61.9253 175.862 62.3573 176.064 62.72C176.267 63.0827 176.56 63.36 176.944 63.552C177.328 63.744 177.787 63.84 178.32 63.84ZM189.488 66.256C188.635 66.256 187.904 66.08 187.296 65.728C186.699 65.376 186.24 64.88 185.92 64.24C185.6 63.5893 185.44 62.832 185.44 61.968V56.864H188.704V61.504C188.704 62.176 188.87 62.6933 189.2 63.056C189.531 63.4187 190.006 63.6 190.624 63.6C191.083 63.6 191.467 63.5093 191.776 63.328C192.086 63.136 192.326 62.864 192.496 62.512C192.667 62.16 192.752 61.7387 192.752 61.248L193.76 61.776C193.643 62.7467 193.376 63.568 192.96 64.24C192.555 64.9013 192.054 65.4027 191.456 65.744C190.859 66.0853 190.203 66.256 189.488 66.256ZM193.344 66L192.752 62.336V56.864H196.016V62.848L196.608 66H193.344ZM197.558 56.864H200.886L201.43 60.128V66H198.166V59.936L197.558 56.864ZM205.718 56.72V59.504C205.398 59.44 205.094 59.3973 204.806 59.376C204.528 59.344 204.272 59.328 204.038 59.328C203.568 59.328 203.136 59.424 202.742 59.616C202.347 59.7973 202.027 60.1013 201.782 60.528C201.547 60.9547 201.43 61.5253 201.43 62.24L200.806 61.472C200.891 60.8107 201.019 60.192 201.19 59.616C201.36 59.0293 201.59 58.512 201.878 58.064C202.176 57.6053 202.544 57.248 202.982 56.992C203.419 56.7253 203.952 56.592 204.582 56.592C204.763 56.592 204.95 56.6027 205.142 56.624C205.334 56.6453 205.526 56.6773 205.718 56.72ZM217.495 62.144C217.41 62.9653 217.111 63.6853 216.599 64.304C216.087 64.9227 215.42 65.4027 214.599 65.744C213.788 66.0853 212.876 66.256 211.863 66.256C210.743 66.256 209.756 66.0533 208.903 65.648C208.05 65.2427 207.383 64.6773 206.903 63.952C206.423 63.2267 206.183 62.3893 206.183 61.44C206.183 60.48 206.423 59.6373 206.903 58.912C207.383 58.1867 208.05 57.6213 208.903 57.216C209.756 56.8 210.743 56.592 211.863 56.592C212.876 56.592 213.788 56.768 214.599 57.12C215.42 57.4613 216.087 57.9413 216.599 58.56C217.111 59.168 217.41 59.888 217.495 60.72H214.247C214.13 60.176 213.858 59.76 213.431 59.472C213.004 59.1733 212.482 59.024 211.863 59.024C211.383 59.024 210.962 59.12 210.599 59.312C210.247 59.4933 209.97 59.7653 209.767 60.128C209.575 60.48 209.479 60.9173 209.479 61.44C209.479 61.952 209.575 62.3893 209.767 62.752C209.97 63.104 210.247 63.376 210.599 63.568C210.962 63.7493 211.383 63.84 211.863 63.84C212.482 63.84 213.004 63.6853 213.431 63.376C213.868 63.0667 214.14 62.656 214.247 62.144H217.495ZM224.147 66.256C223.037 66.256 222.045 66.0533 221.171 65.648C220.307 65.2427 219.624 64.6773 219.123 63.952C218.621 63.216 218.371 62.3627 218.371 61.392C218.371 60.4427 218.611 59.6107 219.091 58.896C219.571 58.1707 220.227 57.6053 221.059 57.2C221.901 56.7947 222.851 56.592 223.907 56.592C225.005 56.592 225.939 56.832 226.707 57.312C227.485 57.7813 228.083 58.448 228.499 59.312C228.925 60.176 229.139 61.1947 229.139 62.368H221.011V60.4H227.299L226.227 61.088C226.184 60.6187 226.067 60.224 225.875 59.904C225.683 59.5733 225.427 59.3227 225.107 59.152C224.797 58.9813 224.424 58.896 223.987 58.896C223.507 58.896 223.096 58.992 222.755 59.184C222.413 59.376 222.147 59.6427 221.955 59.984C221.763 60.3147 221.667 60.704 221.667 61.152C221.667 61.728 221.795 62.2187 222.051 62.624C222.317 63.0187 222.701 63.3227 223.203 63.536C223.715 63.7493 224.339 63.856 225.075 63.856C225.747 63.856 226.413 63.7707 227.075 63.6C227.747 63.4187 228.355 63.168 228.899 62.848V64.928C228.269 65.3547 227.549 65.6853 226.739 65.92C225.939 66.144 225.075 66.256 224.147 66.256ZM241.129 63.024C241.129 63.728 240.915 64.32 240.489 64.8C240.062 65.28 239.454 65.6427 238.665 65.888C237.875 66.1333 236.926 66.256 235.817 66.256C234.675 66.256 233.673 66.1173 232.809 65.84C231.955 65.5627 231.289 65.1733 230.809 64.672C230.329 64.1707 230.073 63.5893 230.041 62.928H233.353C233.427 63.1733 233.571 63.3867 233.785 63.568C234.009 63.7387 234.302 63.872 234.665 63.968C235.027 64.0533 235.459 64.096 235.961 64.096C236.611 64.096 237.102 64.032 237.433 63.904C237.774 63.776 237.945 63.584 237.945 63.328C237.945 63.1253 237.817 62.976 237.561 62.88C237.305 62.7733 236.867 62.6933 236.249 62.64L234.633 62.512C233.555 62.4373 232.697 62.2773 232.057 62.032C231.427 61.776 230.974 61.4507 230.697 61.056C230.419 60.6507 230.281 60.192 230.281 59.68C230.281 58.9867 230.494 58.416 230.921 57.968C231.358 57.5093 231.961 57.168 232.729 56.944C233.507 56.7093 234.414 56.592 235.449 56.592C236.473 56.592 237.385 56.7253 238.185 56.992C238.985 57.2587 239.625 57.632 240.105 58.112C240.585 58.5813 240.862 59.136 240.937 59.776H237.625C237.571 59.5733 237.454 59.392 237.273 59.232C237.091 59.0613 236.841 58.9227 236.521 58.816C236.201 58.7093 235.79 58.656 235.289 58.656C234.702 58.656 234.254 58.72 233.945 58.848C233.646 58.976 233.497 59.1573 233.497 59.392C233.497 59.5733 233.587 59.7173 233.769 59.824C233.961 59.9307 234.313 60.0053 234.825 60.048L236.953 60.208C238.009 60.272 238.841 60.4267 239.449 60.672C240.057 60.9067 240.489 61.2213 240.745 61.616C241.001 62.0107 241.129 62.48 241.129 63.024Z" fill="#26344F"/>
<path d="M136.224 112.5H151.486V116.504H137.81L139.968 115.568L138.876 122.562L137.55 122.588C137.931 121.929 138.451 121.331 139.11 120.794C139.769 120.257 140.583 119.832 141.554 119.52C142.525 119.191 143.651 119.026 144.934 119.026C146.598 119.026 148.028 119.303 149.224 119.858C150.437 120.395 151.373 121.149 152.032 122.12C152.691 123.073 153.02 124.183 153.02 125.448C153.02 126.8 152.639 128.005 151.876 129.062C151.131 130.102 150.047 130.925 148.626 131.532C147.222 132.121 145.523 132.416 143.53 132.416C141.606 132.416 139.925 132.139 138.486 131.584C137.065 131.012 135.947 130.249 135.132 129.296C134.335 128.325 133.875 127.242 133.754 126.046H139.11C139.283 126.722 139.751 127.268 140.514 127.684C141.277 128.083 142.282 128.282 143.53 128.282C144.397 128.282 145.133 128.169 145.74 127.944C146.347 127.701 146.815 127.372 147.144 126.956C147.473 126.523 147.638 126.011 147.638 125.422C147.638 124.867 147.491 124.373 147.196 123.94C146.901 123.507 146.459 123.177 145.87 122.952C145.281 122.709 144.553 122.588 143.686 122.588C142.958 122.588 142.308 122.666 141.736 122.822C141.164 122.978 140.661 123.177 140.228 123.42C139.812 123.663 139.457 123.923 139.162 124.2H134.508L136.224 112.5ZM172.381 112.5V132H167.051V114.866H168.689L158.549 126.072L158.523 124.382H175.501V128.36H154.597V124.564L165.569 112.5H172.381Z" fill="#0BCB63"/>
</svg>
