<svg width="310" height="181" viewBox="0 0 310 181" fill="none" xmlns="http://www.w3.org/2000/svg">
<rect x="0.483871" y="0.483871" width="309.032" height="180.032" fill="white" stroke="#26344F" stroke-width="0.967742"/>
<path d="M85.448 60.976C85.3307 62.032 84.968 62.96 84.36 63.76C83.752 64.5493 82.952 65.1627 81.96 65.6C80.9787 66.0373 79.848 66.256 78.568 66.256C77.1707 66.256 75.9493 65.9947 74.904 65.472C73.8587 64.9493 73.0427 64.2187 72.456 63.28C71.88 62.3413 71.592 61.248 71.592 60C71.592 58.752 71.88 57.6587 72.456 56.72C73.0427 55.7813 73.8587 55.0507 74.904 54.528C75.9493 54.0053 77.1707 53.744 78.568 53.744C79.848 53.744 80.9787 53.9627 81.96 54.4C82.952 54.8373 83.752 55.456 84.36 56.256C84.968 57.0453 85.3307 57.968 85.448 59.024H82.12C82.0133 58.512 81.8053 58.08 81.496 57.728C81.1867 57.3653 80.7813 57.088 80.28 56.896C79.7893 56.704 79.2187 56.608 78.568 56.608C77.8213 56.608 77.176 56.7467 76.632 57.024C76.088 57.2907 75.672 57.68 75.384 58.192C75.096 58.6933 74.952 59.296 74.952 60C74.952 60.704 75.096 61.312 75.384 61.824C75.672 62.3253 76.088 62.7147 76.632 62.992C77.176 63.2587 77.8213 63.392 78.568 63.392C79.2187 63.392 79.7893 63.3013 80.28 63.12C80.7813 62.9387 81.1867 62.6667 81.496 62.304C81.8053 61.9413 82.0133 61.4987 82.12 60.976H85.448ZM92.2266 66.256C91.0533 66.256 90.0293 66.0587 89.1546 65.664C88.28 65.2587 87.5973 64.6933 87.1066 63.968C86.616 63.232 86.3706 62.3893 86.3706 61.44C86.3706 60.4693 86.616 59.6213 87.1066 58.896C87.5973 58.1707 88.28 57.6053 89.1546 57.2C90.0293 56.7947 91.0533 56.592 92.2266 56.592C93.3893 56.592 94.408 56.7947 95.2826 57.2C96.168 57.6053 96.856 58.1707 97.3466 58.896C97.8373 59.6213 98.0826 60.4693 98.0826 61.44C98.0826 62.3893 97.8373 63.232 97.3466 63.968C96.856 64.6933 96.168 65.2587 95.2826 65.664C94.408 66.0587 93.3893 66.256 92.2266 66.256ZM92.2266 63.84C92.76 63.84 93.2133 63.744 93.5866 63.552C93.9706 63.36 94.264 63.0827 94.4666 62.72C94.6693 62.3573 94.7706 61.9307 94.7706 61.44C94.7706 60.928 94.6693 60.496 94.4666 60.144C94.264 59.7813 93.9706 59.504 93.5866 59.312C93.2133 59.12 92.76 59.024 92.2266 59.024C91.6933 59.024 91.2346 59.12 90.8506 59.312C90.4666 59.504 90.1733 59.7813 89.9706 60.144C89.768 60.496 89.6666 60.9227 89.6666 61.424C89.6666 61.9253 89.768 62.3573 89.9706 62.72C90.1733 63.0827 90.4666 63.36 90.8506 63.552C91.2346 63.744 91.6933 63.84 92.2266 63.84ZM98.964 56.864H102.244L102.836 60.512V66H99.572V60.016L98.964 56.864ZM105.988 56.592C106.831 56.592 107.545 56.768 108.132 57.12C108.719 57.472 109.167 57.968 109.476 58.608C109.785 59.248 109.94 60.0053 109.94 60.88V66H106.676V61.36C106.676 60.6773 106.521 60.1547 106.212 59.792C105.903 59.4293 105.455 59.248 104.868 59.248C104.452 59.248 104.089 59.344 103.78 59.536C103.481 59.728 103.247 60 103.076 60.352C102.916 60.704 102.836 61.12 102.836 61.6L101.828 61.072C101.956 60.1013 102.217 59.2853 102.612 58.624C103.007 57.952 103.492 57.4453 104.068 57.104C104.655 56.7627 105.295 56.592 105.988 56.592ZM113.076 56.592C113.919 56.592 114.633 56.768 115.22 57.12C115.817 57.472 116.271 57.968 116.58 58.608C116.889 59.248 117.044 60.0053 117.044 60.88V66H113.78V61.36C113.78 60.6773 113.625 60.1547 113.316 59.792C113.007 59.4293 112.559 59.248 111.972 59.248C111.556 59.248 111.193 59.344 110.884 59.536C110.585 59.728 110.351 60 110.18 60.352C110.02 60.704 109.94 61.12 109.94 61.6L108.932 61.072C109.06 60.1013 109.316 59.2853 109.7 58.624C110.095 57.952 110.585 57.4453 111.172 57.104C111.759 56.7627 112.393 56.592 113.076 56.592ZM118.724 56.864H122.004V59.488L121.86 59.872V62.432L122.004 63.184V68.64H118.724V56.864ZM120.964 61.44C121.103 60.448 121.391 59.5947 121.828 58.88C122.276 58.1547 122.841 57.5947 123.524 57.2C124.207 56.7947 124.98 56.592 125.844 56.592C126.74 56.592 127.524 56.7947 128.196 57.2C128.879 57.6053 129.407 58.1707 129.78 58.896C130.164 59.6213 130.356 60.4693 130.356 61.44C130.356 62.3893 130.164 63.232 129.78 63.968C129.407 64.6933 128.879 65.2587 128.196 65.664C127.524 66.0587 126.74 66.256 125.844 66.256C124.98 66.256 124.207 66.0587 123.524 65.664C122.841 65.2587 122.281 64.6933 121.844 63.968C121.407 63.2427 121.113 62.4 120.964 61.44ZM127.06 61.44C127.06 60.9813 126.964 60.576 126.772 60.224C126.591 59.872 126.329 59.5947 125.988 59.392C125.657 59.1893 125.279 59.088 124.852 59.088C124.415 59.088 123.999 59.1893 123.604 59.392C123.209 59.5947 122.863 59.872 122.564 60.224C122.265 60.576 122.036 60.9813 121.876 61.44C122.036 61.888 122.265 62.288 122.564 62.64C122.863 62.992 123.209 63.2693 123.604 63.472C123.999 63.664 124.415 63.76 124.852 63.76C125.279 63.76 125.657 63.664 125.988 63.472C126.329 63.2693 126.591 62.992 126.772 62.64C126.964 62.288 127.06 61.888 127.06 61.44ZM131.771 53.68H135.051V66H131.771V53.68ZM142.209 66.256C141.1 66.256 140.108 66.0533 139.233 65.648C138.369 65.2427 137.686 64.6773 137.185 63.952C136.684 63.216 136.433 62.3627 136.433 61.392C136.433 60.4427 136.673 59.6107 137.153 58.896C137.633 58.1707 138.289 57.6053 139.121 57.2C139.964 56.7947 140.913 56.592 141.969 56.592C143.068 56.592 144.001 56.832 144.769 57.312C145.548 57.7813 146.145 58.448 146.561 59.312C146.988 60.176 147.201 61.1947 147.201 62.368H139.073V60.4H145.361L144.289 61.088C144.246 60.6187 144.129 60.224 143.937 59.904C143.745 59.5733 143.489 59.3227 143.169 59.152C142.86 58.9813 142.486 58.896 142.049 58.896C141.569 58.896 141.158 58.992 140.817 59.184C140.476 59.376 140.209 59.6427 140.017 59.984C139.825 60.3147 139.729 60.704 139.729 61.152C139.729 61.728 139.857 62.2187 140.113 62.624C140.38 63.0187 140.764 63.3227 141.265 63.536C141.777 63.7493 142.401 63.856 143.137 63.856C143.809 63.856 144.476 63.7707 145.137 63.6C145.809 63.4187 146.417 63.168 146.961 62.848V64.928C146.332 65.3547 145.612 65.6853 144.801 65.92C144.001 66.144 143.137 66.256 142.209 66.256ZM147.612 59.28V57.856L149.468 57.104L150.876 54.4H152.732V56.864H156.572V59.28H152.732V61.968C152.732 62.6293 152.865 63.0933 153.132 63.36C153.398 63.6267 153.884 63.76 154.588 63.76C155.036 63.76 155.43 63.7227 155.772 63.648C156.124 63.5627 156.444 63.456 156.732 63.328V65.792C156.412 65.9093 155.99 66.016 155.468 66.112C154.945 66.208 154.406 66.256 153.852 66.256C152.838 66.256 152.006 66.1013 151.356 65.792C150.716 65.4827 150.241 65.04 149.932 64.464C149.622 63.8773 149.468 63.1947 149.468 62.416V59.28H147.612ZM158.052 56.72L159.7 57.04L161.332 56.72V66H158.052V56.72ZM159.684 55.968C159.119 55.968 158.66 55.8293 158.308 55.552C157.956 55.264 157.78 54.8747 157.78 54.384C157.78 53.904 157.956 53.52 158.308 53.232C158.66 52.944 159.119 52.8 159.684 52.8C160.271 52.8 160.735 52.944 161.076 53.232C161.428 53.52 161.604 53.904 161.604 54.384C161.604 54.8747 161.428 55.264 161.076 55.552C160.735 55.8293 160.271 55.968 159.684 55.968ZM168.57 66.256C167.397 66.256 166.373 66.0587 165.498 65.664C164.624 65.2587 163.941 64.6933 163.45 63.968C162.96 63.232 162.714 62.3893 162.714 61.44C162.714 60.4693 162.96 59.6213 163.45 58.896C163.941 58.1707 164.624 57.6053 165.498 57.2C166.373 56.7947 167.397 56.592 168.57 56.592C169.733 56.592 170.752 56.7947 171.626 57.2C172.512 57.6053 173.2 58.1707 173.69 58.896C174.181 59.6213 174.426 60.4693 174.426 61.44C174.426 62.3893 174.181 63.232 173.69 63.968C173.2 64.6933 172.512 65.2587 171.626 65.664C170.752 66.0587 169.733 66.256 168.57 66.256ZM168.57 63.84C169.104 63.84 169.557 63.744 169.93 63.552C170.314 63.36 170.608 63.0827 170.81 62.72C171.013 62.3573 171.114 61.9307 171.114 61.44C171.114 60.928 171.013 60.496 170.81 60.144C170.608 59.7813 170.314 59.504 169.93 59.312C169.557 59.12 169.104 59.024 168.57 59.024C168.037 59.024 167.578 59.12 167.194 59.312C166.81 59.504 166.517 59.7813 166.314 60.144C166.112 60.496 166.01 60.9227 166.01 61.424C166.01 61.9253 166.112 62.3573 166.314 62.72C166.517 63.0827 166.81 63.36 167.194 63.552C167.578 63.744 168.037 63.84 168.57 63.84ZM175.308 56.864H178.588L179.18 60.512V66H175.916V60.016L175.308 56.864ZM182.54 56.592C183.414 56.592 184.161 56.768 184.78 57.12C185.398 57.472 185.868 57.968 186.188 58.608C186.518 59.248 186.684 60.0053 186.684 60.88V66H183.42V61.36C183.42 60.6773 183.244 60.1547 182.892 59.792C182.55 59.4293 182.054 59.248 181.404 59.248C180.956 59.248 180.561 59.344 180.22 59.536C179.889 59.728 179.633 60 179.452 60.352C179.27 60.704 179.18 61.12 179.18 61.6L178.172 61.072C178.3 60.1013 178.572 59.2853 178.988 58.624C179.404 57.952 179.916 57.4453 180.524 57.104C181.132 56.7627 181.804 56.592 182.54 56.592ZM194.846 59.248H199.214C199.747 59.248 200.163 59.1253 200.462 58.88C200.76 58.6347 200.91 58.2933 200.91 57.856C200.91 57.408 200.76 57.0667 200.462 56.832C200.163 56.5867 199.747 56.464 199.214 56.464H194.382L195.87 54.88V66H192.558V54H199.678C200.595 54 201.395 54.1653 202.078 54.496C202.76 54.816 203.294 55.264 203.678 55.84C204.062 56.4053 204.254 57.0773 204.254 57.856C204.254 58.6133 204.062 59.28 203.678 59.856C203.294 60.432 202.76 60.88 202.078 61.2C201.395 61.52 200.595 61.68 199.678 61.68H194.846V59.248ZM196.638 60.384H200.366L204.67 66H200.83L196.638 60.384ZM213.808 66L213.392 62.704L213.824 61.44L213.392 60.176L213.808 56.864H217.2L216.624 61.424L217.2 66H213.808ZM214.576 61.44C214.427 62.4 214.128 63.2427 213.68 63.968C213.243 64.6933 212.683 65.2587 212 65.664C211.328 66.0587 210.56 66.256 209.696 66.256C208.8 66.256 208.011 66.0587 207.328 65.664C206.656 65.2587 206.128 64.6933 205.744 63.968C205.36 63.232 205.168 62.3893 205.168 61.44C205.168 60.4693 205.36 59.6213 205.744 58.896C206.128 58.1707 206.656 57.6053 207.328 57.2C208.011 56.7947 208.8 56.592 209.696 56.592C210.56 56.592 211.328 56.7947 212 57.2C212.683 57.5947 213.248 58.1547 213.696 58.88C214.144 59.5947 214.438 60.448 214.576 61.44ZM208.48 61.44C208.48 61.888 208.571 62.288 208.752 62.64C208.944 62.992 209.206 63.2693 209.536 63.472C209.867 63.664 210.246 63.76 210.672 63.76C211.12 63.76 211.542 63.664 211.936 63.472C212.331 63.2693 212.678 62.992 212.976 62.64C213.275 62.288 213.499 61.888 213.648 61.44C213.499 60.9813 213.275 60.576 212.976 60.224C212.678 59.872 212.331 59.5947 211.936 59.392C211.542 59.1893 211.12 59.088 210.672 59.088C210.246 59.088 209.867 59.1893 209.536 59.392C209.206 59.5947 208.944 59.872 208.752 60.224C208.571 60.576 208.48 60.9813 208.48 61.44ZM217.971 59.28V57.856L219.827 57.104L221.235 54.4H223.091V56.864H226.931V59.28H223.091V61.968C223.091 62.6293 223.224 63.0933 223.491 63.36C223.758 63.6267 224.243 63.76 224.947 63.76C225.395 63.76 225.79 63.7227 226.131 63.648C226.483 63.5627 226.803 63.456 227.091 63.328V65.792C226.771 65.9093 226.35 66.016 225.827 66.112C225.304 66.208 224.766 66.256 224.211 66.256C223.198 66.256 222.366 66.1013 221.715 65.792C221.075 65.4827 220.6 65.04 220.291 64.464C219.982 63.8773 219.827 63.1947 219.827 62.416V59.28H217.971ZM233.49 66.256C232.381 66.256 231.389 66.0533 230.514 65.648C229.65 65.2427 228.968 64.6773 228.466 63.952C227.965 63.216 227.714 62.3627 227.714 61.392C227.714 60.4427 227.954 59.6107 228.434 58.896C228.914 58.1707 229.57 57.6053 230.402 57.2C231.245 56.7947 232.194 56.592 233.25 56.592C234.349 56.592 235.282 56.832 236.05 57.312C236.829 57.7813 237.426 58.448 237.842 59.312C238.269 60.176 238.482 61.1947 238.482 62.368H230.354V60.4H236.642L235.57 61.088C235.528 60.6187 235.41 60.224 235.218 59.904C235.026 59.5733 234.77 59.3227 234.45 59.152C234.141 58.9813 233.768 58.896 233.33 58.896C232.85 58.896 232.44 58.992 232.098 59.184C231.757 59.376 231.49 59.6427 231.298 59.984C231.106 60.3147 231.01 60.704 231.01 61.152C231.01 61.728 231.138 62.2187 231.394 62.624C231.661 63.0187 232.045 63.3227 232.546 63.536C233.058 63.7493 233.682 63.856 234.418 63.856C235.09 63.856 235.757 63.7707 236.418 63.6C237.09 63.4187 237.698 63.168 238.242 62.848V64.928C237.613 65.3547 236.893 65.6853 236.082 65.92C235.282 66.144 234.418 66.256 233.49 66.256Z" fill="#26344F"/>
<path d="M119.698 132L130.436 115.256V116.764H116.838V112.5H135.35V116.79L125.86 132H119.698ZM147.672 112.084C150.879 112.084 153.332 112.578 155.03 113.566C156.729 114.537 157.578 115.897 157.578 117.648C157.578 119.208 156.842 120.387 155.368 121.184C153.895 121.981 151.841 122.328 149.206 122.224V121.704C152.032 121.496 154.233 121.808 155.81 122.64C157.388 123.472 158.176 124.789 158.176 126.592C158.176 128.481 157.275 129.929 155.472 130.934C153.687 131.922 151.087 132.416 147.672 132.416C144.275 132.416 141.675 131.922 139.872 130.934C138.07 129.929 137.168 128.481 137.168 126.592C137.168 124.789 137.957 123.472 139.534 122.64C141.129 121.791 143.339 121.479 146.164 121.704V122.224C143.53 122.328 141.467 121.981 139.976 121.184C138.503 120.387 137.766 119.208 137.766 117.648C137.766 115.897 138.616 114.537 140.314 113.566C142.013 112.578 144.466 112.084 147.672 112.084ZM147.672 128.308C149.319 128.308 150.567 128.126 151.416 127.762C152.283 127.381 152.716 126.835 152.716 126.124C152.716 125.396 152.283 124.85 151.416 124.486C150.567 124.122 149.319 123.94 147.672 123.94C146.026 123.94 144.769 124.122 143.902 124.486C143.053 124.85 142.628 125.396 142.628 126.124C142.628 126.835 143.053 127.381 143.902 127.762C144.769 128.126 146.026 128.308 147.672 128.308ZM147.672 120.222C148.66 120.222 149.484 120.153 150.142 120.014C150.818 119.858 151.33 119.633 151.676 119.338C152.04 119.026 152.222 118.645 152.222 118.194C152.222 117.553 151.832 117.059 151.052 116.712C150.272 116.365 149.146 116.192 147.672 116.192C146.216 116.192 145.098 116.365 144.318 116.712C143.538 117.059 143.148 117.553 143.148 118.194C143.148 118.645 143.322 119.026 143.668 119.338C144.015 119.633 144.526 119.858 145.202 120.014C145.878 120.153 146.702 120.222 147.672 120.222ZM166.746 123.914C165.394 123.914 164.198 123.671 163.158 123.186C162.118 122.701 161.303 122.016 160.714 121.132C160.142 120.248 159.856 119.225 159.856 118.064C159.856 116.903 160.142 115.889 160.714 115.022C161.303 114.138 162.118 113.453 163.158 112.968C164.198 112.483 165.394 112.24 166.746 112.24C168.132 112.24 169.337 112.483 170.36 112.968C171.4 113.453 172.206 114.138 172.778 115.022C173.35 115.889 173.636 116.903 173.636 118.064C173.636 119.225 173.35 120.248 172.778 121.132C172.206 122.016 171.4 122.701 170.36 123.186C169.337 123.671 168.132 123.914 166.746 123.914ZM166.746 120.846C167.612 120.846 168.288 120.603 168.774 120.118C169.259 119.633 169.502 118.948 169.502 118.064C169.502 117.215 169.259 116.547 168.774 116.062C168.306 115.559 167.638 115.308 166.772 115.308C165.905 115.308 165.229 115.559 164.744 116.062C164.258 116.547 164.016 117.215 164.016 118.064C164.016 118.948 164.258 119.633 164.744 120.118C165.229 120.603 165.896 120.846 166.746 120.846ZM185.388 132.442C184.018 132.442 182.814 132.199 181.774 131.714C180.751 131.229 179.945 130.544 179.356 129.66C178.784 128.776 178.498 127.753 178.498 126.592C178.498 125.431 178.784 124.417 179.356 123.55C179.945 122.666 180.76 121.981 181.8 121.496C182.84 121.011 184.036 120.768 185.388 120.768C186.774 120.768 187.979 121.011 189.002 121.496C190.024 121.981 190.822 122.666 191.394 123.55C191.983 124.417 192.278 125.431 192.278 126.592C192.278 127.753 191.983 128.776 191.394 129.66C190.822 130.544 190.016 131.229 188.976 131.714C187.953 132.199 186.757 132.442 185.388 132.442ZM185.388 129.348C186.254 129.348 186.93 129.105 187.416 128.62C187.901 128.135 188.144 127.459 188.144 126.592C188.144 125.725 187.901 125.049 187.416 124.564C186.93 124.061 186.254 123.81 185.388 123.81C184.521 123.81 183.845 124.061 183.36 124.564C182.892 125.049 182.658 125.725 182.658 126.592C182.658 127.459 182.892 128.135 183.36 128.62C183.845 129.105 184.521 129.348 185.388 129.348ZM179.434 112.5H183.334L172.7 132H168.826L179.434 112.5Z" fill="#26344F"/>
</svg>
