<svg width="310" height="181" viewBox="0 0 310 181" fill="none" xmlns="http://www.w3.org/2000/svg">
<rect x="0.483871" y="0.483871" width="309.032" height="180.032" fill="white" stroke="#26344F" stroke-width="0.967742"/>
<path d="M104.656 54V66H101.504V55.184L102.208 55.264L97.568 66H94.208L89.552 55.296L90.272 55.216V66H87.12V54H92.24L96.544 64.304H95.264L99.536 54H104.656ZM106.677 56.72L108.325 57.04L109.957 56.72V66H106.677V56.72ZM108.309 55.968C107.744 55.968 107.285 55.8293 106.933 55.552C106.581 55.264 106.405 54.8747 106.405 54.384C106.405 53.904 106.581 53.52 106.933 53.232C107.285 52.944 107.744 52.8 108.309 52.8C108.896 52.8 109.36 52.944 109.701 53.232C110.053 53.52 110.229 53.904 110.229 54.384C110.229 54.8747 110.053 55.264 109.701 55.552C109.36 55.8293 108.896 55.968 108.309 55.968ZM122.347 63.024C122.347 63.728 122.134 64.32 121.707 64.8C121.281 65.28 120.673 65.6427 119.883 65.888C119.094 66.1333 118.145 66.256 117.035 66.256C115.894 66.256 114.891 66.1173 114.027 65.84C113.174 65.5627 112.507 65.1733 112.027 64.672C111.547 64.1707 111.291 63.5893 111.259 62.928H114.571C114.646 63.1733 114.79 63.3867 115.003 63.568C115.227 63.7387 115.521 63.872 115.883 63.968C116.246 64.0533 116.678 64.096 117.179 64.096C117.83 64.096 118.321 64.032 118.651 63.904C118.993 63.776 119.163 63.584 119.163 63.328C119.163 63.1253 119.035 62.976 118.779 62.88C118.523 62.7733 118.086 62.6933 117.467 62.64L115.851 62.512C114.774 62.4373 113.915 62.2773 113.275 62.032C112.646 61.776 112.193 61.4507 111.915 61.056C111.638 60.6507 111.499 60.192 111.499 59.68C111.499 58.9867 111.713 58.416 112.139 57.968C112.577 57.5093 113.179 57.168 113.947 56.944C114.726 56.7093 115.633 56.592 116.667 56.592C117.691 56.592 118.603 56.7253 119.403 56.992C120.203 57.2587 120.843 57.632 121.323 58.112C121.803 58.5813 122.081 59.136 122.155 59.776H118.843C118.79 59.5733 118.673 59.392 118.491 59.232C118.31 59.0613 118.059 58.9227 117.739 58.816C117.419 58.7093 117.009 58.656 116.507 58.656C115.921 58.656 115.473 58.72 115.163 58.848C114.865 58.976 114.715 59.1573 114.715 59.392C114.715 59.5733 114.806 59.7173 114.987 59.824C115.179 59.9307 115.531 60.0053 116.043 60.048L118.171 60.208C119.227 60.272 120.059 60.4267 120.667 60.672C121.275 60.9067 121.707 61.2213 121.963 61.616C122.219 62.0107 122.347 62.48 122.347 63.024ZM134.316 63.024C134.316 63.728 134.103 64.32 133.676 64.8C133.249 65.28 132.641 65.6427 131.852 65.888C131.063 66.1333 130.113 66.256 129.004 66.256C127.863 66.256 126.86 66.1173 125.996 65.84C125.143 65.5627 124.476 65.1733 123.996 64.672C123.516 64.1707 123.26 63.5893 123.228 62.928H126.54C126.615 63.1733 126.759 63.3867 126.972 63.568C127.196 63.7387 127.489 63.872 127.852 63.968C128.215 64.0533 128.647 64.096 129.148 64.096C129.799 64.096 130.289 64.032 130.62 63.904C130.961 63.776 131.132 63.584 131.132 63.328C131.132 63.1253 131.004 62.976 130.748 62.88C130.492 62.7733 130.055 62.6933 129.436 62.64L127.82 62.512C126.743 62.4373 125.884 62.2773 125.244 62.032C124.615 61.776 124.161 61.4507 123.884 61.056C123.607 60.6507 123.468 60.192 123.468 59.68C123.468 58.9867 123.681 58.416 124.108 57.968C124.545 57.5093 125.148 57.168 125.916 56.944C126.695 56.7093 127.601 56.592 128.636 56.592C129.66 56.592 130.572 56.7253 131.372 56.992C132.172 57.2587 132.812 57.632 133.292 58.112C133.772 58.5813 134.049 59.136 134.124 59.776H130.812C130.759 59.5733 130.641 59.392 130.46 59.232C130.279 59.0613 130.028 58.9227 129.708 58.816C129.388 58.7093 128.977 58.656 128.476 58.656C127.889 58.656 127.441 58.72 127.132 58.848C126.833 58.976 126.684 59.1573 126.684 59.392C126.684 59.5733 126.775 59.7173 126.956 59.824C127.148 59.9307 127.5 60.0053 128.012 60.048L130.14 60.208C131.196 60.272 132.028 60.4267 132.636 60.672C133.244 60.9067 133.676 61.2213 133.932 61.616C134.188 62.0107 134.316 62.48 134.316 63.024ZM141.053 66.256C139.944 66.256 138.952 66.0533 138.077 65.648C137.213 65.2427 136.53 64.6773 136.029 63.952C135.528 63.216 135.277 62.3627 135.277 61.392C135.277 60.4427 135.517 59.6107 135.997 58.896C136.477 58.1707 137.133 57.6053 137.965 57.2C138.808 56.7947 139.757 56.592 140.813 56.592C141.912 56.592 142.845 56.832 143.613 57.312C144.392 57.7813 144.989 58.448 145.405 59.312C145.832 60.176 146.045 61.1947 146.045 62.368H137.917V60.4H144.205L143.133 61.088C143.09 60.6187 142.973 60.224 142.781 59.904C142.589 59.5733 142.333 59.3227 142.013 59.152C141.704 58.9813 141.33 58.896 140.893 58.896C140.413 58.896 140.002 58.992 139.661 59.184C139.32 59.376 139.053 59.6427 138.861 59.984C138.669 60.3147 138.573 60.704 138.573 61.152C138.573 61.728 138.701 62.2187 138.957 62.624C139.224 63.0187 139.608 63.3227 140.109 63.536C140.621 63.7493 141.245 63.856 141.981 63.856C142.653 63.856 143.32 63.7707 143.981 63.6C144.653 63.4187 145.261 63.168 145.805 62.848V64.928C145.176 65.3547 144.456 65.6853 143.645 65.92C142.845 66.144 141.981 66.256 141.053 66.256ZM155.763 66L155.331 62.576L155.891 61.456L155.347 60.048L156.115 53.68H159.507L158.563 61.184L159.139 66H155.763ZM156.467 61.44C156.318 62.4 156.019 63.2427 155.571 63.968C155.134 64.6933 154.574 65.2587 153.891 65.664C153.219 66.0587 152.451 66.256 151.587 66.256C150.691 66.256 149.902 66.0587 149.219 65.664C148.547 65.2587 148.019 64.6933 147.635 63.968C147.251 63.232 147.059 62.3893 147.059 61.44C147.059 60.4693 147.251 59.6213 147.635 58.896C148.019 58.1707 148.547 57.6053 149.219 57.2C149.902 56.7947 150.691 56.592 151.587 56.592C152.451 56.592 153.219 56.7947 153.891 57.2C154.574 57.5947 155.139 58.1547 155.587 58.88C156.035 59.5947 156.328 60.448 156.467 61.44ZM150.371 61.44C150.371 61.888 150.462 62.288 150.643 62.64C150.835 62.992 151.096 63.2693 151.427 63.472C151.758 63.664 152.136 63.76 152.563 63.76C153.011 63.76 153.432 63.664 153.827 63.472C154.222 63.2693 154.568 62.992 154.867 62.64C155.166 62.288 155.39 61.888 155.539 61.44C155.39 60.9813 155.166 60.576 154.867 60.224C154.568 59.872 154.222 59.5947 153.827 59.392C153.432 59.1893 153.011 59.088 152.563 59.088C152.136 59.088 151.758 59.1893 151.427 59.392C151.096 59.5947 150.835 59.872 150.643 60.224C150.462 60.576 150.371 60.9813 150.371 61.44ZM168.146 55.456H171.474V66H168.146V55.456ZM163.57 54H176.05V56.944H163.57V54ZM183.636 66L183.22 62.704L183.652 61.44L183.22 60.176L183.636 56.864H187.028L186.452 61.424L187.028 66H183.636ZM184.404 61.44C184.255 62.4 183.956 63.2427 183.508 63.968C183.071 64.6933 182.511 65.2587 181.828 65.664C181.156 66.0587 180.388 66.256 179.524 66.256C178.628 66.256 177.839 66.0587 177.156 65.664C176.484 65.2587 175.956 64.6933 175.572 63.968C175.188 63.232 174.996 62.3893 174.996 61.44C174.996 60.4693 175.188 59.6213 175.572 58.896C175.956 58.1707 176.484 57.6053 177.156 57.2C177.839 56.7947 178.628 56.592 179.524 56.592C180.388 56.592 181.156 56.7947 181.828 57.2C182.511 57.5947 183.076 58.1547 183.524 58.88C183.972 59.5947 184.266 60.448 184.404 61.44ZM178.308 61.44C178.308 61.888 178.399 62.288 178.58 62.64C178.772 62.992 179.034 63.2693 179.364 63.472C179.695 63.664 180.074 63.76 180.5 63.76C180.948 63.76 181.37 63.664 181.764 63.472C182.159 63.2693 182.506 62.992 182.804 62.64C183.103 62.288 183.327 61.888 183.476 61.44C183.327 60.9813 183.103 60.576 182.804 60.224C182.506 59.872 182.159 59.5947 181.764 59.392C181.37 59.1893 180.948 59.088 180.5 59.088C180.074 59.088 179.695 59.1893 179.364 59.392C179.034 59.5947 178.772 59.872 178.58 60.224C178.399 60.576 178.308 60.9813 178.308 61.44ZM199.16 63.024C199.16 63.728 198.947 64.32 198.52 64.8C198.093 65.28 197.485 65.6427 196.696 65.888C195.907 66.1333 194.957 66.256 193.848 66.256C192.707 66.256 191.704 66.1173 190.84 65.84C189.987 65.5627 189.32 65.1733 188.84 64.672C188.36 64.1707 188.104 63.5893 188.072 62.928H191.384C191.459 63.1733 191.603 63.3867 191.816 63.568C192.04 63.7387 192.333 63.872 192.696 63.968C193.059 64.0533 193.491 64.096 193.992 64.096C194.643 64.096 195.133 64.032 195.464 63.904C195.805 63.776 195.976 63.584 195.976 63.328C195.976 63.1253 195.848 62.976 195.592 62.88C195.336 62.7733 194.899 62.6933 194.28 62.64L192.664 62.512C191.587 62.4373 190.728 62.2773 190.088 62.032C189.459 61.776 189.005 61.4507 188.728 61.056C188.451 60.6507 188.312 60.192 188.312 59.68C188.312 58.9867 188.525 58.416 188.952 57.968C189.389 57.5093 189.992 57.168 190.76 56.944C191.539 56.7093 192.445 56.592 193.48 56.592C194.504 56.592 195.416 56.7253 196.216 56.992C197.016 57.2587 197.656 57.632 198.136 58.112C198.616 58.5813 198.893 59.136 198.968 59.776H195.656C195.603 59.5733 195.485 59.392 195.304 59.232C195.123 59.0613 194.872 58.9227 194.552 58.816C194.232 58.7093 193.821 58.656 193.32 58.656C192.733 58.656 192.285 58.72 191.976 58.848C191.677 58.976 191.528 59.1573 191.528 59.392C191.528 59.5733 191.619 59.7173 191.8 59.824C191.992 59.9307 192.344 60.0053 192.856 60.048L194.984 60.208C196.04 60.272 196.872 60.4267 197.48 60.672C198.088 60.9067 198.52 61.2213 198.776 61.616C199.032 62.0107 199.16 62.48 199.16 63.024ZM203.817 63.392L202.921 63.088L207.977 56.864H211.417L203.465 66H200.537V53.68H203.817V63.392ZM205.369 61.536L207.833 59.808L211.657 66H207.977L205.369 61.536ZM222.66 63.024C222.66 63.728 222.447 64.32 222.02 64.8C221.593 65.28 220.985 65.6427 220.196 65.888C219.407 66.1333 218.457 66.256 217.348 66.256C216.207 66.256 215.204 66.1173 214.34 65.84C213.487 65.5627 212.82 65.1733 212.34 64.672C211.86 64.1707 211.604 63.5893 211.572 62.928H214.884C214.959 63.1733 215.103 63.3867 215.316 63.568C215.54 63.7387 215.833 63.872 216.196 63.968C216.559 64.0533 216.991 64.096 217.492 64.096C218.143 64.096 218.633 64.032 218.964 63.904C219.305 63.776 219.476 63.584 219.476 63.328C219.476 63.1253 219.348 62.976 219.092 62.88C218.836 62.7733 218.399 62.6933 217.78 62.64L216.164 62.512C215.087 62.4373 214.228 62.2773 213.588 62.032C212.959 61.776 212.505 61.4507 212.228 61.056C211.951 60.6507 211.812 60.192 211.812 59.68C211.812 58.9867 212.025 58.416 212.452 57.968C212.889 57.5093 213.492 57.168 214.26 56.944C215.039 56.7093 215.945 56.592 216.98 56.592C218.004 56.592 218.916 56.7253 219.716 56.992C220.516 57.2587 221.156 57.632 221.636 58.112C222.116 58.5813 222.393 59.136 222.468 59.776H219.156C219.103 59.5733 218.985 59.392 218.804 59.232C218.623 59.0613 218.372 58.9227 218.052 58.816C217.732 58.7093 217.321 58.656 216.82 58.656C216.233 58.656 215.785 58.72 215.476 58.848C215.177 58.976 215.028 59.1573 215.028 59.392C215.028 59.5733 215.119 59.7173 215.3 59.824C215.492 59.9307 215.844 60.0053 216.356 60.048L218.484 60.208C219.54 60.272 220.372 60.4267 220.98 60.672C221.588 60.9067 222.02 61.2213 222.276 61.616C222.532 62.0107 222.66 62.48 222.66 63.024Z" fill="#26344F"/>
<path d="M144.884 119.52C144.988 117.995 145.491 116.677 146.392 115.568C147.293 114.441 148.489 113.583 149.98 112.994C151.488 112.387 153.187 112.084 155.076 112.084C156.879 112.084 158.447 112.361 159.782 112.916C161.134 113.453 162.183 114.207 162.928 115.178C163.673 116.149 164.046 117.275 164.046 118.558C164.046 119.546 163.777 120.473 163.24 121.34C162.703 122.189 161.862 123.03 160.718 123.862C159.574 124.677 158.075 125.535 156.22 126.436L150.864 129.114L150.656 127.736H164.592V132H145.3V128.256L153.672 123.55C154.972 122.805 155.977 122.181 156.688 121.678C157.416 121.158 157.927 120.681 158.222 120.248C158.534 119.815 158.69 119.355 158.69 118.87C158.69 118.333 158.543 117.873 158.248 117.492C157.971 117.093 157.546 116.781 156.974 116.556C156.402 116.331 155.7 116.218 154.868 116.218C153.828 116.218 152.979 116.374 152.32 116.686C151.661 116.981 151.167 117.379 150.838 117.882C150.509 118.367 150.309 118.913 150.24 119.52H144.884Z" fill="#CB0B0B"/>
</svg>
