<svg width="94" height="95" viewBox="0 0 94 95" fill="none" xmlns="http://www.w3.org/2000/svg">
<rect x="0.333374" y="0.866638" width="93.3333" height="93.3333" fill="#26344F"/>
<path d="M31.7811 61.6477C30.7397 62.6891 30.7397 64.3775 31.7811 65.4189C32.8225 66.4603 34.511 66.4603 35.5524 65.4189L31.7811 61.6477ZM63.0001 36.8667C63.0001 35.3939 61.8062 34.2 60.3334 34.2L36.3334 34.2C34.8607 34.2 33.6667 35.3939 33.6667 36.8667C33.6667 38.3394 34.8607 39.5333 36.3334 39.5333L57.6667 39.5333L57.6667 60.8667C57.6667 62.3394 58.8607 63.5333 60.3334 63.5333C61.8062 63.5333 63.0001 62.3394 63.0001 60.8667L63.0001 36.8667ZM35.5524 65.4189L62.219 38.7523L58.4478 34.981L31.7811 61.6477L35.5524 65.4189Z" fill="white"/>
</svg>
