<svg width="95" height="94" viewBox="0 0 95 94" fill="none" xmlns="http://www.w3.org/2000/svg">
<circle cx="47.6923" cy="46.7692" r="46.1846" fill="#26344F" stroke="white" stroke-width="1.16923"/>
<path d="M28.9846 28.0615V44.3291H65.0397V28.0615H28.9846ZM48.6511 37.8221H33.9012V34.5685H48.6511V37.8221ZM53.5677 37.8221C53.2435 37.8221 52.9267 37.7267 52.6572 37.5479C52.3876 37.3692 52.1776 37.1151 52.0535 36.8178C51.9295 36.5206 51.897 36.1935 51.9603 35.8779C52.0235 35.5624 52.1796 35.2725 52.4088 35.045C52.638 34.8175 52.93 34.6626 53.2479 34.5998C53.5658 34.537 53.8954 34.5693 54.1948 34.6924C54.4943 34.8155 54.7502 35.024 54.9303 35.2915C55.1104 35.559 55.2065 35.8736 55.2065 36.1953C55.2065 36.6267 55.0339 37.0405 54.7265 37.3456C54.4192 37.6507 54.0023 37.8221 53.5677 37.8221ZM58.4843 37.8221C58.1601 37.8221 57.8433 37.7267 57.5738 37.5479C57.3042 37.3692 57.0942 37.1151 56.9701 36.8178C56.8461 36.5206 56.8137 36.1935 56.8769 35.8779C56.9401 35.5624 57.0962 35.2725 57.3254 35.045C57.5546 34.8175 57.8466 34.6626 58.1645 34.5998C58.4824 34.537 58.812 34.5693 59.1114 34.6924C59.4109 34.8155 59.6669 35.024 59.8469 35.2915C60.027 35.559 60.1231 35.8736 60.1231 36.1953C60.1231 36.6267 59.9505 37.0405 59.6431 37.3456C59.3358 37.6507 58.9189 37.8221 58.4843 37.8221ZM64.5317 56.3183L66.4 54.6915L64.7611 51.8772L62.3848 52.6743C61.8586 52.2341 61.2598 51.8874 60.6148 51.6495L60.1231 49.2094H56.8454L56.3537 51.6332C55.7087 51.8711 55.1099 52.2178 54.5838 52.6581L52.2074 51.861L50.5685 54.6753L52.4368 56.302C52.3057 56.979 52.3057 57.6747 52.4368 58.3517L50.5685 59.9785L52.2074 62.7928L54.5838 61.9957C55.1099 62.4359 55.7087 62.7826 56.3537 63.0205L56.8454 65.4769H60.1231L60.6148 63.053C61.2598 62.8151 61.8586 62.4684 62.3848 62.0282L64.7611 62.8253L66.4 60.011L64.5317 58.3843C64.6628 57.7017 64.6628 57.0008 64.5317 56.3183ZM58.4843 60.5966C57.836 60.5966 57.2023 60.4058 56.6633 60.0483C56.1242 59.6908 55.7041 59.1827 55.456 58.5882C55.2079 57.9937 55.143 57.3395 55.2695 56.7084C55.396 56.0773 55.7082 55.4976 56.1666 55.0426C56.625 54.5875 57.209 54.2777 57.8448 54.1521C58.4806 54.0266 59.1397 54.091 59.7386 54.3373C60.3375 54.5835 60.8494 55.0005 61.2096 55.5356C61.5698 56.0706 61.762 56.6996 61.762 57.3431C61.7594 58.2052 61.4132 59.0313 60.7991 59.6409C60.185 60.2505 59.3528 60.5941 58.4843 60.5966Z" fill="white"/>
<path d="M46.8379 57.2924H33.8537V53.7847H47.3151C48.1307 50.8466 49.9335 48.3443 52.3692 46.7693H28.9846V64.3077H48.883C47.5502 62.252 46.8361 59.8024 46.8379 57.2924Z" fill="white"/>
</svg>
