<svg width="95" height="94" viewBox="0 0 95 94" fill="none" xmlns="http://www.w3.org/2000/svg">
<circle cx="47.4924" cy="46.7692" r="46.1846" fill="white" stroke="black" stroke-width="1.16923"/>
<path d="M39.3599 28.844C38.8587 28.343 38.179 28.0615 37.4704 28.0615C36.7617 28.0615 36.0821 28.343 35.5809 28.844L29.9606 34.456C29.5873 34.8288 29.2912 35.2716 29.0894 35.7591C28.8876 36.2466 28.7841 36.7691 28.7847 37.2967V61.4683C28.7847 62.5315 29.207 63.5511 29.9588 64.3028C30.7106 65.0546 31.7303 65.4769 32.7935 65.4769H39.4748V56.1236C39.4748 55.7692 39.6156 55.4293 39.8662 55.1788C40.1168 54.9282 40.4566 54.7874 40.811 54.7874H46.1561V37.294C46.156 36.7673 46.0521 36.2458 45.8503 35.7593C45.6485 35.2728 45.3529 34.8308 44.9802 34.4586L39.3599 28.844ZM48.8286 37.294V54.7874H54.1737C54.5281 54.7874 54.868 54.9282 55.1186 55.1788C55.3692 55.4293 55.5099 55.7692 55.5099 56.1236V65.4769H62.1913C63.2545 65.4769 64.2741 65.0546 65.0259 64.3028C65.7777 63.5511 66.2001 62.5315 66.2001 61.4683V37.294C66.1999 36.7673 66.096 36.2458 65.8943 35.7593C65.6925 35.2728 65.3968 34.8308 65.0241 34.4586L59.4038 28.8466C58.9026 28.3456 58.223 28.0642 57.5143 28.0642C56.8057 28.0642 56.126 28.3456 55.6249 28.8466L50.0045 34.4586C49.6319 34.8308 49.3362 35.2728 49.1344 35.7593C48.9326 36.2458 48.8287 36.7673 48.8286 37.294ZM48.8286 57.4598V65.4769H52.8374V57.4598H48.8286ZM46.1561 65.4769V57.4598H42.1473V65.4769H46.1561ZM39.4748 40.7574C39.4748 41.0206 39.4229 41.2813 39.3222 41.5244C39.2215 41.7676 39.0738 41.9885 38.8877 42.1747C38.7016 42.3608 38.4806 42.5084 38.2374 42.6091C37.9942 42.7099 37.7336 42.7617 37.4704 42.7617C37.2072 42.7617 36.9465 42.7099 36.7033 42.6091C36.4602 42.5084 36.2392 42.3608 36.0531 42.1747C35.8669 41.9885 35.7193 41.7676 35.6186 41.5244C35.5178 41.2813 35.466 41.0206 35.466 40.7574C35.466 40.2258 35.6772 39.7161 36.0531 39.3402C36.429 38.9643 36.9388 38.7531 37.4704 38.7531C38.002 38.7531 38.5118 38.9643 38.8877 39.3402C39.2636 39.7161 39.4748 40.2258 39.4748 40.7574ZM37.4704 50.7788C36.9388 50.7788 36.429 50.5677 36.0531 50.1918C35.6772 49.8159 35.466 49.3061 35.466 48.7746C35.466 48.243 35.6772 47.7332 36.0531 47.3573C36.429 46.9814 36.9388 46.7703 37.4704 46.7703C38.002 46.7703 38.5118 46.9814 38.8877 47.3573C39.2636 47.7332 39.4748 48.243 39.4748 48.7746C39.4748 49.3061 39.2636 49.8159 38.8877 50.1918C38.5118 50.5677 38.002 50.7788 37.4704 50.7788ZM59.5187 40.7574C59.5187 41.289 59.3076 41.7988 58.9317 42.1747C58.5558 42.5505 58.0459 42.7617 57.5143 42.7617C56.9827 42.7617 56.4729 42.5505 56.097 42.1747C55.7211 41.7988 55.5099 41.289 55.5099 40.7574C55.5099 40.2258 55.7211 39.7161 56.097 39.3402C56.4729 38.9643 56.9827 38.7531 57.5143 38.7531C58.0459 38.7531 58.5558 38.9643 58.9317 39.3402C59.3076 39.7161 59.5187 40.2258 59.5187 40.7574ZM57.5143 50.7788C56.9827 50.7788 56.4729 50.5677 56.097 50.1918C55.7211 49.8159 55.5099 49.3061 55.5099 48.7746C55.5099 48.243 55.7211 47.7332 56.097 47.3573C56.4729 46.9814 56.9827 46.7703 57.5143 46.7703C58.0459 46.7703 58.5558 46.9814 58.9317 47.3573C59.3076 47.7332 59.5187 48.243 59.5187 48.7746C59.5187 49.3061 59.3076 49.8159 58.9317 50.1918C58.5558 50.5677 58.0459 50.7788 57.5143 50.7788Z" fill="black"/>
</svg>
