<svg width="265" height="264" viewBox="0 0 265 264" fill="none" xmlns="http://www.w3.org/2000/svg">
<g filter="url(#filter0_bd_3_343)">
<path d="M263.5 131C263.5 203.349 204.849 262 132.5 262C60.1507 262 1.5 203.349 1.5 131C1.5 58.6507 60.1507 0 132.5 0C204.849 0 263.5 58.6507 263.5 131Z" fill="url(#paint0_linear_3_343)" shape-rendering="crispEdges"/>
<path d="M263 131C263 203.073 204.573 261.5 132.5 261.5C60.4268 261.5 2 203.073 2 131C2 58.9268 60.4268 0.5 132.5 0.5C204.573 0.5 263 58.9268 263 131Z" stroke="url(#paint1_linear_3_343)" shape-rendering="crispEdges"/>
</g>
<path d="M104.069 151.859C102.117 153.812 102.117 156.978 104.069 158.931C106.022 160.883 109.188 160.883 111.14 158.931L104.069 151.859ZM161.395 106.605C161.395 103.843 159.157 101.605 156.395 101.605L111.395 101.605C108.634 101.605 106.395 103.843 106.395 106.605C106.395 109.366 108.634 111.605 111.395 111.605H151.395V151.605C151.395 154.366 153.634 156.605 156.395 156.605C159.157 156.605 161.395 154.366 161.395 151.605L161.395 106.605ZM111.14 158.931L159.931 110.14L152.86 103.069L104.069 151.859L111.14 158.931Z" fill="white"/>
<path d="M229.325 140.784L236.106 137.576L236.222 135.996L229.712 135.518L229.958 132.167L246.665 133.394L246.204 139.665C246.109 140.957 245.797 142.041 245.267 142.917C244.754 143.794 244.09 144.427 243.275 144.816C242.475 145.223 241.596 145.391 240.639 145.321C239.538 145.24 238.564 144.847 237.717 144.143C236.887 143.441 236.35 142.447 236.107 141.162L229.04 144.661L229.325 140.784ZM238.735 136.181L238.53 138.981C238.463 139.891 238.628 140.585 239.026 141.063C239.44 141.543 240.038 141.811 240.82 141.869C241.586 141.925 242.193 141.745 242.641 141.328C243.104 140.913 243.37 140.251 243.436 139.341L243.642 136.541L238.735 136.181Z" fill="white"/>
<path d="M232.686 160.689C232.217 160.583 231.803 160.456 231.443 160.309L233.591 150.829C232.637 150.695 231.829 150.856 231.168 151.314C230.506 151.771 230.08 152.421 229.889 153.263C229.613 154.48 229.94 155.465 230.869 156.217L230.068 159.751C228.905 159.094 228.037 158.143 227.466 156.898C226.911 155.656 226.808 154.263 227.158 152.718C227.441 151.47 227.969 150.408 228.741 149.533C229.526 148.677 230.489 148.084 231.63 147.752C232.768 147.435 234.001 147.427 235.327 147.728C236.669 148.032 237.785 148.572 238.676 149.348C239.566 150.124 240.173 151.065 240.497 152.172C240.82 153.279 240.837 154.472 240.547 155.752C240.267 156.985 239.753 158.025 239.003 158.872C238.25 159.735 237.322 160.32 236.218 160.628C235.127 160.955 233.949 160.975 232.686 160.689ZM234.391 157.507C235.237 157.682 235.977 157.53 236.611 157.05C237.26 156.574 237.682 155.907 237.876 155.048C238.06 154.237 237.966 153.494 237.594 152.819C237.234 152.163 236.631 151.674 235.786 151.351L234.391 157.507Z" fill="white"/>
<path d="M232.105 162.043C233.356 162.534 234.369 163.215 235.145 164.087C235.914 164.973 236.393 165.943 236.581 166.997C236.763 168.065 236.647 169.128 236.232 170.186C235.869 171.109 235.368 171.84 234.726 172.379C234.079 172.933 233.391 173.308 232.661 173.502L234.426 174.195L233.19 177.345L220.813 172.488L222.049 169.338L223.859 170.048C223.436 169.418 223.171 168.67 223.064 167.803C222.967 166.956 223.099 166.072 223.461 165.148C223.871 164.106 224.513 163.258 225.388 162.604C226.257 161.966 227.275 161.583 228.442 161.457C229.618 161.351 230.839 161.546 232.105 162.043ZM228.238 171.767C228.997 172.065 229.704 172.17 230.357 172.082C231.025 172.001 231.6 171.762 232.081 171.367C232.578 170.978 232.94 170.492 233.168 169.911C233.396 169.331 233.465 168.739 233.375 168.136C233.285 167.534 233.026 166.968 232.597 166.439C232.178 165.931 231.596 165.53 230.851 165.238C230.107 164.946 229.393 164.838 228.71 164.913C228.036 165.01 227.454 165.245 226.963 165.62C226.466 166.01 226.107 166.487 225.885 167.053C225.657 167.634 225.585 168.233 225.669 168.851C225.769 169.474 226.028 170.04 226.447 170.548C226.881 171.062 227.478 171.468 228.238 171.767Z" fill="white"/>
<path d="M233.355 186.558L217.679 178.211L219.258 175.245L234.934 183.593L233.355 186.558Z" fill="white"/>
<path d="M222.533 196.643L219.173 194.123L215.789 198.635L213.658 197.037L217.042 192.525L213.49 189.861L209.674 194.949L207.485 193.307L213.317 185.531L226.738 195.597L220.906 203.373L218.717 201.731L222.533 196.643Z" fill="white"/>
<path d="M202.339 198.539C203.097 197.759 203.915 197.192 204.792 196.84C205.681 196.499 206.545 196.379 207.384 196.48C208.212 196.592 208.935 196.916 209.554 197.45L207.196 199.877C206.784 199.566 206.307 199.449 205.765 199.525C205.212 199.612 204.707 199.891 204.25 200.361C203.804 200.82 203.55 201.265 203.488 201.696C203.415 202.139 203.523 202.499 203.809 202.778C204.119 203.079 204.505 203.141 204.966 202.965C205.428 202.811 206.085 202.479 206.938 201.969C207.801 201.424 208.547 201.012 209.177 200.731C209.795 200.462 210.456 200.345 211.158 200.38C211.848 200.426 212.515 200.762 213.158 201.386C213.686 201.899 214.023 202.516 214.169 203.238C214.304 203.972 214.225 204.742 213.931 205.55C213.626 206.369 213.1 207.163 212.354 207.932C211.25 209.068 210.082 209.696 208.851 209.816C207.631 209.947 206.505 209.579 205.474 208.711L207.715 206.404C208.127 206.738 208.582 206.867 209.078 206.792C209.575 206.739 210.052 206.478 210.51 206.007C210.933 205.571 211.182 205.154 211.255 204.757C211.317 204.372 211.205 204.039 210.918 203.761C210.597 203.449 210.194 203.37 209.71 203.524C209.237 203.689 208.586 204.027 207.756 204.537C206.915 205.058 206.185 205.453 205.566 205.722C204.948 205.992 204.288 206.097 203.585 206.04C202.883 206.005 202.211 205.686 201.569 205.085C201.018 204.55 200.675 203.915 200.54 203.182C200.393 202.46 200.473 201.689 200.778 200.87C201.083 200.074 201.603 199.297 202.339 198.539Z" fill="white"/>
<path d="M200.403 214.868L196.322 209.896C196.038 209.55 195.75 209.362 195.457 209.333C195.162 209.327 194.817 209.486 194.421 209.811L193.215 210.801L191.418 208.612L193.051 207.272C195.24 205.475 197.208 205.641 198.953 207.768L203.019 212.721L204.243 211.716L205.994 213.85L204.77 214.855L206.856 217.396L204.24 219.543L202.154 217.002L199.853 218.89L198.102 216.756L200.403 214.868Z" fill="white"/>
<path d="M194.105 215.218C194.818 216.357 195.227 217.507 195.331 218.669C195.422 219.839 195.229 220.903 194.754 221.862C194.264 222.829 193.538 223.614 192.575 224.217C191.734 224.743 190.896 225.032 190.06 225.084C189.21 225.143 188.434 225.035 187.732 224.757L188.738 226.364L185.869 228.16L178.814 216.89L181.683 215.094L182.714 216.742C182.749 215.984 182.982 215.225 183.412 214.465C183.837 213.726 184.47 213.094 185.311 212.568C186.26 211.974 187.281 211.674 188.373 211.67C189.452 211.675 190.498 211.973 191.511 212.566C192.519 213.181 193.383 214.065 194.105 215.218ZM185.21 220.729C185.643 221.421 186.148 221.926 186.725 222.244C187.31 222.576 187.914 222.727 188.537 222.696C189.167 222.678 189.747 222.504 190.276 222.173C190.805 221.842 191.213 221.407 191.499 220.87C191.785 220.332 191.914 219.723 191.884 219.043C191.85 218.385 191.621 217.717 191.196 217.039C190.772 216.36 190.262 215.849 189.669 215.503C189.07 215.18 188.462 215.022 187.844 215.031C187.213 215.049 186.64 215.219 186.125 215.541C185.596 215.872 185.182 216.311 184.882 216.857C184.59 217.417 184.462 218.026 184.496 218.684C184.539 219.356 184.777 220.037 185.21 220.729Z" fill="white"/>
<path d="M176.909 229.351L174.228 223.505C174.041 223.098 173.81 222.843 173.534 222.741C173.25 222.659 172.876 222.726 172.41 222.939L170.992 223.589L169.812 221.015L171.732 220.135C174.306 218.954 176.166 219.615 177.314 222.116L179.985 227.941L181.425 227.281L182.575 229.789L181.135 230.45L182.506 233.438L179.43 234.849L178.059 231.86L175.354 233.101L174.204 230.592L176.909 229.351Z" fill="white"/>
<path d="M158.18 232.291C158.034 231.834 157.933 231.412 157.876 231.027L167.133 228.062C166.764 227.172 166.214 226.558 165.485 226.221C164.755 225.883 163.979 225.846 163.156 226.11C161.967 226.491 161.285 227.272 161.109 228.454L157.658 229.56C157.633 228.224 158.012 226.993 158.794 225.869C159.582 224.76 160.729 223.964 162.238 223.481C163.457 223.09 164.639 223.005 165.785 223.226C166.921 223.467 167.922 223.995 168.788 224.81C169.638 225.629 170.271 226.687 170.686 227.982C171.106 229.292 171.208 230.528 170.992 231.689C170.776 232.851 170.273 233.852 169.484 234.692C168.695 235.533 167.676 236.154 166.426 236.554C165.223 236.94 164.065 237.025 162.955 236.809C161.829 236.599 160.853 236.097 160.027 235.303C159.191 234.529 158.576 233.525 158.18 232.291ZM161.787 232.143C162.066 232.961 162.573 233.521 163.308 233.823C164.049 234.14 164.838 234.165 165.676 233.896C166.468 233.643 167.06 233.184 167.453 232.521C167.835 231.877 167.95 231.11 167.798 230.217L161.787 232.143Z" fill="white"/>
<path d="M145.534 232.127C146.138 232.052 146.711 232.126 147.255 232.349C147.8 232.588 148.255 232.943 148.62 233.413C148.969 233.886 149.18 234.424 149.255 235.027C149.332 235.647 149.259 236.228 149.036 236.772C148.797 237.317 148.442 237.764 147.969 238.113C147.498 238.478 146.961 238.698 146.358 238.772C145.739 238.849 145.156 238.768 144.611 238.529C144.051 238.308 143.597 237.962 143.248 237.489C142.884 237.018 142.663 236.473 142.586 235.854C142.511 235.251 142.593 234.676 142.832 234.131C143.055 233.587 143.41 233.132 143.896 232.765C144.369 232.417 144.915 232.204 145.534 232.127Z" fill="white"/>
<path d="M123.571 227.866L126.806 234.635L128.386 234.744L128.839 228.232L132.191 228.465L131.028 245.177L124.755 244.741C123.463 244.651 122.377 244.343 121.5 243.817C120.621 243.306 119.985 242.645 119.593 241.831C119.183 241.033 119.012 240.155 119.078 239.197C119.155 238.096 119.544 237.121 120.244 236.271C120.944 235.438 121.936 234.897 123.22 234.65L119.693 227.596L123.571 227.866ZM128.211 237.258L125.41 237.064C124.5 237 123.806 237.169 123.33 237.568C122.852 237.984 122.585 238.583 122.531 239.365C122.478 240.132 122.66 240.738 123.078 241.184C123.495 241.646 124.158 241.908 125.068 241.972L127.869 242.167L128.211 237.258Z" fill="white"/>
<path d="M103.848 231.359C103.95 230.89 104.074 230.475 104.218 230.114L113.714 232.189C113.841 231.234 113.673 230.428 113.211 229.77C112.749 229.112 112.096 228.691 111.252 228.507C110.032 228.24 109.05 228.574 108.306 229.509L104.765 228.735C105.414 227.566 106.358 226.692 107.599 226.111C108.836 225.546 110.228 225.433 111.776 225.771C113.026 226.045 114.092 226.564 114.973 227.33C115.834 228.108 116.436 229.066 116.776 230.205C117.101 231.341 117.119 232.573 116.828 233.902C116.534 235.246 116.003 236.366 115.234 237.263C114.465 238.159 113.528 238.773 112.423 239.105C111.319 239.437 110.126 239.463 108.844 239.183C107.609 238.913 106.566 238.406 105.713 237.663C104.844 236.916 104.252 235.992 103.935 234.892C103.6 233.803 103.571 232.625 103.848 231.359ZM107.042 233.04C106.874 233.888 107.031 234.627 107.516 235.257C107.997 235.902 108.668 236.319 109.527 236.507C110.34 236.685 111.083 236.585 111.755 236.208C112.408 235.843 112.892 235.236 113.209 234.388L107.042 233.04Z" fill="white"/>
<path d="M102.348 230.726C101.862 231.979 101.184 232.995 100.316 233.773C99.4324 234.546 98.4642 235.028 97.4114 235.22C96.3437 235.407 95.2803 235.294 94.2212 234.883C93.2964 234.524 92.5633 234.025 92.0219 233.386C91.4656 232.741 91.0886 232.054 90.8909 231.325L90.2049 233.093L87.0502 231.868L91.8609 219.473L95.0157 220.698L94.3123 222.51C94.9408 222.085 95.6883 221.817 96.5548 221.707C97.4006 221.606 98.2858 221.735 99.2106 222.094C100.255 222.499 101.105 223.138 101.762 224.011C102.404 224.878 102.79 225.895 102.921 227.061C103.031 228.237 102.84 229.458 102.348 230.726ZM92.6103 226.895C92.3151 227.656 92.2124 228.363 92.3023 229.015C92.3864 229.683 92.6271 230.257 93.0242 230.737C93.4156 231.233 93.9021 231.593 94.4838 231.819C95.0656 232.045 95.6575 232.111 96.2598 232.019C96.862 231.926 97.4268 231.665 97.9542 231.235C98.461 230.814 98.8591 230.23 99.1485 229.484C99.438 228.739 99.5435 228.024 99.4652 227.342C99.3662 226.668 99.1284 226.087 98.752 225.598C98.3606 225.102 97.8815 224.745 97.3147 224.525C96.733 224.299 96.1336 224.229 95.5164 224.316C94.8935 224.418 94.3287 224.679 93.8219 225.1C93.3094 225.536 92.9055 226.135 92.6103 226.895Z" fill="white"/>
<path d="M77.8844 232.092L86.1739 216.385L89.1455 217.953L80.8559 233.66L77.8844 232.092Z" fill="white"/>
<path d="M67.8935 221.409L70.3889 218.031L65.8523 214.68L67.4351 212.537L71.9717 215.888L74.6096 212.317L69.4939 208.538L71.1195 206.337L78.9379 212.112L68.9706 225.606L61.1522 219.831L62.7778 217.631L67.8935 221.409Z" fill="white"/>
<path d="M65.8773 201.224C66.6633 201.977 67.2355 202.79 67.5941 203.665C67.9416 204.552 68.0679 205.415 67.973 206.254C67.8666 207.082 67.5486 207.808 67.019 208.431L64.5746 206.091C64.8824 205.676 64.9964 205.199 64.9167 204.657C64.8255 204.105 64.5429 203.602 64.0691 203.148C63.6068 202.705 63.16 202.455 62.7287 202.396C62.2858 202.327 61.9261 202.436 61.6495 202.725C61.3507 203.037 61.2912 203.424 61.471 203.884C61.6282 204.344 61.965 204.999 62.4814 205.848C63.032 206.707 63.4499 207.45 63.7352 208.078C64.0089 208.694 64.1308 209.354 64.1009 210.056C64.0593 210.747 63.7288 211.416 63.1092 212.064C62.6002 212.595 61.9853 212.937 61.2643 213.088C60.5318 213.229 59.7607 213.155 58.9509 212.867C58.1296 212.568 57.3318 212.048 56.5575 211.307C55.4133 210.211 54.7768 209.048 54.6481 207.818C54.5084 206.599 54.8685 205.47 55.7286 204.433L58.0517 206.657C57.7212 207.072 57.5954 207.527 57.6741 208.023C57.7302 208.52 57.9952 208.995 58.469 209.449C58.9082 209.869 59.3266 210.115 59.7242 210.185C60.1103 210.245 60.4416 210.13 60.7182 209.841C61.028 209.518 61.1041 209.114 60.9465 208.631C60.7777 208.159 60.4354 207.51 59.9195 206.684C59.392 205.847 58.9914 205.12 58.7177 204.504C58.444 203.887 58.3334 203.228 58.386 202.525C58.4159 201.823 58.7294 201.148 59.3264 200.501C59.8575 199.947 60.4893 199.599 61.2218 199.459C61.9427 199.307 62.7138 199.381 63.5351 199.68C64.3338 199.979 65.1145 200.494 65.8773 201.224Z" fill="white"/>
<path d="M49.574 199.426L54.5162 195.309C54.8604 195.022 55.0459 194.733 55.0726 194.44C55.0767 194.145 54.915 193.8 54.5873 193.407L53.5889 192.208L55.7649 190.396L57.1166 192.019C58.9291 194.195 58.7781 196.163 56.6635 197.925L51.7398 202.026L52.7536 203.243L50.6329 205.009L49.6191 203.792L47.0928 205.897L44.927 203.296L47.4533 201.192L45.5487 198.905L47.6694 197.139L49.574 199.426Z" fill="white"/>
<path d="M49.108 193.041C47.9715 193.758 46.8225 194.171 45.6612 194.279C44.4914 194.374 43.4263 194.186 42.466 193.713C41.4971 193.227 40.7096 192.504 40.1033 191.543C39.5738 190.705 39.2818 189.867 39.2273 189.031C39.1642 188.182 39.2701 187.405 39.5452 186.702L37.9418 187.714L36.1357 184.852L47.3797 177.756L49.1858 180.618L47.5418 181.655C48.3001 181.688 49.06 181.917 49.8217 182.345C50.5613 182.767 51.1959 183.398 51.7253 184.237C52.3231 185.184 52.6261 186.204 52.6342 187.296C52.6339 188.375 52.3391 189.421 51.75 190.437C51.1388 191.447 50.2581 192.315 49.108 193.041ZM43.5638 184.166C42.8737 184.601 42.3705 185.108 42.0542 185.686C41.7244 186.273 41.5761 186.877 41.6094 187.5C41.6291 188.13 41.8055 188.71 42.1385 189.237C42.4716 189.765 42.9075 190.171 43.4464 190.455C43.9853 190.739 44.5947 190.866 45.2747 190.834C45.9326 190.797 46.5998 190.565 47.2763 190.138C47.9528 189.711 48.4628 189.2 48.8062 188.605C49.1275 188.005 49.2825 187.396 49.2713 186.779C49.2516 186.148 49.0795 185.576 48.755 185.061C48.4219 184.534 47.9817 184.121 47.4343 183.823C46.8733 183.534 46.2639 183.408 45.606 183.445C44.9346 183.49 44.2539 183.73 43.5638 184.166Z" fill="white"/>
<path d="M34.9881 176.11L40.8146 173.386C41.2204 173.196 41.4735 172.963 41.5738 172.686C41.6528 172.402 41.5839 172.028 41.367 171.564L40.7062 170.151L43.2716 168.952L44.1662 170.865C45.3658 173.43 44.7192 175.296 42.2263 176.461L36.4216 179.176L37.0926 180.611L34.5924 181.78L33.9214 180.345L30.943 181.738L29.5096 178.672L32.488 177.279L31.2274 174.584L33.7275 173.415L34.9881 176.11Z" fill="white"/>
<path d="M31.9276 157.449C32.3836 157.299 32.804 157.195 33.1888 157.135L36.2241 166.369C37.1111 165.994 37.7206 165.44 38.0525 164.707C38.3844 163.975 38.4155 163.198 38.1457 162.378C37.756 161.192 36.9695 160.516 35.7862 160.349L34.6545 156.906C35.9904 156.871 37.2235 157.241 38.3536 158.015C39.4686 158.793 40.2734 159.935 40.768 161.44C41.1677 162.656 41.2615 163.838 41.0492 164.985C40.8168 166.123 40.2965 167.128 39.4884 168C38.6753 168.856 37.6227 169.497 36.3308 169.922C35.0236 170.351 33.7885 170.463 32.6257 170.255C31.4628 170.048 30.458 169.553 29.6112 168.771C28.7645 167.988 28.1362 166.973 27.7265 165.727C27.3318 164.526 27.2379 163.37 27.445 162.257C27.647 161.13 28.1419 160.15 28.9296 159.319C29.6971 158.477 30.6964 157.854 31.9276 157.449ZM32.1024 161.055C31.2866 161.34 30.7304 161.851 30.4339 162.588C30.1221 163.331 30.1037 164.12 30.3785 164.956C30.6383 165.747 31.1013 166.335 31.7676 166.723C32.4137 167.1 33.1823 167.209 34.0734 167.051L32.1024 161.055Z" fill="white"/>
<path d="M32.0063 144.889C32.0858 145.492 32.0161 146.066 31.7975 146.611C31.563 147.159 31.2118 147.617 30.7439 147.985C30.2739 148.337 29.7375 148.553 29.1347 148.633C28.516 148.714 27.9341 148.645 27.3889 148.427C26.8415 148.192 26.3917 147.84 26.0393 147.37C25.671 146.902 25.4471 146.367 25.3677 145.764C25.2862 145.145 25.3627 144.562 25.5972 144.015C25.8138 143.454 26.1571 142.997 26.6271 142.645C27.095 142.277 27.6382 142.052 28.2569 141.97C28.8597 141.891 29.4347 141.968 29.9821 142.203C30.5273 142.421 30.9851 142.773 31.3555 143.256C31.7079 143.726 31.9248 144.271 32.0063 144.889Z" fill="white"/>
<path d="M36.0857 122.911L29.3421 126.197L29.2444 127.778L35.7599 128.181L35.5526 131.535L18.8325 130.501L19.2205 124.225C19.3004 122.932 19.6001 121.844 20.1195 120.962C20.6229 120.08 21.2797 119.439 22.0898 119.04C22.885 118.625 23.7616 118.446 24.7198 118.506C25.8217 118.574 26.8001 118.955 27.6549 119.649C28.4937 120.342 29.0418 121.33 29.2992 122.612L36.3255 119.031L36.0857 122.911ZM26.7292 127.623L26.9024 124.82C26.9587 123.91 26.785 123.218 26.3815 122.744C25.962 122.269 25.361 122.008 24.5785 121.959C23.8119 121.912 23.2072 122.099 22.7644 122.521C22.3056 122.941 22.048 123.606 21.9918 124.517L21.8185 127.319L26.7292 127.623Z" fill="white"/>
<path d="M32.4979 103.006C32.9672 103.107 33.3829 103.228 33.7449 103.372L31.7055 112.875C32.6609 112.998 33.4667 112.828 34.1228 112.363C34.7789 111.898 35.1976 111.244 35.3789 110.399C35.6407 109.179 35.3029 108.198 34.3656 107.457L35.1259 103.913C36.2969 104.557 37.175 105.499 37.7602 106.737C38.3297 107.972 38.4483 109.364 38.116 110.913C37.8474 112.164 37.332 113.232 36.5696 114.115C35.7949 114.98 34.8387 115.585 33.701 115.93C32.5667 116.259 31.3346 116.281 30.0049 115.996C28.6595 115.707 27.5372 115.18 26.6378 114.414C25.7385 113.648 25.1208 112.714 24.7847 111.611C24.4487 110.508 24.4183 109.315 24.6936 108.032C24.9588 106.796 25.4614 105.751 26.2014 104.895C26.9448 104.023 27.8663 103.427 28.966 103.107C30.0534 102.768 31.2307 102.734 32.4979 103.006ZM30.8291 106.207C29.981 106.041 29.2428 106.202 28.6147 106.689C27.9708 107.173 27.5566 107.845 27.372 108.705C27.1974 109.519 27.3 110.261 27.6798 110.931C28.0472 111.583 28.6556 112.065 29.5048 112.378L30.8291 106.207Z" fill="white"/>
<path d="M32.9972 101.801C31.7407 101.324 30.7199 100.654 29.9349 99.7915C29.1556 98.9139 28.666 97.9494 28.466 96.8981C28.2717 95.8317 28.3761 94.7675 28.7792 93.7054C29.1311 92.778 29.6247 92.0412 30.2598 91.495C30.9006 90.9338 31.5847 90.5517 32.3121 90.3486L30.5395 89.6759L31.7402 86.512L44.1711 91.2297L42.9704 94.3935L41.1528 93.7037C41.583 94.329 41.8562 95.0745 41.9727 95.9401C42.0798 96.7851 41.9574 97.6714 41.6054 98.5988C41.208 99.6459 40.5754 100.501 39.7077 101.164C38.8455 101.813 37.8318 102.207 36.6665 102.346C35.4918 102.465 34.2687 102.283 32.9972 101.801ZM36.7549 92.0347C35.992 91.7451 35.2845 91.6478 34.6325 91.7426C33.9654 91.8317 33.3933 92.0766 32.9161 92.4774C32.4239 92.8725 32.0671 93.3617 31.8456 93.9451C31.6242 94.5285 31.562 95.1209 31.6589 95.7224C31.7557 96.324 32.0213 96.8868 32.4556 97.411C32.8805 97.9146 33.467 98.3083 34.215 98.5921C34.9629 98.876 35.6779 98.9762 36.3599 98.8927C37.0326 98.7886 37.6122 98.5465 38.0987 98.1664C38.5909 97.7714 38.9449 97.2896 39.1606 96.7212C39.382 96.1378 39.4471 95.5378 39.3559 94.9214C39.2497 94.2992 38.9842 93.7364 38.5592 93.2328C38.1192 92.7236 37.5178 92.3242 36.7549 92.0347Z" fill="white"/>
<path d="M31.4509 77.2894L47.2185 85.4626L45.6722 88.4456L29.9046 80.2725L31.4509 77.2894Z" fill="white"/>
<path d="M42.2431 66.9149L45.6305 69.3979L48.9649 64.8491L51.1134 66.424L47.7791 70.9728L51.3601 73.5978L55.1201 68.4683L57.3267 70.0858L51.5803 77.9252L38.05 68.0073L43.7965 60.1678L46.0031 61.7853L42.2431 66.9149Z" fill="white"/>
<path d="M62.3561 64.8513C61.6066 65.64 60.7951 66.2152 59.9215 66.5769C59.0364 66.9276 58.1739 67.0571 57.3341 66.9653C56.5053 66.8619 55.7786 66.5465 55.154 66.0191L57.4853 63.5662C57.9005 63.8725 58.3787 63.9849 58.9198 63.9032C59.472 63.8099 59.974 63.5255 60.426 63.05C60.8669 62.5861 61.1158 62.1384 61.1727 61.7069C61.2406 61.2638 61.1296 60.9045 60.8397 60.6289C60.5266 60.3313 60.1403 60.2732 59.6809 60.4547C59.2209 60.6135 58.5675 60.9527 57.7206 61.4722C56.8632 62.0259 56.1213 62.4465 55.4949 62.7341C54.8794 63.0101 54.2205 63.1343 53.5182 63.1069C52.8268 63.0679 52.1564 62.7398 51.5069 62.1226C50.9734 61.6155 50.6296 61.0018 50.4755 60.2814C50.3324 59.5494 50.4033 58.7781 50.6882 57.9673C50.9842 57.1449 51.5014 56.3452 52.2399 55.5681C53.3311 54.4199 54.4918 53.7793 55.722 53.6461C56.9406 53.502 58.0701 53.858 59.1105 54.7143L56.895 57.0455C56.4792 56.7165 56.0233 56.5923 55.5274 56.6728C55.0309 56.7307 54.5567 56.9974 54.1048 57.4729C53.686 57.9136 53.442 58.3329 53.3729 58.7308C53.3148 59.1171 53.4307 59.448 53.7207 59.7235C54.0454 60.0322 54.4491 60.1068 54.9317 59.9474C55.4027 59.7769 56.0503 59.4323 56.8746 58.9133C57.7099 58.3828 58.4353 57.9796 59.0507 57.7036C59.6661 57.4277 60.3253 57.3147 61.0283 57.3647C61.7307 57.3921 62.4063 57.7031 63.0552 58.2978C63.6119 58.8268 63.9618 59.4574 64.1049 60.1893C64.259 60.9097 64.1881 61.6811 63.8922 62.5035C63.5956 63.3033 63.0836 64.0859 62.3561 64.8513Z" fill="white"/>
<path d="M63.9788 48.5969L68.1133 53.524C68.4013 53.8671 68.6918 54.0516 68.9848 54.0772C69.2798 54.0803 69.6234 53.9173 70.0156 53.5881L71.2106 52.5854L73.0311 54.7548L71.4132 56.1124C69.2438 57.9328 67.2746 57.7889 65.5056 55.6808L61.3865 50.7721L60.1731 51.7903L58.399 49.6761L59.6124 48.6579L57.4988 46.1391L60.0911 43.9639L62.2046 46.4826L64.4843 44.5696L66.2585 46.6839L63.9788 48.5969Z" fill="white"/>
<path d="M70.1794 48.1955C69.4538 47.0642 69.0324 45.9184 68.9153 44.7579C68.8117 43.5888 68.9926 42.5224 69.4579 41.5586C69.9366 40.5862 70.6541 39.7933 71.6103 39.18C72.4453 38.6444 73.2805 38.3463 74.116 38.2856C74.9649 38.2163 75.7421 38.3165 76.4474 38.5864L75.4238 36.9905L78.2722 35.1635L85.4508 46.355L82.6024 48.1821L81.5528 46.5458C81.5261 47.3042 81.3018 48.0659 80.88 48.8307C80.463 49.5734 79.837 50.2125 79.002 50.7481C78.0593 51.3528 77.0418 51.6633 75.9497 51.6795C74.8711 51.6871 73.8221 51.4 72.8027 50.8183C71.7881 50.2145 70.9137 49.3403 70.1794 48.1955ZM79.0131 42.5863C78.5725 41.8995 78.0621 41.4 77.4817 41.0879C76.8928 40.7624 76.2873 40.6186 75.6652 40.6564C75.0346 40.6808 74.4566 40.8614 73.9314 41.1983C73.4061 41.5352 73.0034 41.9741 72.7231 42.5151C72.4428 43.056 72.321 43.6664 72.3578 44.3461C72.3995 45.0037 72.6363 45.6692 73.0682 46.3425C73.5001 47.0159 74.0149 47.5221 74.6125 47.8611C75.215 48.178 75.8248 48.3286 76.442 48.3129C77.0726 48.2885 77.6439 48.1122 78.1556 47.7839C78.6809 47.447 79.0904 47.0038 79.3841 46.4542C79.6693 45.8911 79.791 45.2808 79.7494 44.6232C79.6991 43.9521 79.4537 43.2731 79.0131 42.5863Z" fill="white"/>
<path d="M87.2371 33.8114L89.9833 39.6277C90.1746 40.0328 90.4086 40.285 90.6855 40.3843C90.9701 40.4623 91.3438 40.392 91.8068 40.1733L93.2175 39.5073L94.4266 42.0682L92.5168 42.9699C89.9559 44.1791 88.088 43.5394 86.913 41.0508L84.177 35.2562L82.7447 35.9326L81.5663 33.4368L82.9986 32.7605L81.5948 29.7872L84.6548 28.3424L86.0587 31.3156L88.7498 30.045L89.9282 32.5408L87.2371 33.8114Z" fill="white"/>
<path d="M105.89 30.6361C106.041 31.0916 106.147 31.5116 106.208 31.8961L96.9854 34.9662C97.3645 35.8518 97.9208 36.4592 98.6543 36.7884C99.3879 37.1175 100.165 37.1457 100.984 36.8728C102.168 36.4786 102.842 35.6895 103.004 34.5056L106.442 33.361C106.482 34.6967 106.118 35.9311 105.348 37.0642C104.574 38.1821 103.435 38.9912 101.932 39.4915C100.717 39.8958 99.536 39.994 98.3875 39.7861C97.2492 39.558 96.2425 39.0415 95.3675 38.2366C94.5077 37.4268 93.863 36.3766 93.4335 35.0863C92.9988 33.7807 92.883 32.5461 93.0858 31.3825C93.2886 30.2188 93.7798 29.2121 94.5593 28.3624C95.3389 27.5127 96.351 26.8807 97.5959 26.4663C98.7952 26.067 99.9513 25.9688 101.064 26.1716C102.193 26.3694 103.174 26.8606 104.009 27.6451C104.853 28.4095 105.48 29.4065 105.89 30.6361ZM102.284 30.8245C101.996 30.0097 101.483 29.4555 100.744 29.1618C100.001 28.8528 99.2115 28.8373 98.3766 29.1153C97.5871 29.3781 97 29.8433 96.6152 30.5111C96.2406 31.1585 96.134 31.9276 96.2956 32.8181L102.284 30.8245Z" fill="white"/>
<path d="M118.453 30.6067C117.851 30.6884 117.277 30.621 116.731 30.4045C116.182 30.1721 115.723 29.8226 115.353 29.3561C114.999 28.8875 114.781 28.3519 114.699 27.7494C114.615 27.1311 114.682 26.5489 114.898 26.0028C115.131 25.4546 115.481 25.0034 115.95 24.6492C116.416 24.2791 116.951 24.0532 117.553 23.9715C118.172 23.8876 118.755 23.9619 119.303 24.1943C119.865 24.4087 120.323 24.7502 120.677 25.2188C121.047 25.6853 121.274 26.2277 121.358 26.8461C121.44 27.4486 121.365 28.0239 121.132 28.5721C120.916 29.1182 120.566 29.5773 120.084 29.9496C119.615 30.3038 119.072 30.5228 118.453 30.6067Z" fill="white"/>
<path d="M140.559 34.552L137.246 27.8212L135.665 27.7295L135.287 34.2466L131.933 34.0523L132.902 17.3283L139.179 17.692C140.473 17.767 141.562 18.0625 142.446 18.5784C143.33 19.0784 143.973 19.7328 144.375 20.5414C144.794 21.3349 144.976 22.2109 144.92 23.1693C144.856 24.2714 144.479 25.2512 143.788 26.1087C143.098 26.9502 142.113 27.5021 140.832 27.7645L144.44 34.7769L140.559 34.552ZM135.811 25.2138L138.614 25.3762C139.524 25.4289 140.216 25.2526 140.688 24.8473C141.161 24.4259 141.421 23.8239 141.466 23.0412C141.51 22.2745 141.321 21.6706 140.898 21.2293C140.475 20.7722 139.809 20.5172 138.899 20.4644L136.095 20.302L135.811 25.2138Z" fill="white"/>
<path d="M159.927 30.7264C159.83 31.1965 159.711 31.6131 159.571 31.9762L150.052 30.0094C149.936 30.9657 150.113 31.7702 150.583 32.4227C151.052 33.0752 151.71 33.4889 152.556 33.6637C153.779 33.9163 154.757 33.571 155.491 32.628L159.04 33.3613C158.405 34.5372 157.47 35.4224 156.236 36.017C155.006 36.596 153.615 36.7252 152.064 36.4047C150.81 36.1457 149.738 35.6384 148.849 34.8828C147.978 34.1147 147.366 33.1632 147.013 32.0282C146.675 30.8964 146.643 29.6645 146.918 28.3327C147.197 26.9851 147.715 25.8588 148.474 24.9536C149.233 24.0484 150.163 23.4236 151.263 23.0791C152.364 22.7347 153.556 22.6952 154.841 22.9607C156.079 23.2164 157.129 23.7111 157.99 24.4445C158.867 25.1812 159.47 26.0982 159.799 27.1954C160.147 28.2802 160.189 29.4572 159.927 30.7264ZM156.713 29.0821C156.873 28.2328 156.706 27.4959 156.214 26.8714C155.726 26.2313 155.051 25.8222 154.189 25.6442C153.374 25.4758 152.633 25.5841 151.965 25.9689C151.316 26.3414 150.839 26.9533 150.532 27.8049L156.713 29.0821Z" fill="white"/>
<path d="M161.798 31.3767C162.27 30.1184 162.936 29.0951 163.796 28.3069C164.671 27.5243 165.633 27.031 166.684 26.8271C167.75 26.6288 168.814 26.7292 169.878 27.1283C170.807 27.4768 171.545 27.9676 172.094 28.6006C172.657 29.2393 173.042 29.922 173.248 30.6486L173.914 28.8735L177.082 30.0623L172.411 42.5108L169.243 41.322L169.926 39.5019C169.302 39.9344 168.558 40.2104 167.693 40.3301C166.848 40.4404 165.961 40.3213 165.033 39.9728C163.984 39.5794 163.126 38.95 162.46 38.0847C161.808 37.225 161.411 36.2128 161.267 35.048C161.143 33.8738 161.32 32.65 161.798 31.3767ZM171.578 35.0977C171.865 34.3337 171.96 33.6259 171.863 32.9742C171.771 32.3075 171.524 31.7363 171.121 31.2606C170.724 30.7698 170.234 30.4149 169.65 30.1957C169.065 29.9764 168.473 29.9164 167.872 30.0155C167.27 30.1147 166.709 30.3824 166.186 30.8186C165.684 31.2454 165.293 31.8334 165.012 32.5824C164.73 33.3314 164.633 34.0467 164.719 34.7284C164.826 35.4007 165.07 35.9794 165.452 36.4645C165.849 36.9552 166.332 37.3074 166.901 37.521C167.485 37.7402 168.085 37.803 168.702 37.7095C169.323 37.601 169.885 37.3333 170.387 36.9065C170.895 36.4646 171.292 35.8617 171.578 35.0977Z" fill="white"/>
<path d="M186.376 29.7684L178.262 45.5662L175.273 44.031L183.388 28.2332L186.376 29.7684Z" fill="white"/>
<path d="M196.283 40.1645L193.825 43.57L198.398 46.871L196.839 49.031L192.266 45.73L189.667 49.3301L194.824 53.0525L193.223 55.2709L185.341 49.5819L195.16 35.9795L203.042 41.6686L201.44 43.887L196.283 40.1645Z" fill="white"/>
<path d="M198.533 60.2645C197.738 59.5207 197.157 58.7134 196.789 57.8425C196.432 56.9599 196.296 56.0984 196.382 55.2579C196.48 54.4284 196.79 53.6994 197.312 53.0711L199.782 55.3844C199.479 55.8018 199.37 56.2808 199.456 56.8214C199.553 57.3728 199.841 57.8728 200.32 58.3213C200.787 58.7588 201.236 59.0044 201.668 59.0582C202.112 59.1229 202.47 59.0093 202.744 58.7174C203.039 58.4021 203.094 58.0154 202.91 57.5574C202.747 57.0985 202.404 56.4476 201.878 55.6045C201.318 54.7512 200.892 54.0124 200.6 53.388C200.319 52.7746 200.19 52.1166 200.213 51.414C200.247 50.7224 200.57 50.0497 201.182 49.3957C201.686 48.8585 202.297 48.5103 203.016 48.3509C203.747 48.2025 204.519 48.2678 205.332 48.5468C206.156 48.8368 206.96 49.3482 207.742 50.081C208.898 51.1639 209.547 52.3199 209.689 53.5491C209.842 54.7666 209.494 55.8987 208.646 56.9452L206.299 54.7467C206.624 54.3286 206.745 53.8718 206.661 53.3765C206.6 52.8804 206.33 52.4082 205.851 51.9597C205.407 51.5441 204.986 51.3032 204.588 51.237C204.201 51.1817 203.871 51.3 203.597 51.592C203.291 51.9189 203.22 52.3231 203.382 52.8046C203.556 53.2743 203.906 53.9194 204.431 54.7399C204.967 55.5713 205.376 56.2938 205.656 56.9072C205.936 57.5206 206.054 58.1789 206.009 58.8822C205.987 59.5848 205.681 60.2627 205.091 60.9159C204.566 61.4764 203.938 61.8309 203.207 61.9793C202.488 62.1387 201.716 62.0734 200.891 61.7834C200.09 61.4927 199.303 60.9864 198.533 60.2645Z" fill="white"/>
<path d="M215.258 62.2839L210.346 66.4363C210.004 66.7255 209.82 67.0167 209.796 67.3098C209.794 67.6049 209.958 67.9479 210.289 68.3389L211.296 69.5302L209.133 71.3585L207.769 69.7456C205.941 67.5829 206.078 65.6132 208.18 63.8365L213.073 59.6996L212.051 58.4899L214.158 56.7081L215.181 57.9178L217.692 55.7951L219.877 58.3794L217.366 60.5021L219.287 62.7748L217.179 64.5566L215.258 62.2839Z" fill="white"/>
<path d="M215.685 68.5191C216.814 67.7893 217.958 67.3638 219.118 67.2424C220.287 67.1345 221.354 67.3115 222.32 67.7732C223.294 68.2484 224.089 68.963 224.706 69.9169C225.245 70.7499 225.546 71.5841 225.61 72.4193C225.682 73.268 225.585 74.0455 225.317 74.7519L226.91 73.7223L228.747 76.564L217.582 83.7837L215.744 80.942L217.377 79.8864C216.618 79.8625 215.856 79.641 215.089 79.222C214.345 78.8077 213.704 78.184 213.165 77.351C212.557 76.4105 212.243 75.3942 212.223 74.3022C212.211 73.2236 212.494 72.1735 213.072 71.152C213.672 70.1352 214.543 69.2576 215.685 68.5191ZM221.327 77.3322C222.012 76.8891 222.51 76.3768 222.82 75.7953C223.143 75.2052 223.285 74.5991 223.245 73.9772C223.218 73.3467 223.035 72.7694 222.696 72.2454C222.357 71.7214 221.917 71.3202 221.375 71.0419C220.833 70.7636 220.222 70.6441 219.543 70.6834C218.885 70.7275 218.221 70.9667 217.549 71.4011C216.877 71.8355 216.373 72.3521 216.036 72.9509C215.721 73.5546 215.573 74.1649 215.591 74.7821C215.618 75.4126 215.796 75.9832 216.126 76.4938C216.465 77.0178 216.91 77.4256 217.46 77.7174C218.025 78.0004 218.635 78.1199 219.293 78.0759C219.964 78.0232 220.642 77.7752 221.327 77.3322Z" fill="white"/>
<path d="M230.115 85.537L224.309 88.3048C223.905 88.4975 223.653 88.7326 223.555 89.0098C223.478 89.2947 223.55 89.6681 223.77 90.1303L224.442 91.5385L221.885 92.7572L220.976 90.8507C219.758 88.2943 220.39 86.424 222.875 85.2398L228.659 82.4823L227.977 81.0525L230.469 79.8648L231.15 81.2946L234.118 79.8798L235.575 82.9344L232.607 84.3493L233.887 87.0357L231.396 88.2233L230.115 85.537Z" fill="white"/>
<path d="M233.346 104.199C232.891 104.352 232.472 104.46 232.087 104.522L228.983 95.3112C228.098 95.6936 227.493 96.2522 227.167 96.987C226.84 97.7217 226.815 98.4985 227.091 99.3172C227.49 100.5 228.281 101.17 229.466 101.328L230.623 104.762C229.288 104.807 228.052 104.447 226.916 103.682C225.795 102.911 224.982 101.776 224.476 100.275C224.067 99.0618 223.964 97.8807 224.168 96.7315C224.392 95.5923 224.905 94.5837 225.706 93.7057C226.513 92.8428 227.56 92.1941 228.849 91.7597C230.153 91.3202 231.387 91.1996 232.552 91.3981C233.716 91.5966 234.725 92.0839 235.577 92.8603C236.43 93.6366 237.066 94.6464 237.485 95.8896C237.889 97.0874 237.991 98.2432 237.792 99.357C237.599 100.486 237.111 101.469 236.33 102.307C235.569 103.154 234.574 103.785 233.346 104.199ZM233.144 100.595C233.958 100.303 234.51 99.788 234.801 99.0483C235.107 98.3035 235.12 97.5142 234.839 96.6803C234.573 95.8919 234.105 95.3065 233.436 94.9242C232.787 94.552 232.018 94.4484 231.128 94.6133L233.144 100.595Z" fill="white"/>
<path d="M233.394 116.805C233.31 116.203 233.375 115.629 233.59 115.082C233.82 114.533 234.168 114.072 234.633 113.7C235.1 113.344 235.635 113.124 236.237 113.04C236.855 112.954 237.437 113.018 237.984 113.232C238.533 113.463 238.986 113.811 239.342 114.279C239.714 114.744 239.942 115.277 240.026 115.88C240.112 116.498 240.04 117.081 239.81 117.63C239.597 118.193 239.258 118.652 238.79 119.008C238.325 119.38 237.784 119.609 237.166 119.696C236.564 119.78 235.988 119.706 235.439 119.476C234.892 119.262 234.432 118.914 234.057 118.433C233.701 117.966 233.48 117.423 233.394 116.805Z" fill="white"/>
<defs>
<filter id="filter0_bd_3_343" x="-38.5" y="-40" width="342" height="342" filterUnits="userSpaceOnUse" color-interpolation-filters="sRGB">
<feFlood flood-opacity="0" result="BackgroundImageFix"/>
<feGaussianBlur in="BackgroundImageFix" stdDeviation="20"/>
<feComposite in2="SourceAlpha" operator="in" result="effect1_backgroundBlur_3_343"/>
<feColorMatrix in="SourceAlpha" type="matrix" values="0 0 0 0 0 0 0 0 0 0 0 0 0 0 0 0 0 0 127 0" result="hardAlpha"/>
<feMorphology radius="1" operator="erode" in="SourceAlpha" result="effect2_dropShadow_3_343"/>
<feOffset dy="1"/>
<feGaussianBlur stdDeviation="1"/>
<feComposite in2="hardAlpha" operator="out"/>
<feColorMatrix type="matrix" values="0 0 0 0 0 0 0 0 0 0 0 0 0 0 0 0 0 0 0.1 0"/>
<feBlend mode="normal" in2="effect1_backgroundBlur_3_343" result="effect2_dropShadow_3_343"/>
<feBlend mode="normal" in="SourceGraphic" in2="effect2_dropShadow_3_343" result="shape"/>
</filter>
<linearGradient id="paint0_linear_3_343" x1="263.5" y1="0" x2="1.5" y2="262" gradientUnits="userSpaceOnUse">
<stop stop-color="#26344F" stop-opacity="0"/>
<stop offset="1" stop-color="#26344F" stop-opacity="0.25"/>
</linearGradient>
<linearGradient id="paint1_linear_3_343" x1="263.5" y1="-1.56164e-05" x2="1.49998" y2="262" gradientUnits="userSpaceOnUse">
<stop stop-color="white"/>
<stop offset="1" stop-color="white" stop-opacity="0"/>
</linearGradient>
</defs>
</svg>
