<svg width="22" height="26" viewBox="0 0 22 26" fill="none" xmlns="http://www.w3.org/2000/svg">
<path d="M18.2082 3.27307C14.0429 -0.82426 7.28955 -0.82426 3.12422 3.27307C2.13526 4.23925 1.34943 5.39338 0.812907 6.66762C0.276384 7.94186 0 9.31049 0 10.6931C0 12.0757 0.276384 13.4443 0.812907 14.7185C1.34943 15.9928 2.13526 17.1469 3.12422 18.1131L10.6656 25.5331L18.2082 18.1131C19.1972 17.1469 19.983 15.9928 20.5195 14.7185C21.0561 13.4443 21.3324 12.0757 21.3324 10.6931C21.3324 9.31049 21.0561 7.94186 20.5195 6.66762C19.983 5.39338 19.1972 4.23925 18.2082 3.27307ZM10.6656 14.1997C9.77489 14.1997 8.93889 13.8531 8.30822 13.2237C7.68389 12.5981 7.33325 11.7503 7.33325 10.8664C7.33325 9.98252 7.68389 9.13474 8.30822 8.50907C8.93755 7.87974 9.77489 7.53307 10.6656 7.53307C11.5562 7.53307 12.3936 7.87974 13.0229 8.50907C13.6472 9.13474 13.9979 9.98252 13.9979 10.8664C13.9979 11.7503 13.6472 12.5981 13.0229 13.2237C12.3936 13.8531 11.5562 14.1997 10.6656 14.1997Z" fill="white"/>
</svg>
